<svg width="20" height="20" viewBox="0 0 20 20" fill="none" xmlns="http://www.w3.org/2000/svg">
<path d="M13.4392 9.10319L13.8098 8.72373C14.3906 8.13242 14.7181 7.32919 14.7204 6.4907C14.7227 5.65221 14.3996 4.8471 13.8222 4.25243L10.5541 0.925838C9.97487 0.333024 9.18934 0 8.37027 0C7.55121 0 6.76567 0.333024 6.18642 0.925838L0.904389 6.33314C0.325309 6.92613 0 7.73029 0 8.56878C0 9.40728 0.325309 10.2114 0.904389 10.8044L4.15392 14.131C4.73317 14.7238 5.51871 15.0569 6.33777 15.0569C7.15684 15.0569 7.94237 14.7238 8.52163 14.131L8.79963 13.8464L10.097 15.2378H12.2221V17.1351H14.5017V18.1659L16.2933 20H20V15.8576L13.4392 9.10319ZM8.15096 4.93546L4.78405 8.38854C4.66831 8.50633 4.51173 8.57245 4.34852 8.57245C4.18531 8.57245 4.02873 8.50633 3.91298 8.38854L3.66587 8.13557C3.55081 8.01707 3.48622 7.85678 3.48622 7.6897C3.48622 7.52262 3.55081 7.36233 3.66587 7.24384L7.0266 3.78443C7.14235 3.66664 7.29893 3.60053 7.46213 3.60053C7.62534 3.60053 7.78192 3.66664 7.89767 3.78443L8.14478 4.03741C8.20309 4.09578 8.24953 4.1654 8.28143 4.24224C8.31333 4.31908 8.33004 4.40163 8.33062 4.48511C8.33119 4.5686 8.31561 4.65138 8.28478 4.72868C8.25394 4.80597 8.20846 4.87625 8.15096 4.93546V4.93546ZM18.7644 18.7351H16.8246L15.7311 17.6221V15.8512H13.4577V13.9539H10.6097L9.6707 12.9357L12.5866 9.99492L18.7644 16.3825V18.7351Z" fill="#999"/>
</svg>
