<svg width="22" height="20" viewBox="0 0 22 20" fill="none" xmlns="http://www.w3.org/2000/svg">
<path d="M14.7812 13.4479C14.7816 13.4475 14.7814 13.4468 14.7809 13.4466C14.3992 13.2747 14.1218 12.9664 13.9328 12.6814C13.7279 12.3725 13.228 11.9769 13.228 11.6062V11.6062C13.228 11.1112 13.4407 11.5973 13.7067 10.7975C13.9666 10.016 14.4974 9.19299 14.7072 8.39659C14.8216 7.96246 14.8865 7.35915 14.8313 6.52313C14.8273 6.46235 14.7765 6.41369 14.7156 6.41369V6.41369C14.6413 6.41369 14.5854 6.34616 14.5996 6.27326C14.7151 5.67834 15.1191 3.35698 14.5712 2.49515C13.9404 1.50468 13.6896 0.844363 12.3027 0.371637C10.9157 -0.101089 11.4211 -0.00687713 10.4126 0.0414793C9.95859 0.0632316 9.53884 0.199197 9.21439 0.372349C8.73673 0.627263 8.04049 0.9583 7.6817 1.36378V1.36378C7.4294 1.64725 7.00938 2.96788 7.00938 3.29804C7.00938 3.5999 7.18493 5.48247 7.37554 6.16295C7.40003 6.25038 7.35795 6.34747 7.27307 6.37973V6.37973C7.21584 6.40148 7.17608 6.45604 7.17198 6.51713C7.12774 7.17674 7.15825 7.69187 7.22894 8.09354C7.40479 9.09264 7.9336 10.1954 8.4159 11.0878C8.62317 11.4714 8.77479 11.1899 8.77479 11.6078V11.6078C8.77479 11.9786 8.27496 12.3741 8.07006 12.6831C7.88084 12.9683 7.60309 13.2769 7.22087 13.4487C6.38083 13.8256 1.71758 15.8549 1.33837 16.2801V16.2801C-0.0509654 17.8349 2.67749 20 4.76262 20H17.2374C19.3227 20 22.0509 17.8364 20.663 16.2801V16.2801C20.2846 15.855 15.6238 13.827 14.7814 13.4491C14.7809 13.4489 14.7809 13.4483 14.7812 13.4479V13.4479Z" fill="#999"/>
</svg>
