<svg width="312" height="65" viewBox="0 0 312 65" fill="none" xmlns="http://www.w3.org/2000/svg">
<g filter="url(#filter0_d_43_74)">
<path d="M35.1057 38.693C37.3295 38.693 39.1376 40.5607 39.1376 42.8559C39.1376 45.1512 37.3295 47.0189 35.1057 47.0189C32.8819 47.0189 31.0733 45.1512 31.0733 42.8559C31.0733 40.5607 32.8819 38.693 35.1057 38.693ZM35.1057 47.6391C37.6605 47.6391 39.7389 45.4934 39.7389 42.8559C39.7389 40.2185 37.6605 38.0728 35.1057 38.0728C32.551 38.0728 30.4726 40.2185 30.4726 42.8559C30.4726 45.4934 32.551 47.6391 35.1057 47.6391Z" fill="url(#paint0_linear_43_74)"/>
<path d="M35.1441 42.218C35.518 42.218 35.821 42.532 35.821 42.9168C35.821 43.3017 35.518 43.6156 35.1441 43.6156C34.7713 43.6156 34.4678 43.3017 34.4678 42.9168C34.4678 42.532 34.7713 42.218 35.1441 42.218ZM35.1441 43.9246C35.6826 43.9246 36.1208 43.4728 36.1208 42.9168C36.1208 42.3609 35.6826 41.909 35.1441 41.909C34.6056 41.909 34.1679 42.3609 34.1679 42.9168C34.1679 43.4728 34.6056 43.9246 35.1441 43.9246Z" fill="url(#paint1_linear_43_74)"/>
<path d="M37.7034 42.1693L36.3459 43.3848L36.5459 45.2293L35.0055 44.2707L33.3696 45.0377L33.7761 43.2308L32.5639 41.8603L34.3543 41.7003L35.2426 40.0867L35.9436 41.7961L37.7034 42.1693ZM37.2003 46.283L36.9101 43.6124L38.8765 41.852L36.3266 41.3121L35.3128 38.8375L34.0271 41.1737L31.4343 41.4052L33.1893 43.3886L32.6004 46.0062L34.9711 44.8965L37.2003 46.283Z" fill="url(#paint2_radial_43_74)"/>
<path d="M147.29 57C154.156 55.3864 159.282 49.0517 159.282 41.4766C159.282 32.6805 152.373 25.5506 143.851 25.5506C137.741 25.5506 132.464 29.2136 129.963 34.5267C132.573 30.248 137.187 27.4029 142.449 27.4029C150.594 27.4029 157.197 34.2171 157.197 42.6234C157.197 49.2782 153.056 54.9324 147.29 57Z" fill="url(#paint3_linear_43_74)"/>
<path d="M174.342 20.7714C174.342 20.7714 180.272 22.8822 181.09 30.6921C181.908 38.5025 181.09 14.8608 181.09 14.8608C181.09 14.8608 180.476 16.5502 174.342 20.7714Z" fill="#831418"/>
<path d="M178.377 33.7581C178.377 33.7581 181.932 51.6924 160.304 50.7511C160.304 50.7511 183.409 57.4762 181.932 33.7581H178.377Z" fill="url(#paint4_linear_43_74)"/>
<path d="M13.5457 24.5777V24.5223H13.653V24.467H13.7602V24.4116H13.8675V24.3562H14.0284V24.3008H14.1357V24.2455H14.2966V24.1901H14.4039V24.1347H14.5648V24.0793H14.7257V24.024H14.833V23.9686H14.9939V23.9132H15.1548V23.8578H15.3157V23.8025H15.4766V23.7471H15.6375V23.6917H15.7984V23.6363H15.9593V23.581H16.1739V23.5256H16.3348V23.4702H16.5493V23.4149H16.7103V23.3595H16.9248V23.3041H17.0857V23.2487H17.3003V23.1934H17.5148V23.138H17.6757V23.0826H17.8903V23.0272H18.1048V22.9719H18.3194V22.9165H18.5876V22.8611H18.8021V22.8057H19.0166V22.7504H19.2848V22.695H19.4994V22.6396H19.7676V22.5843H19.9821V22.5289H20.2503V22.4735H20.5185V22.4181H20.7867V22.3628H21.0549V22.3074H21.323V22.252H21.5912V22.1966H21.913V22.1413H22.1812V22.0859H22.5031V22.0305H22.8249V21.9751H23.0931V21.9198H23.4685V21.8644H23.7903V21.809H24.1122V21.7536H24.434V21.6983H24.8094V21.6429H25.1849V21.5875H25.5604V21.5322H25.8822V21.4768H26.3113V21.4214H26.7404V21.366H27.1158V21.3107H27.5449V21.2553H27.974V21.1999H28.4568V21.1445H28.8858V21.0892H29.3686V21.0338H29.8513V20.9784H30.3877V20.923H30.8704V20.8677H31.4068V20.8123H31.9968V20.7569H32.5868V20.7016H33.1768V20.6462H33.8741V20.5908H34.5177V20.5354H35.215V20.4801H35.9659V20.4247H36.7705V20.3693H37.6287V20.3139H38.5405V20.2586H39.506V20.2032H40.5787V20.1478H41.8124V20.0924H43.0997V20.0371H44.7624V19.9817H46.747V19.9263H49.697V19.8709H58.6007V19.9263H61.819V19.9817H61.9262V19.9263H61.9799V19.8709H62.0335V19.8156H62.0872V19.7602H62.1408V19.7048H62.1944V19.6495H62.2481V19.5941H62.3553V19.5387H62.409V19.4833H62.4626V19.428H62.5162V19.3726H62.5699V19.3172H62.6772V19.2618H62.7308V19.2065H62.7844V19.1511H62.8381V19.0957H62.8917V19.0403H62.999V18.985H63.0526V18.9296H63.1063V18.8742H63.1599V18.8189H63.2135V18.7635H63.3208V18.7081H63.3744V18.6527H63.4281V18.5974H63.5353V18.542H63.589V18.4866H63.6426V18.4312H63.6963V18.3759H63.8035V18.3205H63.8572V18.2651H63.9108V18.2097H64.0181V18.1544H64.0717V18.099H64.1254V18.0436H64.2326V17.9882H64.2863V17.9329H64.3399V17.8775H64.4472V17.8221H64.5008V17.7668H64.5545V17.7114H64.6617V17.656H64.7154V17.6006H64.769V17.5453H64.8763V17.4899H64.9299V17.4345H65.0372V17.3791H65.0908V17.3238H65.1445V17.2684H65.2517V17.213H65.3054V17.1576H65.4126V17.1023H65.4663V17.0469H65.5199V16.9915H65.6272V16.9362H65.6808V16.8808H65.7881V16.8254H65.8417V16.77H65.949V16.7147H66.0026V16.6593H66.1099V16.6039H66.1636V16.5485H66.2172V16.4932H66.3245V16.4378H66.3781V16.3824H66.4854V16.327H66.539V16.2717H66.6463V16.2163H66.6999V16.1609H66.8072V16.1055H66.9145V16.0502H66.9681V15.9948H67.0754V15.9394H67.129V15.8841H67.2363V15.8287H67.2899V15.7733H67.3972V15.7179H67.4508V15.6626H67.5581V15.6072H67.6654V15.5518H67.719V15.4964H67.8263V15.4411H67.8799V15.3857H67.9872V15.3303H68.0409V15.2749H68.1481V15.2196H68.2554V15.1642H68.309V15.1088H68.4163V15.0535H68.5236V14.9981H68.5772V14.9427H68.6845V14.8873H68.7918V14.832H68.8454V14.7766H68.9527V14.7212H69.06V14.6658H69.1136V14.6105H69.2209V14.5551H69.3281V14.4997H69.3818V14.4443H69.4891V14.389H69.5963V14.3336H69.65V14.2782H69.7572V14.2228H69.8645V14.1675H69.9718V14.1121H70.0254V14.0567H70.1327V14.0014H70.24V13.946H70.3472V13.8906H70.4545V13.8352H70.5082V13.7799H70.6154V13.7245H70.7227V13.6691H70.83V13.6137H70.8836V13.5584H70.9909V13.503H71.0982V13.4476H71.2054V13.3922H71.3127V13.3369H71.42V13.2815H71.5273V13.2261H71.5809V13.1708H71.6882V13.1154H71.7954V13.06H71.9027V13.0046H72.01V12.9493H72.1173V12.8939H72.2245V12.8385H72.3318V12.7831H72.4391V12.7278H72.5464V12.6724H72.6536V12.617H72.7609V12.5616H72.8682V12.5063H72.9218V12.4509H73.0291V12.3955H73.1364V12.3401H73.2436V12.2848H73.3509V12.2294H73.4582V12.174H73.5655V12.1187H73.7264V12.0633H73.8336V12.0079H73.9409V11.9525H74.0482V11.8972H74.1555V11.8418H74.2627V11.7864H74.37V11.731H74.4773V11.6757H74.5846V11.6203H74.6918V11.5649H74.7991V11.5095H74.96V11.4542H75.0673V11.3988H75.1746V11.3434H75.2818V11.2881H75.3891V11.2327H75.55V11.1773H75.6573V11.1219H75.7646V11.0666H75.8719V11.0112H75.9791V10.9558H76.14V10.9004H76.2473V10.8451H76.3546V10.7897H76.5155V10.7343H76.6228V10.6789H76.73V10.6236H76.891V10.5682H76.9982V10.5128H77.1055V10.4574H77.2128V10.4021H77.3737V10.3467H77.481V10.2913H77.6419V10.236H77.7491V10.1806H77.9101V10.1252H78.0173V10.0698H78.1782V10.0145H78.2855V9.95909H78.3928V9.90371H78.5537V9.84834H78.661V9.79297H78.8219V9.73759H78.9292V9.68222H79.0901V9.62685H79.251V9.57147H79.3583V9.5161H79.5192V9.46072H79.6801V9.40535H79.7874V9.34998H79.9483V9.2946H80.1092V9.23923H80.2165V9.18386H80.3774V9.12848H80.5383V9.07311H80.6455V9.01774H80.8065V8.96236H80.9674V8.90699H81.1283V8.85162H81.2892V8.79624H81.4501V8.74087H81.5574V8.6855H81.7183V8.63012H81.8792V8.57475H82.0401V8.51937H82.201V8.464H82.3619V8.40863H82.5228V8.35325H82.6838V8.29788H82.8447V8.24251H83.0056V8.18713H83.1665V8.13176H83.3274V8.07639H83.5419V8.02101H83.7029V7.96564H83.8638V7.91027H84.0247V7.85489H84.2392V7.79952H84.4001V7.74415H84.561V7.68877H84.7756V7.6334H84.9365V7.57803H85.0974V7.52265H85.312V7.46728H85.4729V7.41191H85.6874V7.35653H85.8483V7.30116H86.0629V7.24578H86.2774V7.19041H86.4383V7.13504H86.6529V7.07966H86.8674V7.02429H87.0284V6.96892H87.2429V6.91354H87.4574V6.85817H87.672V6.8028H87.8865V6.74742H88.1011V6.69205H88.3156V6.63667H88.5302V6.5813H88.7447V6.52593H88.9593V6.47055H89.2275V6.41518H89.442V6.35981H89.7102V6.30443H89.9247V6.24906H90.1929V6.19369H90.4075V6.13831H90.6757V6.08294H90.9438V6.02757H91.1584V5.97219H91.4802V5.91682H91.7484V5.86145H92.0166V5.80607H92.2848V5.7507H92.553V5.69533H92.8748V5.63995H93.143V5.58458H93.4648V5.52921H93.7866V5.47383H94.1084V5.41846H94.4303V5.36308H94.7521V5.30771H95.0739V5.25234H95.4494V5.19696H95.8248V5.14159H96.2003V5.08622H96.5757V5.03084H97.0048V4.97547H97.5412V4.9201H98.6139V4.86472H100.867V4.80935H102.744V4.86472H105.265V4.9201H106.713V4.97547H107.786V5.03084H108.805V5.08622H109.61V5.14159H110.414V5.19696H111.111V5.25234H111.809V5.30771H112.399V5.36308H112.989V5.41846H113.579V5.47383H114.115V5.52921H114.651V5.58458H115.188V5.63995H115.67V5.69533H116.153V5.7507H116.636V5.80607H117.065V5.86145H117.548V5.91682H117.977V5.97219H118.352V6.02757H118.781V6.08294H119.211V6.13831H119.586V6.19369H119.961V6.24906H120.337V6.30443H120.712V6.35981H121.088V6.41518H121.463V6.47055H121.839V6.52593H122.161V6.5813H122.536V6.63667H122.858V6.69205H123.18V6.74742H123.555V6.8028H123.877V6.85817H124.199V6.91354H124.521V6.96892H124.789V7.02429H125.111V7.07966H125.432V7.13504H125.754V7.19041H126.076V7.24578H126.344V7.30116H126.612V7.35653H126.934V7.41191H127.202V7.46728H127.471V7.52265H127.792V7.57803H128.061V7.6334H128.329V7.68877H128.597V7.74415H128.865V7.79952H129.133V7.85489H129.402V7.91027H129.67V7.96564H129.938V8.02101H130.206V8.07639H130.474V8.13176H130.742V8.18713H130.957V8.24251H131.225V8.29788H131.493V8.35325H131.708V8.40863H131.976V8.464H132.191V8.51937H132.459V8.57475H132.727V8.63012H132.942V8.6855H133.21V8.74087H133.424V8.79624H133.639V8.85162H133.853V8.90699H134.122V8.96236H134.336V9.01774H134.551V9.07311H134.765V9.12848H135.033V9.18386H135.248V9.23923H135.463V9.2946H135.677V9.34998H135.892V9.40535H136.106V9.46072H136.321V9.5161H136.535V9.57147H136.75V9.62685H136.964V9.68222H137.179V9.73759H137.393V9.79297H137.608V9.84834H137.823V9.90371H138.037V9.95909H138.252V10.0145H138.466V10.0698H138.627V10.1252H138.842V10.1806H139.056V10.236H139.271V10.2913H139.432V10.3467H139.646V10.4021H139.861V10.4574H140.075V10.5128H140.236V10.5682H140.451V10.6236H140.665V10.6789H140.826V10.7343H141.041V10.7897H141.202V10.8451H141.416V10.9004H141.577V10.9558H141.792V11.0112H141.953V11.0666H142.167V11.1219H142.328V11.1773H142.543V11.2327H142.704V11.2881H142.918V11.3434H143.079V11.3988H143.294V11.4542H143.454V11.5095H143.615V11.5649H143.83V11.6203H143.991V11.6757H144.152V11.731H144.313V11.7864H144.527V11.8418H144.688V11.8972H144.849V11.9525H145.064V12.0079H145.224V12.0633H145.385V12.1187H145.546V12.174H145.761V12.2294H145.922V12.2848H146.083V12.3401H146.244V12.3955H146.458V12.4509H146.619V12.5063H146.78V12.5616H146.941V12.617H147.102V12.6724H147.263V12.7278H147.424V12.7831H147.585V12.8385H147.799V12.8939H147.96V12.9493H148.121V13.0046H148.282V13.06H148.443V13.1154H148.604V13.1708H148.765V13.2261H148.925V13.2815H149.033V13.3369H149.194V13.3922H149.355V13.4476H149.515V13.503H149.676V13.5584H149.837V13.6137H149.998V13.6691H150.159V13.7245H150.32V13.7799H150.481V13.8352H150.642V13.8906H150.803V13.946H150.964V14.0014H151.125V14.0567H151.285V14.1121H151.446V14.1675H151.607V14.2228H151.768V14.2782H151.929V14.3336H152.09V14.389H152.305V14.4443H152.465V14.4997H152.626V14.5551H152.787V14.6105H152.948V14.6658H153.163V14.7212H153.324V14.7766H153.485V14.832H153.645V14.8873H153.806V14.9427H154.021V14.9981H154.182V15.0535H154.343V15.1088H154.557V15.1642H154.718V15.2196H154.879V15.2749H155.04V15.3303H155.255V15.3857H155.416V15.4411H155.63V15.4964H155.791V15.5518H155.952V15.6072H156.166V15.6626H156.327V15.7179H156.542V15.7733H156.703V15.8287H156.917V15.8841H157.078V15.9394H157.293V15.9948H157.454V16.0502H157.668V16.1055H157.829V16.1609H158.044V16.2163H158.205V16.2717H158.419V16.327H158.58V16.3824H158.795V16.4378H158.956V16.4932H159.17V16.5485H159.385V16.6039H159.546V16.6593H159.76V16.7147H159.975V16.77H160.136V16.8254H160.35V16.8808H160.565V16.9362H160.726V16.9915H160.94V17.0469H161.155V17.1023H161.369V17.1576H161.53V17.213H161.745V17.2684H161.959V17.3238H162.174V17.3791H162.335V17.4345H162.549V17.4899H162.764V17.5453H162.978V17.6006H163.193V17.656H163.407V17.7114H163.622V17.7668H163.837V17.8221H164.051V17.8775H164.266V17.9329H164.48V17.9882H164.695V18.0436H164.909V18.099H165.124V18.1544H165.338V18.2097H165.553V18.2651H165.767V18.3205H165.982V18.3759H166.197V18.4312H166.411V18.4866H166.626V18.542H166.894V18.5974H167.108V18.6527H167.323V18.7081H167.537V18.7635H167.806V18.8189H168.02V18.8742H168.235V18.9296H168.503V18.985H168.717V19.0403H168.932V19.0957H169.147V19.1511H169.415V19.2065H169.629V19.2618H169.897V19.3172H170.112V19.3726H170.38V19.428H170.595V19.4833H170.809V19.5387H171.078V19.5941H171.292V19.6495H171.56V19.7048H171.828V19.7602H171.936V19.7048H171.989V19.6495H172.097V19.5941H172.15V19.5387H172.258V19.4833H172.311V19.428H172.418V19.3726H172.472V19.3172H172.579V19.2618H172.633V19.2065H172.74V19.1511H172.794V19.0957H172.901V19.0403H172.955V18.985H173.008V18.9296H173.116V18.8742H173.169V18.8189H173.277V18.7635H173.33V18.7081H173.438V18.6527H173.491V18.5974H173.545V18.542H173.652V18.4866H173.706V18.4312H173.759V18.3759H173.867V18.3205H173.92V18.2651H173.974V18.2097H174.081V18.1544H174.135V18.099H174.242V18.0436H174.296V17.9882H174.349V17.9329H174.457V17.8775H174.51V17.8221H174.564V17.7668H174.618V17.7114H174.725V17.656H174.778V17.6006H174.832V17.5453H174.939V17.4899H174.993V17.4345H175.047V17.3791H175.1V17.3238H175.208V17.2684H175.261V17.213H175.315V17.1576H175.422V17.1023H175.476V17.0469H175.529V16.9915H175.583V16.9362H175.637V16.8808H175.744V16.8254H175.798V16.77H175.851V16.7147H175.905V16.6593H176.012V16.6039H176.066V16.5485H176.119V16.4932H176.173V16.4378H176.227V16.3824H176.28V16.327H176.388V16.2717H176.441V16.2163H176.495V16.1609H176.548V16.1055H176.602V16.0502H176.656V15.9948H176.709V15.9394H176.817V15.8841H176.87V15.8287H176.924V15.7733H176.978V15.7179H177.031V15.6626H177.085V15.6072H177.138V15.5518H177.192V15.4964H177.246V15.4411H177.299V15.3857H177.353V15.3303H177.407V15.2749H177.514V15.2196H177.568V15.1642H177.621V15.1088H177.675V15.0535H177.728V14.9427H177.782V14.8873H177.836V14.832H177.889V14.7766H177.943V14.7212H177.997V14.6658H178.05V14.6105H178.104V14.5551H178.158V14.4997H178.211V14.4443H178.265V14.389H178.318V14.3336H178.372V14.2782H178.426V14.1675H178.479V14.1121H178.533V14.0567H178.587V14.0014H178.64V13.946H178.694V13.8906H178.748V13.7799H178.801V13.7245H178.855V13.6691H178.909V13.5584H178.962V13.503H179.016V13.4476H179.069V13.3369H179.123V13.2815H179.177V13.1708H179.23V13.06H179.284V13.0046H179.338V12.8939H179.391V12.7831H179.445V12.6724H179.499V12.5616H179.552V12.4509H179.606V12.3401H179.659V12.0633H179.606V12.1187H179.445V12.174H179.284V12.2294H179.069V12.2848H178.855V12.3401H178.587V12.3955H178.372V12.4509H178.104V12.5063H177.782V12.5616H177.46V12.617H177.085V12.6724H176.656V12.7278H176.227V12.7831H175.69V12.8385H174.993V12.8939H174.081V12.9493H170.327V12.8939H169.361V12.8385H168.449V12.7831H167.859V12.7278H167.269V12.6724H166.679V12.617H166.143V12.5616H165.714V12.5063H165.285V12.4509H164.856V12.3955H164.427V12.3401H163.997V12.2848H163.676V12.2294H163.354V12.174H162.978V12.1187H162.656V12.0633H162.335V12.0079H162.013V11.9525H161.637V11.8972H161.316V11.8418H161.047V11.7864H160.779V11.731H160.511V11.6757H160.243V11.6203H159.975V11.5649H159.653V11.5095H159.385V11.4542H159.116V11.3988H158.848V11.3434H158.58V11.2881H158.312V11.2327H158.097V11.1773H157.829V11.1219H157.615V11.0666H157.346V11.0112H157.132V10.9558H156.864V10.9004H156.649V10.8451H156.381V10.7897H156.166V10.7343H155.952V10.6789H155.737V10.6236H155.523V10.5682H155.362V10.5128H155.201V10.4574H155.04V10.4021H154.933V10.3467H154.772V10.2913H154.611V10.236H154.45V10.1806H154.289V10.1252H154.128V10.0698H153.967V10.0145H153.806V9.95909H153.645V9.90371H153.485V9.84834H153.324V9.79297H153.163V9.73759H153.002V9.68222H152.841V9.62685H152.68V9.57147H152.519V9.5161H152.358V9.46072H152.197V9.40535H151.983V9.34998H151.822V9.2946H151.661V9.23923H151.5V9.18386H151.339V9.12848H151.178V9.07311H150.964V9.01774H150.803V8.96236H150.642V8.90699H150.481V8.85162H150.32V8.79624H150.105V8.74087H149.945V8.6855H149.784V8.63012H149.623V8.57475H149.408V8.51937H149.247V8.464H149.086V8.40863H148.872V8.35325H148.711V8.29788H148.55V8.24251H148.335V8.18713H148.175V8.13176H147.96V8.07639H147.799V8.02101H147.638V7.96564H147.424V7.91027H147.263V7.85489H147.048V7.79952H146.887V7.74415H146.673V7.68877H146.512V7.6334H146.297V7.57803H146.136V7.52265H145.922V7.46728H145.761V7.41191H145.546V7.35653H145.385V7.30116H145.171V7.24578H144.956V7.19041H144.795V7.13504H144.581V7.07966H144.366V7.02429H144.205V6.96892H143.991V6.91354H143.776V6.85817H143.615V6.8028H143.401V6.74742H143.186V6.69205H142.972V6.63667H142.811V6.5813H142.596V6.52593H142.382V6.47055H142.167V6.41518H141.953V6.35981H141.792V6.30443H141.577V6.24906H141.363V6.19369H141.148V6.13831H140.934V6.08294H140.719V6.02757H140.504V5.97219H140.29V5.91682H140.075V5.86145H139.861V5.80607H139.646V5.7507H139.432V5.69533H139.217V5.63995H139.003V5.58458H138.734V5.52921H138.52V5.47383H138.305V5.41846H138.091V5.36308H137.876V5.30771H137.662V5.25234H137.393V5.19696H137.179V5.14159H136.964V5.08622H136.696V5.03084H136.482V4.97547H136.267V4.9201H135.999V4.86472H135.784V4.80935H135.516V4.75397H135.302V4.6986H135.033V4.64323H134.819V4.58785H134.551V4.53248H134.336V4.47711H134.068V4.42173H133.8V4.36636H133.585V4.31099H133.317V4.25561H133.049V4.20024H132.781V4.14487H132.566V4.08949H132.298V4.03412H132.03V3.97875H131.762V3.92337H131.493V3.868H131.225V3.81263H130.957V3.75725H130.689V3.70188H130.421V3.64651H130.152V3.59113H129.884V3.53576H129.562V3.48038H129.294V3.42501H128.972V3.36964H128.704V3.31426H128.382V3.25889H128.114V3.20352H127.792V3.14814H127.524V3.09277H127.202V3.0374H126.881V2.98202H126.559V2.92665H126.237V2.87127H125.915V2.8159H125.593V2.76053H125.272V2.70515H124.95V2.64978H124.628V2.59441H124.306V2.53903H123.931V2.48366H123.555V2.42829H123.233V2.37291H122.858V2.31754H122.482V2.26217H122.161V2.20679H121.785V2.15142H121.356V2.09605H120.981V2.04067H120.551V1.9853H120.122V1.92993H119.747V1.87455H119.318V1.81918H118.889V1.76381H118.406V1.70843H117.923V1.65306H117.441V1.59768H116.958V1.54231H116.475V1.48694H115.939V1.43156H115.349V1.37619H114.759V1.32082H114.169V1.26544H113.525V1.21007H112.828V1.1547H112.023V1.09932H111.219V1.04395H110.414V0.988575H109.234V0.933201H107.947V0.877829H100.92V0.933201H99.6867V0.988575H98.5603V1.04395H97.863V1.09932H97.1657V1.1547H96.4685V1.21007H95.8248V1.26544H95.3421V1.32082H94.8593V1.37619H94.3766V1.43156H93.9475V1.48694H93.4648V1.54231H92.9821V1.59768H92.6602V1.65306H92.2848V1.70843H91.963V1.76381H91.5875V1.81918H91.2657V1.87455H90.8902V1.92993H90.5684V1.9853H90.2466V2.04067H89.9247V2.09605H89.6566V2.15142H89.3884V2.20679H89.1202V2.26217H88.7984V2.31754H88.5302V2.37291H88.262V2.42829H87.9938V2.48366H87.7793V2.53903H87.5111V2.59441H87.2965V2.64978H87.0284V2.70515H86.7602V2.76053H86.5456V2.8159H86.3311V2.87127H86.0629V2.92665H85.8483V2.98202H85.6338V3.0374H85.4192V3.09277H85.2047V3.14814H84.9901V3.20352H84.7756V3.25889H84.561V3.31426H84.3465V3.36964H84.132V3.42501H83.971V3.48038H83.7565V3.53576H83.5419V3.59113H83.3274V3.64651H83.1665V3.70188H82.9519V3.75725H82.7374V3.81263H82.5765V3.868H82.3619V3.92337H82.201V3.97875H81.9865V4.03412H81.8256V4.08949H81.611V4.14487H81.4501V4.20024H81.2892V4.25561H81.0746V4.31099H80.9137V4.36636H80.6992V4.42173H80.5383V4.47711H80.3774V4.53248H80.2165V4.58785H80.0019V4.64323H79.841V4.6986H79.6801V4.75397H79.5192V4.80935H79.3583V4.86472H79.1437V4.9201H78.9828V4.97547H78.8219V5.03084H78.661V5.08622H78.5001V5.14159H78.3392V5.19696H78.1782V5.25234H78.0173V5.30771H77.8564V5.36308H77.6955V5.41846H77.5346V5.47383H77.3737V5.52921H77.2128V5.58458H77.0519V5.63995H76.891V5.69533H76.7837V5.7507H76.6228V5.80607H76.4619V5.86145H76.3009V5.91682H76.14V5.97219H75.9791V6.02757H75.8719V6.08294H75.7109V6.13831H75.55V6.19369H75.3891V6.24906H75.2818V6.30443H75.1209V6.35981H74.96V6.41518H74.8528V6.47055H74.6918V6.52593H74.5309V6.5813H74.4237V6.63667H74.2627V6.69205H74.1018V6.74742H73.9946V6.8028H73.8336V6.85817H73.7264V6.91354H73.5655V6.96892H73.4046V7.02429H73.2973V7.07966H73.1364V7.13504H73.0291V7.19041H72.8682V7.24578H72.7609V7.30116H72.6V7.35653H72.4927V7.41191H72.3855V7.46728H72.2245V7.52265H72.1173V7.57803H71.9564V7.6334H71.8491V7.68877H71.6882V7.74415H71.5809V7.79952H71.4736V7.85489H71.3127V7.91027H71.2054V7.96564H71.0982V8.02101H70.9372V8.07639H70.83V8.13176H70.7227V8.18713H70.5618V8.24251H70.4545V8.29788H70.3472V8.35325H70.24V8.40863H70.0791V8.464H69.9718V8.51937H69.8645V8.57475H69.7572V8.63012H69.65V8.6855H69.4891V8.74087H69.3818V8.79624H69.2745V8.85162H69.1672V8.90699H69.06V8.96236H68.9527V9.01774H68.7918V9.07311H68.6845V9.12848H68.5772V9.18386H68.4699V9.23923H68.3627V9.2946H68.2554V9.34998H68.1481V9.40535H68.0409V9.46072H67.9336V9.5161H67.8263V9.57147H67.719V9.62685H67.6118V9.68222H67.5045V9.73759H67.3972V9.79297H67.2899V9.84834H67.1827V9.90371H67.0754V9.95909H66.9681V10.0145H66.8608V10.0698H66.7536V10.1252H66.6463V10.1806H66.539V10.236H66.4317V10.2913H66.3245V10.3467H66.2172V10.4021H66.1099V10.4574H66.0026V10.5128H65.949V10.5682H65.8417V10.6236H65.7345V10.6789H65.6272V10.7343H65.5199V10.7897H65.4126V10.8451H65.359V10.9004H65.2517V10.9558H65.1445V11.0112H65.0372V11.0666H64.9299V11.1219H64.8226V11.1773H64.769V11.2327H64.6617V11.2881H64.5545V11.3434H64.5008V11.3988H64.3935V11.4542H64.2863V11.5095H64.179V11.5649H64.1254V11.6203H64.0181V11.6757H63.9108V11.731H63.8035V11.7864H63.7499V11.8418H63.6426V11.8972H63.5353V11.9525H63.4817V12.0079H63.3744V12.0633H63.3208V12.1187H63.2135V12.174H63.1063V12.2294H63.0526V12.2848H62.9453V12.3401H62.8381V12.3955H62.7844V12.4509H62.6772V12.5063H62.6235V12.5616H62.5162V12.617H62.409V12.6724H62.3553V12.7278H62.2481V12.7831H62.1944V12.8385H62.0872V12.8939H62.0335V12.9493H61.9262V13.0046H61.8726V13.06H61.7653V13.1154H61.7117V13.1708H61.6044V13.2261H61.5508V13.2815H61.4435V13.3369H61.3899V13.3922H61.2826V13.4476H61.229V13.503H61.1217V13.5584H61.068V13.6137H61.0144V13.6691H60.9071V13.7245H60.8535V13.7799H60.7462V13.8352H60.6926V13.8906H60.5853V13.946H60.5317V14.0014H60.4244V14.0567H60.3708V14.1121H60.3171V14.1675H60.2099V14.2228H60.1562V14.2782H60.1026V14.3336H59.9953V14.389H59.9417V14.4443H59.888V14.4997H59.7808V14.5551H59.7271V14.6105H59.6735V14.6658H59.5662V14.7212H59.5126V14.7766H59.4589V14.832H55.6507V14.8873H53.827V14.9427H52.4861V14.9981H51.3598V15.0535H50.3407V15.1088H49.4825V15.1642H48.6779V15.2196H47.927V15.2749H47.1761V15.3303H46.5324V15.3857H45.8888V15.4411H45.2988V15.4964H44.7624V15.5518H44.1724V15.6072H43.636V15.6626H43.1533V15.7179H42.6706V15.7733H42.1342V15.8287H41.7051V15.8841H41.276V15.9394H40.8469V15.9948H40.3642V16.0502H39.9887V16.1055H39.5596V16.1609H39.1842V16.2163H38.8087V16.2717H38.3796V16.327H38.0578V16.3824H37.6823V16.4378H37.3069V16.4932H36.985V16.5485H36.6096V16.6039H36.2878V16.6593H35.9659V16.7147H35.6441V16.77H35.3223V16.8254H35.0005V16.8808H34.6786V16.9362H34.4105V16.9915H34.1423V17.0469H33.8204V17.1023H33.5523V17.1576H33.2841V17.213H32.9623V17.2684H32.6941V17.3238H32.4259V17.3791H32.1577V17.4345H31.9432V17.4899H31.675V17.5453H31.4068V17.6006H31.1386V17.656H30.8704V17.7114H30.6559V17.7668H30.3877V17.8221H30.1731V17.8775H29.9586V17.9329H29.6904V17.9882H29.4759V18.0436H29.2613V18.099H28.9931V18.1544H28.7786V18.2097H28.564V18.2651H28.3495V18.3205H28.1886V18.3759H27.974V18.4312H27.7595V18.4866H27.5449V18.542H27.3304V18.5974H27.1158V18.6527H26.9013V18.7081H26.7404V18.7635H26.5258V18.8189H26.3649V18.8742H26.1504V18.9296H25.9895V18.985H25.7749V19.0403H25.614V19.0957H25.3994V19.1511H25.1849V19.2065H25.024V19.2618H24.8631V19.3172H24.7022V19.3726H24.5413V19.428H24.3267V19.4833H24.1658V19.5387H24.0049V19.5941H23.844V19.6495H23.6831V19.7048H23.4685V19.7602H23.3076V19.8156H23.1467V19.8709H22.9858V19.9263H22.8785V19.9817H22.7176V20.0371H22.5567V20.0924H22.3958V20.1478H22.2349V20.2032H22.074V20.2586H21.913V20.3139H21.8058V20.3693H21.6449V20.4247H21.4839V20.4801H21.323V20.5354H21.2158V20.5908H21.0549V20.6462H20.9476V20.7016H20.7867V20.7569H20.6258V20.8123H20.5185V20.8677H20.3576V20.923H20.2503V20.9784H20.0894V21.0338H19.9821V21.0892H19.8212V21.1445H19.7139V21.1999H19.553V21.2553H19.4457V21.3107H19.3385V21.366H19.1776V21.4214H19.0703V21.4768H18.963V21.5322H18.8021V21.5875H18.6948V21.6429H18.5876V21.6983H18.4266V21.7536H18.3194V21.809H18.2121V21.8644H18.1048V21.9198H17.9439V21.9751H17.8366V22.0305H17.7294V22.0859H17.6221V22.1413H17.5148V22.1966H17.4075V22.252H17.3003V22.3074H17.193V22.3628H17.0857V22.4181H16.9784V22.4735H16.8712V22.5289H16.7639V22.5843H16.6566V22.6396H16.5493V22.695H16.4421V22.7504H16.3348V22.8057H16.2275V22.8611H16.1203V22.9165H16.013V22.9719H15.9593V23.0272H15.8521V23.0826H15.7448V23.138H15.6375V23.1934H15.5302V23.2487H15.423V23.3041H15.3693V23.3595H15.2621V23.4149H15.1548V23.4702H15.0475V23.5256H14.9402V23.581H14.833V23.6363H14.7793V23.6917H14.6721V23.7471H14.6184V23.8025H14.5111V23.8578H14.4039V23.9132H14.3502V23.9686H14.243V24.024H14.1357V24.0793H14.082V24.1347H13.9748V24.1901H13.8675V24.2455H13.8139V24.3008H13.7066V24.3562H13.653V24.4116H13.5457V24.467H13.492V24.5223H13.3848V24.5777" fill="url(#paint5_linear_43_74)"/>
<path d="M7.09058 33.7198C7.09058 33.7198 8.72544 29.7092 18.9492 29.2872C18.9492 29.2872 19.2479 28.0585 22.2216 25.065C22.2216 25.065 11.9973 22.7432 7.09058 33.7198Z" fill="url(#paint6_linear_43_74)"/>
<path d="M102.575 20.9823H67.4074C67.4074 20.9823 82.5374 7.6838 96.5431 8.31727C96.5431 8.31727 81.1063 11.4835 77.0165 18.027L102.575 20.9823Z" fill="url(#paint7_linear_43_74)"/>
<path d="M107.074 20.9823V10.0062C107.074 10.0062 127.111 9.16227 139.992 14.8608C139.992 14.8608 130.178 7.05033 105.438 7.26185L107.074 20.9823Z" fill="url(#paint8_linear_43_74)"/>
<path d="M7.09051 35.7682C7.09051 35.7682 18.5163 47.0245 3.99996 51.6316C3.99996 51.6316 13.4047 51.6687 16.0629 51.6316C16.0629 51.6316 16.4958 36.8236 7.09051 35.7682Z" fill="url(#paint9_linear_43_74)"/>
<path d="M40.0273 57C43.4987 56.1838 46.5238 54.1599 48.6672 51.3802C55.5295 54.3759 62.9314 55.5404 70.3011 55.5404C96.0839 55.5404 121.42 41.275 121.42 41.275C109.158 45.9004 98.4852 47.4946 89.5916 47.4935C69.8693 47.4924 58.9161 39.652 58.9161 39.652C70.019 43.3133 79.7122 44.7569 88.1021 44.7569C119.463 44.7569 132.562 24.5705 132.562 24.5705C122.663 29.1316 113.828 30.5957 105.635 30.5957C98.2883 30.5957 91.4587 29.4179 84.8458 28.2407C78.2324 27.0629 71.8362 25.8856 65.3531 25.8856C59.4026 25.8856 53.3786 26.8779 47.05 29.7729C44.0479 26.9134 40.3121 25.5523 36.6133 25.5523C30.9841 25.5523 25.4407 28.7047 22.6999 34.5267C25.3098 30.248 29.9248 27.4029 35.1855 27.4029C46.0641 27.4029 53.1448 39.1271 48.5019 49.1658C46.8151 52.8143 43.7637 55.6605 40.0273 57Z" fill="url(#paint10_linear_43_74)"/>
<path d="M35.1056 56.1578C42.2098 56.1578 47.9897 50.1907 47.9897 42.856C47.9897 35.5212 42.2098 29.5536 35.1056 29.5536C28.0003 29.5536 22.2215 35.5212 22.2215 42.856C22.2215 50.1907 28.0003 56.1578 35.1056 56.1578ZM35.1056 33.752C39.9683 33.752 43.9235 37.8358 43.9235 42.856C43.9235 47.8756 39.9683 51.9594 35.1056 51.9594C30.2434 51.9594 26.2866 47.8756 26.2866 42.856C26.2866 37.8358 30.2434 33.752 35.1056 33.752ZM33.4541 31.655C32.0848 31.9363 30.3373 32.7204 28.7378 34.0494C27.1282 35.3877 25.1506 37.7267 24.8389 41.2751L23.8477 41.2418C24.4442 35.9963 28.5984 31.9723 33.4541 31.655Z" fill="url(#paint11_radial_43_74)"/>
<path d="M28.7378 34.0499C30.3373 32.7204 32.0848 31.9363 33.4541 31.655C28.5984 31.9723 24.4442 35.9963 23.8477 41.2418L24.8389 41.2751C25.15 37.7267 27.1282 35.3877 28.7378 34.0499ZM35.1056 51.9594C39.9683 51.9594 43.9235 47.8756 43.9235 42.856C43.9235 37.8358 39.9683 33.752 35.1056 33.752C30.2434 33.752 26.2866 37.8358 26.2866 42.856C26.2866 47.8756 30.2434 51.9594 35.1056 51.9594ZM35.1056 29.5536C42.2098 29.5536 47.9897 35.5212 47.9897 42.856C47.9897 50.1907 42.2098 56.1578 35.1056 56.1578C28.0003 56.1578 22.2215 50.1907 22.2215 42.856C22.2215 35.5212 28.0003 29.5536 35.1056 29.5536Z" fill="url(#paint12_radial_43_74)"/>
<path d="M142.369 56.1578C149.473 56.1578 155.253 50.1907 155.253 42.856C155.253 35.5212 149.473 29.5536 142.369 29.5536C135.263 29.5536 129.484 35.5212 129.484 42.856C129.484 50.1907 135.263 56.1578 142.369 56.1578ZM142.369 33.752C147.231 33.752 151.187 37.8358 151.187 42.856C151.187 47.8756 147.231 51.9594 142.369 51.9594C137.506 51.9594 133.549 47.8756 133.549 42.856C133.549 37.8358 137.506 33.752 142.369 33.752ZM140.717 31.655C139.348 31.9363 137.601 32.7204 136.001 34.0494C134.39 35.3877 132.413 37.7267 132.102 41.2751L131.11 41.2418C131.707 35.9963 135.862 31.9723 140.717 31.655Z" fill="url(#paint13_radial_43_74)"/>
<path d="M136.001 34.0499C137.601 32.7204 139.348 31.9363 140.717 31.655C135.862 31.9723 131.707 35.9963 131.11 41.2418L132.102 41.2751C132.413 37.7267 134.39 35.3877 136.001 34.0499ZM142.369 51.9594C147.231 51.9594 151.187 47.8756 151.187 42.856C151.187 37.8358 147.231 33.752 142.369 33.752C137.506 33.752 133.549 37.8358 133.549 42.856C133.549 47.8756 137.506 51.9594 142.369 51.9594ZM142.369 29.5536C149.473 29.5536 155.253 35.5212 155.253 42.856C155.253 50.1907 149.473 56.1578 142.369 56.1578C135.263 56.1578 129.484 50.1907 129.484 42.856C129.484 35.5212 135.263 29.5536 142.369 29.5536Z" fill="url(#paint14_radial_43_74)"/>
<path d="M142.319 38.6187C144.542 38.6187 146.351 40.4865 146.351 42.7817C146.351 45.077 144.542 46.9447 142.319 46.9447C140.095 46.9447 138.287 45.077 138.287 42.7817C138.287 40.4865 140.095 38.6187 142.319 38.6187ZM142.319 47.5643C144.873 47.5643 146.951 45.4186 146.951 42.7817C146.951 40.1443 144.873 37.9985 142.319 37.9985C139.764 37.9985 137.686 40.1443 137.686 42.7817C137.686 45.4186 139.764 47.5643 142.319 47.5643Z" fill="url(#paint15_linear_43_74)"/>
<path d="M142.358 42.1438C142.731 42.1438 143.035 42.4573 143.035 42.8427C143.035 43.2281 142.731 43.5409 142.358 43.5409C141.985 43.5409 141.681 43.2281 141.681 42.8427C141.681 42.4573 141.985 42.1438 142.358 42.1438ZM142.358 43.8505C142.896 43.8505 143.334 43.3986 143.334 42.8427C143.334 42.2873 142.896 41.8343 142.358 41.8343C141.819 41.8343 141.382 42.2873 141.382 42.8427C141.382 43.3986 141.819 43.8505 142.358 43.8505Z" fill="url(#paint16_linear_43_74)"/>
<path d="M144.916 42.0951L143.559 43.3106L143.759 45.1551L142.219 44.1971L140.582 44.9629L140.988 43.1561L139.776 41.7861L141.567 41.6261L142.455 40.0125L143.156 41.7219L144.916 42.0951ZM144.413 46.2077L144.123 43.5376L146.089 41.7778L143.54 41.2374L142.526 38.7633L141.24 41.0995L138.647 41.3304L140.402 43.3144L139.813 45.9308L142.184 44.8217L144.413 46.2077Z" fill="url(#paint17_radial_43_74)"/>
</g>
<g filter="url(#filter1_d_43_74)">
<path d="M201.422 15.7747L198.469 32.8372H195.117L198.059 15.7747H201.422ZM209.73 15.7747L202.84 24.3176L198.797 28.5598L198.762 24.8684L201.492 21.259L205.477 15.7747H209.73ZM202.898 32.8372L200.613 24.8684L203.32 22.7356L206.684 32.8372H202.898ZM218.016 30.0012L217.512 32.8372H210.316L210.797 30.0012H218.016ZM214.312 15.7747L211.359 32.8372H208.008L210.949 15.7747H214.312ZM218.32 22.6887L217.84 25.4426H211.594L212.062 22.6887H218.32ZM220.453 15.7747L219.949 18.6223H212.766L213.27 15.7747H220.453ZM224.824 15.7747L226.008 23.427L229.828 15.7747H233.602L227.156 26.802L226.113 32.8372H222.727L223.84 26.4622L221.309 15.7747H224.824ZM239.098 25.3958H235.559L235.992 22.9114L238.734 22.9348C239.195 22.927 239.602 22.8372 239.953 22.6653C240.305 22.4856 240.586 22.2317 240.797 21.9036C241.008 21.5754 241.145 21.1809 241.207 20.72C241.262 20.3215 241.262 19.9739 241.207 19.677C241.16 19.3723 241.023 19.1301 240.797 18.9504C240.578 18.7629 240.254 18.6575 239.824 18.634L237.891 18.6223L235.43 32.8372H232.078L235.02 15.7747L239.965 15.7864C240.684 15.802 241.34 15.9075 241.934 16.1028C242.527 16.2903 243.031 16.5754 243.445 16.9583C243.867 17.3333 244.184 17.8059 244.395 18.3762C244.605 18.9387 244.684 19.5989 244.629 20.3567C244.566 21.2239 244.332 21.9543 243.926 22.5481C243.527 23.134 243 23.5911 242.344 23.9192C241.688 24.2473 240.941 24.4348 240.105 24.4817L239.098 25.3958ZM237.727 32.8372H233.273L235.066 30.0129L237.891 30.0247C238.352 30.009 238.746 29.8997 239.074 29.6965C239.41 29.4934 239.676 29.22 239.871 28.8762C240.074 28.5325 240.207 28.134 240.27 27.6809C240.316 27.3528 240.328 27.0208 240.305 26.6848C240.281 26.3411 240.184 26.052 240.012 25.8176C239.84 25.5754 239.543 25.4387 239.121 25.4075L236.098 25.3958L236.555 22.9114L239.941 22.9231L240.516 23.8958C241.258 23.9192 241.859 24.1028 242.32 24.4465C242.789 24.7903 243.125 25.2473 243.328 25.8176C243.531 26.3801 243.605 27.0168 243.551 27.7278C243.48 28.8372 243.188 29.7747 242.672 30.5403C242.164 31.2981 241.484 31.8762 240.633 32.2747C239.781 32.6653 238.812 32.8528 237.727 32.8372ZM258.469 22.9817L258.047 25.8059C257.898 26.7668 257.652 27.6926 257.309 28.5833C256.965 29.4661 256.508 30.2473 255.938 30.927C255.367 31.6067 254.676 32.1418 253.863 32.5325C253.051 32.9153 252.109 33.095 251.039 33.0715C250.016 33.0481 249.16 32.8293 248.473 32.4153C247.793 32.0012 247.262 31.4504 246.879 30.7629C246.496 30.0754 246.246 29.3059 246.129 28.4543C246.02 27.595 246.02 26.72 246.129 25.8293L246.551 22.9934C246.699 22.0247 246.945 21.095 247.289 20.2043C247.633 19.3059 248.09 18.5012 248.66 17.7903C249.238 17.0793 249.938 16.5208 250.758 16.1145C251.578 15.7004 252.531 15.509 253.617 15.5403C254.656 15.5637 255.516 15.7942 256.195 16.2317C256.875 16.6692 257.402 17.2473 257.777 17.9661C258.152 18.677 258.391 19.47 258.492 20.345C258.594 21.2122 258.586 22.0911 258.469 22.9817ZM254.73 25.8293L255.141 22.9348C255.195 22.5364 255.234 22.0872 255.258 21.5872C255.289 21.0793 255.262 20.5872 255.176 20.1106C255.09 19.6262 254.91 19.2239 254.637 18.9036C254.363 18.5833 253.941 18.4114 253.371 18.3879C252.746 18.3567 252.223 18.4817 251.801 18.7629C251.387 19.0442 251.051 19.4231 250.793 19.8997C250.535 20.3684 250.336 20.8723 250.195 21.4114C250.062 21.9504 249.957 22.4661 249.879 22.9583L249.48 25.8411C249.426 26.2473 249.387 26.6965 249.363 27.1887C249.34 27.6809 249.375 28.1575 249.469 28.6184C249.57 29.0715 249.758 29.4504 250.031 29.7551C250.312 30.052 250.738 30.2122 251.309 30.2356C251.91 30.2668 252.414 30.1497 252.82 29.884C253.227 29.6106 253.559 29.2512 253.816 28.8059C254.074 28.3606 254.273 27.8762 254.414 27.3528C254.555 26.8215 254.66 26.3137 254.73 25.8293ZM267.375 18.9856L261.457 32.8372H257.824L265.957 15.7747H268.242L267.375 18.9856ZM267.809 32.8372L266.637 18.7043L266.824 15.7747H268.992L271.254 32.8372H267.809ZM269.016 26.4739L268.512 29.3215H261.012L261.516 26.4739H269.016ZM275.812 15.7747L280.969 15.7864C281.992 15.8176 282.852 16.0403 283.547 16.4543C284.25 16.8606 284.77 17.4387 285.105 18.1887C285.449 18.9309 285.578 19.8137 285.492 20.8372C285.422 21.6887 285.238 22.4348 284.941 23.0754C284.652 23.7083 284.246 24.2629 283.723 24.7395C283.199 25.2083 282.559 25.6184 281.801 25.97L280.664 26.5793H276.188L276.68 23.7317L279.516 23.7551C280.039 23.7473 280.484 23.6262 280.852 23.3918C281.219 23.1575 281.508 22.8411 281.719 22.4426C281.938 22.0442 282.078 21.6028 282.141 21.1184C282.188 20.7512 282.191 20.3801 282.152 20.0051C282.121 19.6301 282.004 19.3137 281.801 19.0559C281.598 18.7981 281.273 18.6575 280.828 18.634L278.684 18.6223L276.223 32.8372H272.871L275.812 15.7747ZM280.453 32.8372L278.73 25.2317L282.105 25.22L284.027 32.6497V32.8372H280.453ZM290.25 32.8372H287.156L287.672 30.0012L290.414 30.0129C291.336 30.0208 292.07 29.8333 292.617 29.4504C293.172 29.0598 293.586 28.5364 293.859 27.8801C294.133 27.2161 294.332 26.4661 294.457 25.6301L294.832 22.9583C294.895 22.4661 294.938 21.97 294.961 21.47C294.992 20.97 294.953 20.509 294.844 20.0872C294.734 19.6653 294.516 19.3254 294.188 19.0676C293.867 18.802 293.391 18.6575 292.758 18.634L289.559 18.6223L290.062 15.7747L292.898 15.7864C293.93 15.8098 294.805 16.0208 295.523 16.4192C296.242 16.8176 296.816 17.3528 297.246 18.0247C297.684 18.6965 297.977 19.4583 298.125 20.3098C298.273 21.1614 298.289 22.0559 298.172 22.9934L297.773 25.6418C297.617 26.6497 297.34 27.595 296.941 28.4778C296.551 29.3528 296.039 30.1184 295.406 30.7747C294.781 31.4231 294.039 31.9309 293.18 32.2981C292.328 32.6653 291.352 32.845 290.25 32.8372ZM292.055 15.7747L289.102 32.8372H285.75L288.691 15.7747H292.055ZM197.303 41.0403L201.17 41.0491C201.938 41.0725 202.582 41.2395 203.104 41.55C203.631 41.8547 204.021 42.2883 204.272 42.8508C204.53 43.4075 204.627 44.0696 204.562 44.8372C204.51 45.4758 204.372 46.0354 204.149 46.5159C203.933 46.9905 203.628 47.4065 203.235 47.7639C202.843 48.1155 202.362 48.4231 201.794 48.6868L200.941 49.1438H197.584L197.953 47.0081L200.08 47.0256C200.473 47.0198 200.807 46.929 201.082 46.7532C201.357 46.5774 201.574 46.3401 201.732 46.0413C201.896 45.7424 202.002 45.4114 202.049 45.0481C202.084 44.7727 202.087 44.4944 202.058 44.2131C202.034 43.9319 201.946 43.6946 201.794 43.5012C201.642 43.3079 201.398 43.2024 201.064 43.1848L199.456 43.176L197.61 53.8372H195.097L197.303 41.0403ZM200.783 53.8372L199.491 48.1331L202.022 48.1243L203.464 53.6965V53.8372H200.783ZM211.066 43.4485L206.628 53.8372H203.903L210.003 41.0403H211.717L211.066 43.4485ZM211.392 53.8372L210.513 43.2375L210.653 41.0403H212.279L213.976 53.8372H211.392ZM212.297 49.0647L211.919 51.2004H206.294L206.672 49.0647H212.297ZM221.604 49.5833L224.021 49.5481C223.928 50.4387 223.679 51.2239 223.274 51.9036C222.876 52.5833 222.334 53.1106 221.648 53.4856C220.969 53.8606 220.166 54.0364 219.24 54.0129C218.467 53.9954 217.831 53.8284 217.333 53.512C216.835 53.1897 216.451 52.7678 216.182 52.2463C215.912 51.719 215.745 51.136 215.681 50.4973C215.616 49.8528 215.625 49.1965 215.707 48.5286L216.041 46.3577C216.146 45.6487 216.325 44.9631 216.577 44.301C216.829 43.6331 217.163 43.0383 217.579 42.5168C217.995 41.9895 218.505 41.5764 219.108 41.2776C219.718 40.9788 220.421 40.8381 221.218 40.8557C222.138 40.8733 222.864 41.0872 223.397 41.4973C223.937 41.9016 224.323 42.4436 224.558 43.1233C224.792 43.803 224.912 44.5559 224.918 45.3821L222.404 45.3733C222.428 44.9749 222.422 44.5969 222.387 44.2395C222.352 43.8762 222.234 43.5803 222.035 43.3518C221.842 43.1174 221.505 42.9915 221.024 42.9739C220.556 42.9563 220.169 43.05 219.864 43.2551C219.565 43.4602 219.325 43.7327 219.144 44.0725C218.968 44.4124 218.833 44.7815 218.739 45.1799C218.651 45.5784 218.581 45.9651 218.528 46.3401L218.221 48.5374C218.18 48.842 218.142 49.1819 218.106 49.5569C218.077 49.9319 218.086 50.2952 218.133 50.6467C218.18 50.9983 218.3 51.2913 218.493 51.5256C218.687 51.76 219 51.8889 219.434 51.9124C219.943 51.9299 220.342 51.8362 220.629 51.6311C220.916 51.426 221.13 51.1448 221.271 50.7874C221.417 50.4241 221.528 50.0227 221.604 49.5833ZM232.441 51.7102L232.063 53.8372H226.667L227.027 51.7102H232.441ZM229.664 41.0403L227.449 53.8372H224.936L227.142 41.0403H229.664ZM232.67 46.2258L232.31 48.2913H227.625L227.977 46.2258H232.67ZM234.27 41.0403L233.892 43.176H228.504L228.882 41.0403H234.27Z" fill="#333333"/>
</g>
<defs>
<filter id="filter0_d_43_74" x="-6.10352e-05" y="0.877838" width="186" height="64.1222" filterUnits="userSpaceOnUse" color-interpolation-filters="sRGB">
<feFlood flood-opacity="0" result="BackgroundImageFix"/>
<feColorMatrix in="SourceAlpha" type="matrix" values="0 0 0 0 0 0 0 0 0 0 0 0 0 0 0 0 0 0 127 0" result="hardAlpha"/>
<feOffset dy="4"/>
<feGaussianBlur stdDeviation="2"/>
<feComposite in2="hardAlpha" operator="out"/>
<feColorMatrix type="matrix" values="0 0 0 0 0 0 0 0 0 0 0 0 0 0 0 0 0 0 0.25 0"/>
<feBlend mode="normal" in2="BackgroundImageFix" result="effect1_dropShadow_43_74"/>
<feBlend mode="normal" in="SourceGraphic" in2="effect1_dropShadow_43_74" result="shape"/>
</filter>
<filter id="filter1_d_43_74" x="191.097" y="15.4934" width="111.251" height="46.5547" filterUnits="userSpaceOnUse" color-interpolation-filters="sRGB">
<feFlood flood-opacity="0" result="BackgroundImageFix"/>
<feColorMatrix in="SourceAlpha" type="matrix" values="0 0 0 0 0 0 0 0 0 0 0 0 0 0 0 0 0 0 127 0" result="hardAlpha"/>
<feOffset dy="4"/>
<feGaussianBlur stdDeviation="2"/>
<feComposite in2="hardAlpha" operator="out"/>
<feColorMatrix type="matrix" values="0 0 0 0 0 0 0 0 0 0 0 0 0 0 0 0 0 0 0.25 0"/>
<feBlend mode="normal" in2="BackgroundImageFix" result="effect1_dropShadow_43_74"/>
<feBlend mode="normal" in="SourceGraphic" in2="effect1_dropShadow_43_74" result="shape"/>
</filter>
<linearGradient id="paint0_linear_43_74" x1="35.1057" y1="-0.17815" x2="35.1057" y2="59.638" gradientUnits="userSpaceOnUse">
<stop stop-color="#ED1C24"/>
<stop offset="0.344602" stop-color="#ED1C24"/>
<stop offset="1" stop-color="#861115"/>
</linearGradient>
<linearGradient id="paint1_linear_43_74" x1="35.1441" y1="21.1206" x2="35.1441" y2="51.4169" gradientUnits="userSpaceOnUse">
<stop stop-color="#ED1C24"/>
<stop offset="0.344602" stop-color="#ED1C24"/>
<stop offset="1" stop-color="#861115"/>
</linearGradient>
<radialGradient id="paint2_radial_43_74" cx="0" cy="0" r="1" gradientUnits="userSpaceOnUse" gradientTransform="translate(35.1557 42.5603) rotate(180) scale(5.0755 5.23981)">
<stop stop-color="#7B7979"/>
<stop offset="0.0986598" stop-color="#7B7979"/>
<stop offset="0.286301" stop-color="#231F20"/>
<stop offset="0.374278" stop-color="#231F20"/>
<stop offset="1" stop-color="#656263"/>
</radialGradient>
<linearGradient id="paint3_linear_43_74" x1="143.402" y1="-12.4633" x2="145.444" y2="66.6572" gradientUnits="userSpaceOnUse">
<stop stop-color="#ED1C24"/>
<stop offset="0.344602" stop-color="#ED1C24"/>
<stop offset="1" stop-color="#861115"/>
</linearGradient>
<linearGradient id="paint4_linear_43_74" x1="169.789" y1="-13.1461" x2="171.831" y2="65.9772" gradientUnits="userSpaceOnUse">
<stop stop-color="#ED1C24"/>
<stop offset="0.344602" stop-color="#ED1C24"/>
<stop offset="1" stop-color="#861115"/>
</linearGradient>
<linearGradient id="paint5_linear_43_74" x1="95.827" y1="-11.2362" x2="97.8691" y2="67.8854" gradientUnits="userSpaceOnUse">
<stop stop-color="#ED1C24"/>
<stop offset="0.344602" stop-color="#ED1C24"/>
<stop offset="1" stop-color="#861115"/>
</linearGradient>
<linearGradient id="paint6_linear_43_74" x1="13.7233" y1="-9.11818" x2="15.7654" y2="70.0045" gradientUnits="userSpaceOnUse">
<stop stop-color="#F68712"/>
<stop offset="1" stop-color="#EF2E32"/>
</linearGradient>
<linearGradient id="paint7_linear_43_74" x1="84.2178" y1="-10.9372" x2="86.2599" y2="68.185" gradientUnits="userSpaceOnUse">
<stop stop-color="#ED1C24"/>
<stop offset="0.344602" stop-color="#ED1C24"/>
<stop offset="1" stop-color="#861115"/>
</linearGradient>
<linearGradient id="paint8_linear_43_74" x1="122.158" y1="-11.9156" x2="124.2" y2="67.2048" gradientUnits="userSpaceOnUse">
<stop stop-color="#ED1C24"/>
<stop offset="0.344602" stop-color="#ED1C24"/>
<stop offset="1" stop-color="#861115"/>
</linearGradient>
<linearGradient id="paint9_linear_43_74" x1="8.57251" y1="-8.98468" x2="10.6146" y2="70.1375" gradientUnits="userSpaceOnUse">
<stop stop-color="#ED1C24"/>
<stop offset="0.344602" stop-color="#ED1C24"/>
<stop offset="1" stop-color="#861115"/>
</linearGradient>
<linearGradient id="paint10_linear_43_74" x1="76.656" y1="-10.7412" x2="78.6981" y2="68.3799" gradientUnits="userSpaceOnUse">
<stop stop-color="#ED1C24"/>
<stop offset="0.344602" stop-color="#ED1C24"/>
<stop offset="1" stop-color="#861115"/>
</linearGradient>
<radialGradient id="paint11_radial_43_74" cx="0" cy="0" r="1" gradientUnits="userSpaceOnUse" gradientTransform="translate(35.1056 42.856) rotate(180) scale(21.039 21.7202)">
<stop stop-color="#A19FA0"/>
<stop offset="0.44454" stop-color="#918F8F"/>
<stop offset="0.507042" stop-color="#918F8F"/>
<stop offset="0.830126" stop-color="#A19FA0"/>
<stop offset="1" stop-color="#A19FA0"/>
</radialGradient>
<radialGradient id="paint12_radial_43_74" cx="0" cy="0" r="1" gradientUnits="userSpaceOnUse" gradientTransform="translate(35.1056 42.856) rotate(180) scale(19.2336 19.8563)">
<stop stop-color="#7B7979"/>
<stop offset="0.169874" stop-color="#7B7979"/>
<stop offset="0.492958" stop-color="#231F20"/>
<stop offset="0.55546" stop-color="#231F20"/>
<stop offset="1" stop-color="#656263"/>
</radialGradient>
<radialGradient id="paint13_radial_43_74" cx="0" cy="0" r="1" gradientUnits="userSpaceOnUse" gradientTransform="translate(142.368 42.856) rotate(180) scale(21.0392 21.7204)">
<stop stop-color="#A19FA0"/>
<stop offset="0.44454" stop-color="#918F8F"/>
<stop offset="0.507042" stop-color="#918F8F"/>
<stop offset="0.830126" stop-color="#A19FA0"/>
<stop offset="1" stop-color="#A19FA0"/>
</radialGradient>
<radialGradient id="paint14_radial_43_74" cx="0" cy="0" r="1" gradientUnits="userSpaceOnUse" gradientTransform="translate(142.368 42.856) rotate(180) scale(19.2338 19.8565)">
<stop stop-color="#7B7979"/>
<stop offset="0.169874" stop-color="#7B7979"/>
<stop offset="0.492958" stop-color="#231F20"/>
<stop offset="0.55546" stop-color="#231F20"/>
<stop offset="1" stop-color="#656263"/>
</radialGradient>
<linearGradient id="paint15_linear_43_74" x1="142.319" y1="-0.250193" x2="142.319" y2="59.5627" gradientUnits="userSpaceOnUse">
<stop stop-color="#ED1C24"/>
<stop offset="0.344602" stop-color="#ED1C24"/>
<stop offset="1" stop-color="#861115"/>
</linearGradient>
<linearGradient id="paint16_linear_43_74" x1="142.358" y1="21.046" x2="142.358" y2="51.3422" gradientUnits="userSpaceOnUse">
<stop stop-color="#ED1C24"/>
<stop offset="0.344602" stop-color="#ED1C24"/>
<stop offset="1" stop-color="#861115"/>
</linearGradient>
<radialGradient id="paint17_radial_43_74" cx="0" cy="0" r="1" gradientUnits="userSpaceOnUse" gradientTransform="translate(142.368 42.4855) rotate(180) scale(5.07514 5.23944)">
<stop stop-color="#7B7979"/>
<stop offset="0.0986598" stop-color="#7B7979"/>
<stop offset="0.286301" stop-color="#231F20"/>
<stop offset="0.374278" stop-color="#231F20"/>
<stop offset="1" stop-color="#656263"/>
</radialGradient>
</defs>
</svg>
