<svg width="1920" height="161" viewBox="0 0 1920 161" fill="none" xmlns="http://www.w3.org/2000/svg">
<path d="M0 160.873H1920V5.30186e-05H0V160.873Z" fill="#A2A08C"/>
<path d="M17.3999 84.8044H74.3999V80.416H17.3999V84.8044Z" fill="white"/>
<path d="M147 84.8044H204V80.416H147V84.8044Z" fill="white"/>
<path d="M276.6 84.8044H333.6V80.416H276.6V84.8044Z" fill="white"/>
<path d="M406.2 84.8044H463.2V80.416H406.2V84.8044Z" fill="white"/>
<path d="M535.8 84.8044H592.8V80.416H535.8V84.8044Z" fill="white"/>
<path d="M665.4 84.8044H722.4V80.416H665.4V84.8044Z" fill="white"/>
<path d="M795 84.8044H852V80.416H795V84.8044Z" fill="white"/>
<path d="M924.6 84.8044H981.6V80.416H924.6V84.8044Z" fill="white"/>
<path d="M1054.2 84.8044H1111.2V80.416H1054.2V84.8044Z" fill="white"/>
<path d="M1183.8 84.8044H1240.8V80.416H1183.8V84.8044Z" fill="white"/>
<path d="M1313.4 84.8044H1370.4V80.416H1313.4V84.8044Z" fill="white"/>
<path d="M1443 84.8044H1500V80.416H1443V84.8044Z" fill="white"/>
<path d="M1572.6 84.8044H1629.6V80.416H1572.6V84.8044Z" fill="white"/>
<path d="M1702.2 84.8044H1759.2V80.416H1702.2V84.8044Z" fill="white"/>
<path d="M1831.8 84.8044H1888.8V80.416H1831.8V84.8044Z" fill="white"/>
</svg>
