<svg width="1920" height="161" viewBox="0 0 1920 161" fill="none" xmlns="http://www.w3.org/2000/svg">
<path d="M0 160.873H1920V0.873173H0V160.873Z" fill="#232221"/>
<path d="M17.3999 85.2173H74.3999V80.8527H17.3999V85.2173Z" fill="white"/>
<path d="M147 85.2173H204V80.8527H147V85.2173Z" fill="white"/>
<path d="M276.6 85.2173H333.6V80.8527H276.6V85.2173Z" fill="white"/>
<path d="M406.2 85.2173H463.2V80.8527H406.2V85.2173Z" fill="white"/>
<path d="M535.8 85.2173H592.8V80.8527H535.8V85.2173Z" fill="white"/>
<path d="M665.4 85.2173H722.4V80.8527H665.4V85.2173Z" fill="white"/>
<path d="M795 85.2173H852V80.8527H795V85.2173Z" fill="white"/>
<path d="M924.6 85.2173H981.6V80.8527H924.6V85.2173Z" fill="white"/>
<path d="M1054.2 85.2173H1111.2V80.8527H1054.2V85.2173Z" fill="white"/>
<path d="M1183.8 85.2173H1240.8V80.8527H1183.8V85.2173Z" fill="white"/>
<path d="M1313.4 85.2173H1370.4V80.8527H1313.4V85.2173Z" fill="white"/>
<path d="M1443 85.2173H1500V80.8527H1443V85.2173Z" fill="white"/>
<path d="M1572.6 85.2173H1629.6V80.8527H1572.6V85.2173Z" fill="white"/>
<path d="M1702.2 85.2173H1759.2V80.8527H1702.2V85.2173Z" fill="white"/>
<path d="M1831.8 85.2173H1888.8V80.8527H1831.8V85.2173Z" fill="white"/>
</svg>
