<svg width="2039" height="505" viewBox="0 0 2039 505" fill="none" xmlns="http://www.w3.org/2000/svg">
<path d="M0 505H2036.79V-1.78814e-05H0V505Z" fill="url(#paint0_radial_34_3105)"/>
<path d="M2039 38.5938H1V34.9999H2039V38.5938Z" fill="#FAB70A"/>
<path d="M2039 476H1V472H2039V476Z" fill="#FAB70A"/>
<path d="M33.6131 250.132H1L1.00006 245H37.967L33.6131 250.132ZM233.208 250.132H132.615L137.42 245H236.868L233.208 250.132ZM430.894 250.132H331.441L336.321 245H435.774L430.894 250.132ZM630.171 250.132H530.72L535.227 245H634.678L630.171 250.132ZM829.448 250.132H730.446L734.13 245H833.581L829.448 250.132ZM1028.41 250.132H928.955L933.033 245H1032.48L1028.41 250.132ZM1226.86 250.132H1127.41L1131.94 245H1231.39L1226.86 250.132ZM1425.76 250.132H1326.31L1330.84 245H1430.29L1425.76 250.132ZM1625.15 250.132H1525.7L1529.74 245H1629.19L1625.15 250.132ZM1824.05 250.132H1724.6L1728.65 245H1828.1L1824.05 250.132ZM2022.56 250.132H1923.11L1927.55 245H2027L2022.56 250.132Z" fill="white"/>
<path d="M33.6131 380.132H1L1.00006 375H37.967L33.6131 380.132ZM233.208 380.132H132.615L137.42 375H236.868L233.208 380.132ZM430.894 380.132H331.441L336.321 375H435.774L430.894 380.132ZM630.171 380.132H530.72L535.227 375H634.678L630.171 380.132ZM829.448 380.132H730.446L734.13 375H833.581L829.448 380.132ZM1028.41 380.132H928.955L933.033 375H1032.48L1028.41 380.132ZM1226.86 380.132H1127.41L1131.94 375H1231.39L1226.86 380.132ZM1425.76 380.132H1326.31L1330.84 375H1430.29L1425.76 380.132ZM1625.15 380.132H1525.7L1529.74 375H1629.19L1625.15 380.132ZM1824.05 380.132H1724.6L1728.65 375H1828.1L1824.05 380.132ZM2022.56 380.132H1923.11L1927.55 375H2027L2022.56 380.132Z" fill="white"/>
<path d="M33.4843 127H1L1.00006 130H37.8211L33.4843 127ZM232.292 127H132.095L136.881 130H235.937L232.292 127ZM429.196 127H330.136L334.997 130H434.057L429.196 127ZM627.687 127H528.628L533.117 130H632.176L627.687 127ZM826.177 127H727.566L731.235 130H830.294L826.177 127ZM1024.35 127H925.291L929.352 130H1028.41L1024.35 127ZM1222.02 127H1122.96L1127.47 130H1226.53L1222.02 127ZM1420.14 127H1321.08L1325.59 130H1424.65L1420.14 127ZM1618.74 127H1519.68L1523.71 130H1622.76L1618.74 127ZM1816.86 127H1717.8L1721.82 130H1820.88L1816.86 127ZM2014.58 127H1915.52L1919.94 130H2019L2014.58 127Z" fill="white"/>
<defs>
<radialGradient id="paint0_radial_34_3105" cx="0" cy="0" r="1" gradientUnits="userSpaceOnUse" gradientTransform="translate(1039.13 252.198) scale(851.84 1621.19)">
<stop stop-color="#232221"/>
<stop offset="1" stop-color="#100F0D"/>
</radialGradient>
</defs>
</svg>
