<svg width="313" height="66" viewBox="0 0 313 66" fill="none" xmlns="http://www.w3.org/2000/svg">
<g filter="url(#filter0_d_43_74)">
<path d="M35.1057 39.693C37.3295 39.693 39.1376 41.5607 39.1376 43.8559C39.1376 46.1512 37.3295 48.0189 35.1057 48.0189C32.8819 48.0189 31.0733 46.1512 31.0733 43.8559C31.0733 41.5607 32.8819 39.693 35.1057 39.693ZM35.1057 48.6391C37.6605 48.6391 39.7389 46.4934 39.7389 43.8559C39.7389 41.2185 37.6605 39.0728 35.1057 39.0728C32.551 39.0728 30.4726 41.2185 30.4726 43.8559C30.4726 46.4934 32.551 48.6391 35.1057 48.6391" fill="url(#paint0_linear_43_74)"/>
<path d="M35.1441 43.218C35.518 43.218 35.821 43.5319 35.821 43.9168C35.821 44.3016 35.518 44.6156 35.1441 44.6156C34.7713 44.6156 34.4678 44.3016 34.4678 43.9168C34.4678 43.5319 34.7713 43.218 35.1441 43.218ZM35.1441 44.9246C35.6826 44.9246 36.1208 44.4727 36.1208 43.9168C36.1208 43.3608 35.6826 42.909 35.1441 42.909C34.6056 42.909 34.1679 43.3608 34.1679 43.9168C34.1679 44.4727 34.6056 44.9246 35.1441 44.9246Z" fill="url(#paint1_linear_43_74)"/>
<path d="M37.7034 43.1693L36.3459 44.3847L36.5459 46.2292L35.0055 45.2707L33.3696 46.0376L33.7761 44.2308L32.5639 42.8603L34.3543 42.7003L35.2426 41.0867L35.9436 42.7961L37.7034 43.1693ZM37.2003 47.283L36.9101 44.6123L38.8765 42.852L36.3266 42.3121L35.3128 39.8375L34.0271 42.1737L31.4343 42.4051L33.1893 44.3886L32.6004 47.0061L34.9711 45.8964L37.2003 47.283" fill="url(#paint2_radial_43_74)"/>
<path d="M147.29 58C154.156 56.3864 159.282 50.0517 159.282 42.4766C159.282 33.6805 152.373 26.5506 143.851 26.5506C137.741 26.5506 132.464 30.2136 129.963 35.5267C132.573 31.248 137.187 28.4029 142.449 28.4029C150.594 28.4029 157.197 35.2171 157.197 43.6234C157.197 50.2782 153.056 55.9324 147.29 58Z" fill="url(#paint3_linear_43_74)"/>
<path d="M174.342 21.7713C174.342 21.7713 180.272 23.8822 181.09 31.692C181.908 39.5025 181.09 15.8608 181.09 15.8608C181.09 15.8608 180.476 17.5502 174.342 21.7713Z" fill="#831418"/>
<path d="M178.377 34.758C178.377 34.758 181.932 52.6924 160.304 51.7511C160.304 51.7511 183.409 58.4762 181.932 34.758H178.377" fill="url(#paint4_linear_43_74)"/>
<path d="M13.5457 25.5777V25.5223H13.6529V25.4669H13.7602V25.4115H13.8675V25.3562H14.0284V25.3008H14.1357V25.2454H14.2966V25.1901H14.4039V25.1347H14.5648V25.0793H14.7257V25.0239H14.833V24.9686H14.9939V24.9132H15.1548V24.8578H15.3157V24.8024H15.4766V24.7471H15.6375V24.6917H15.7984V24.6363H15.9593V24.5809H16.1739V24.5256H16.3348V24.4702H16.5493V24.4148H16.7103V24.3594H16.9248V24.3041H17.0857V24.2487H17.3003V24.1933H17.5148V24.138H17.6757V24.0826H17.8903V24.0272H18.1048V23.9718H18.3194V23.9165H18.5876V23.8611H18.8021V23.8057H19.0166V23.7503H19.2848V23.695H19.4994V23.6396H19.7676V23.5842H19.9821V23.5288H20.2503V23.4735H20.5185V23.4181H20.7867V23.3627H21.0549V23.3074H21.323V23.252H21.5912V23.1966H21.913V23.1412H22.1812V23.0859H22.5031V23.0305H22.8249V22.9751H23.0931V22.9197H23.4685V22.8644H23.7903V22.809H24.1122V22.7536H24.434V22.6982H24.8094V22.6429H25.1849V22.5875H25.5604V22.5321H25.8822V22.4767H26.3113V22.4214H26.7404V22.366H27.1158V22.3106H27.5449V22.2553H27.974V22.1999H28.4568V22.1445H28.8859V22.0891H29.3686V22.0338H29.8513V21.9784H30.3877V21.923H30.8704V21.8676H31.4068V21.8123H31.9968V21.7569H32.5868V21.7015H33.1768V21.6461H33.8741V21.5908H34.5177V21.5354H35.215V21.48H35.9659V21.4247H36.7705V21.3693H37.6287V21.3139H38.5405V21.2585H39.506V21.2032H40.5787V21.1478H41.8124V21.0924H43.0997V21.037H44.7624V20.9817H46.747V20.9263H49.697V20.8709H58.6007V20.9263H61.819V20.9817H61.9262V20.9263H61.9799V20.8709H62.0335V20.8155H62.0871V20.7602H62.1408V20.7048H62.1944V20.6494H62.2481V20.594H62.3553V20.5387H62.409V20.4833H62.4626V20.4279H62.5162V20.3726H62.5699V20.3172H62.6772V20.2618H62.7308V20.2064H62.7844V20.1511H62.8381V20.0957H62.8917V20.0403H62.999V19.9849H63.0526V19.9296H63.1063V19.8742H63.1599V19.8188H63.2135V19.7634H63.3208V19.7081H63.3744V19.6527H63.4281V19.5973H63.5353V19.542H63.589V19.4866H63.6426V19.4312H63.6963V19.3758H63.8035V19.3205H63.8572V19.2651H63.9108V19.2097H64.0181V19.1543H64.0717V19.099H64.1254V19.0436H64.2326V18.9882H64.2863V18.9328H64.3399V18.8775H64.4472V18.8221H64.5008V18.7667H64.5545V18.7113H64.6617V18.656H64.7154V18.6006H64.769V18.5452H64.8763V18.4899H64.9299V18.4345H65.0372V18.3791H65.0908V18.3237H65.1445V18.2684H65.2517V18.213H65.3054V18.1576H65.4126V18.1022H65.4663V18.0469H65.5199V17.9915H65.6272V17.9361H65.6808V17.8807H65.7881V17.8254H65.8417V17.77H65.949V17.7146H66.0026V17.6593H66.1099V17.6039H66.1636V17.5485H66.2172V17.4931H66.3245V17.4378H66.3781V17.3824H66.4854V17.327H66.539V17.2716H66.6463V17.2163H66.6999V17.1609H66.8072V17.1055H66.9145V17.0501H66.9681V16.9948H67.0754V16.9394H67.129V16.884H67.2363V16.8286H67.2899V16.7733H67.3972V16.7179H67.4508V16.6625H67.5581V16.6072H67.6654V16.5518H67.719V16.4964H67.8263V16.441H67.8799V16.3857H67.9872V16.3303H68.0409V16.2749H68.1481V16.2195H68.2554V16.1642H68.309V16.1088H68.4163V16.0534H68.5236V15.998H68.5772V15.9427H68.6845V15.8873H68.7918V15.8319H68.8454V15.7766H68.9527V15.7212H69.06V15.6658H69.1136V15.6104H69.2209V15.5551H69.3281V15.4997H69.3818V15.4443H69.4891V15.3889H69.5963V15.3336H69.65V15.2782H69.7572V15.2228H69.8645V15.1674H69.9718V15.1121H70.0254V15.0567H70.1327V15.0013H70.24V14.946H70.3472V14.8906H70.4545V14.8352H70.5082V14.7798H70.6154V14.7245H70.7227V14.6691H70.83V14.6137H70.8836V14.5583H70.9909V14.503H71.0982V14.4476H71.2054V14.3922H71.3127V14.3368H71.42V14.2815H71.5273V14.2261H71.5809V14.1707H71.6882V14.1153H71.7954V14.06H71.9027V14.0046H72.01V13.9492H72.1173V13.8939H72.2245V13.8385H72.3318V13.7831H72.4391V13.7277H72.5464V13.6724H72.6536V13.617H72.7609V13.5616H72.8682V13.5062H72.9218V13.4509H73.0291V13.3955H73.1364V13.3401H73.2436V13.2847H73.3509V13.2294H73.4582V13.174H73.5655V13.1186H73.7264V13.0633H73.8336V13.0079H73.9409V12.9525H74.0482V12.8971H74.1555V12.8418H74.2627V12.7864H74.37V12.731H74.4773V12.6756H74.5846V12.6203H74.6918V12.5649H74.7991V12.5095H74.96V12.4541H75.0673V12.3988H75.1746V12.3434H75.2818V12.288H75.3891V12.2326H75.55V12.1773H75.6573V12.1219H75.7646V12.0665H75.8719V12.0112H75.9791V11.9558H76.14V11.9004H76.2473V11.845H76.3546V11.7897H76.5155V11.7343H76.6228V11.6789H76.73V11.6235H76.891V11.5682H76.9982V11.5128H77.1055V11.4574H77.2128V11.402H77.3737V11.3467H77.481V11.2913H77.6419V11.2359H77.7491V11.1806H77.9101V11.1252H78.0173V11.0698H78.1782V11.0144H78.2855V10.9591H78.3928V10.9037H78.5537V10.8483H78.661V10.7929H78.8219V10.7376H78.9292V10.6822H79.0901V10.6268H79.251V10.5714H79.3583V10.5161H79.5192V10.4607H79.6801V10.4053H79.7874V10.3499H79.9483V10.2946H80.1092V10.2392H80.2165V10.1838H80.3774V10.1285H80.5383V10.0731H80.6455V10.0177H80.8065V9.96233H80.9674V9.90696H81.1283V9.85159H81.2892V9.79621H81.4501V9.74084H81.5574V9.68546H81.7183V9.63009H81.8792V9.57472H82.0401V9.51934H82.201V9.46397H82.3619V9.4086H82.5228V9.35322H82.6838V9.29785H82.8447V9.24248H83.0056V9.1871H83.1665V9.13173H83.3274V9.07636H83.5419V9.02098H83.7029V8.96561H83.8638V8.91024H84.0247V8.85486H84.2392V8.79949H84.4001V8.74411H84.561V8.68874H84.7756V8.63337H84.9365V8.57799H85.0974V8.52262H85.312V8.46725H85.4729V8.41187H85.6874V8.3565H85.8483V8.30113H86.0629V8.24575H86.2774V8.19038H86.4383V8.13501H86.6529V8.07963H86.8674V8.02426H87.0283V7.96889H87.2429V7.91351H87.4574V7.85814H87.672V7.80277H87.8865V7.74739H88.1011V7.69202H88.3156V7.63664H88.5302V7.58127H88.7447V7.5259H88.9593V7.47052H89.2275V7.41515H89.442V7.35978H89.7102V7.3044H89.9247V7.24903H90.1929V7.19366H90.4075V7.13828H90.6757V7.08291H90.9438V7.02754H91.1584V6.97216H91.4802V6.91679H91.7484V6.86142H92.0166V6.80604H92.2848V6.75067H92.553V6.69529H92.8748V6.63992H93.143V6.58455H93.4648V6.52917H93.7866V6.4738H94.1084V6.41843H94.4303V6.36305H94.7521V6.30768H95.0739V6.25231H95.4494V6.19693H95.8248V6.14156H96.2003V6.08619H96.5757V6.03081H97.0048V5.97544H97.5412V5.92007H98.6139V5.86469H100.867V5.80932H102.744V5.86469H105.265V5.92007H106.713V5.97544H107.786V6.03081H108.805V6.08619H109.61V6.14156H110.414V6.19693H111.111V6.25231H111.809V6.30768H112.399V6.36305H112.989V6.41843H113.579V6.4738H114.115V6.52917H114.651V6.58455H115.188V6.63992H115.67V6.69529H116.153V6.75067H116.636V6.80604H117.065V6.86142H117.548V6.91679H117.977V6.97216H118.352V7.02754H118.781V7.08291H119.211V7.13828H119.586V7.19366H119.961V7.24903H120.337V7.3044H120.712V7.35978H121.088V7.41515H121.463V7.47052H121.839V7.5259H122.161V7.58127H122.536V7.63664H122.858V7.69202H123.18V7.74739H123.555V7.80277H123.877V7.85814H124.199V7.91351H124.521V7.96889H124.789V8.02426H125.111V8.07963H125.432V8.13501H125.754V8.19038H126.076V8.24575H126.344V8.30113H126.612V8.3565H126.934V8.41187H127.202V8.46725H127.471V8.52262H127.792V8.57799H128.061V8.63337H128.329V8.68874H128.597V8.74411H128.865V8.79949H129.133V8.85486H129.402V8.91024H129.67V8.96561H129.938V9.02098H130.206V9.07636H130.474V9.13173H130.742V9.1871H130.957V9.24248H131.225V9.29785H131.493V9.35322H131.708V9.4086H131.976V9.46397H132.191V9.51934H132.459V9.57472H132.727V9.63009H132.942V9.68546H133.21V9.74084H133.424V9.79621H133.639V9.85159H133.853V9.90696H134.122V9.96233H134.336V10.0177H134.551V10.0731H134.765V10.1285H135.033V10.1838H135.248V10.2392H135.463V10.2946H135.677V10.3499H135.892V10.4053H136.106V10.4607H136.321V10.5161H136.535V10.5714H136.75V10.6268H136.964V10.6822H137.179V10.7376H137.393V10.7929H137.608V10.8483H137.823V10.9037H138.037V10.9591H138.252V11.0144H138.466V11.0698H138.627V11.1252H138.842V11.1806H139.056V11.2359H139.271V11.2913H139.432V11.3467H139.646V11.402H139.861V11.4574H140.075V11.5128H140.236V11.5682H140.451V11.6235H140.665V11.6789H140.826V11.7343H141.041V11.7897H141.202V11.845H141.416V11.9004H141.577V11.9558H141.792V12.0112H141.953V12.0665H142.167V12.1219H142.328V12.1773H142.543V12.2326H142.704V12.288H142.918V12.3434H143.079V12.3988H143.294V12.4541H143.454V12.5095H143.615V12.5649H143.83V12.6203H143.991V12.6756H144.152V12.731H144.313V12.7864H144.527V12.8418H144.688V12.8971H144.849V12.9525H145.064V13.0079H145.224V13.0633H145.385V13.1186H145.546V13.174H145.761V13.2294H145.922V13.2847H146.083V13.3401H146.244V13.3955H146.458V13.4509H146.619V13.5062H146.78V13.5616H146.941V13.617H147.102V13.6724H147.263V13.7277H147.424V13.7831H147.585V13.8385H147.799V13.8939H147.96V13.9492H148.121V14.0046H148.282V14.06H148.443V14.1153H148.604V14.1707H148.765V14.2261H148.925V14.2815H149.033V14.3368H149.194V14.3922H149.355V14.4476H149.515V14.503H149.676V14.5583H149.837V14.6137H149.998V14.6691H150.159V14.7245H150.32V14.7798H150.481V14.8352H150.642V14.8906H150.803V14.946H150.964V15.0013H151.125V15.0567H151.285V15.1121H151.446V15.1674H151.607V15.2228H151.768V15.2782H151.929V15.3336H152.09V15.3889H152.305V15.4443H152.465V15.4997H152.626V15.5551H152.787V15.6104H152.948V15.6658H153.163V15.7212H153.324V15.7766H153.485V15.8319H153.645V15.8873H153.806V15.9427H154.021V15.998H154.182V16.0534H154.343V16.1088H154.557V16.1642H154.718V16.2195H154.879V16.2749H155.04V16.3303H155.255V16.3857H155.416V16.441H155.63V16.4964H155.791V16.5518H155.952V16.6072H156.166V16.6625H156.327V16.7179H156.542V16.7733H156.703V16.8286H156.917V16.884H157.078V16.9394H157.293V16.9948H157.454V17.0501H157.668V17.1055H157.829V17.1609H158.044V17.2163H158.205V17.2716H158.419V17.327H158.58V17.3824H158.795V17.4378H158.956V17.4931H159.17V17.5485H159.385V17.6039H159.546V17.6593H159.76V17.7146H159.975V17.77H160.136V17.8254H160.35V17.8807H160.565V17.9361H160.726V17.9915H160.94V18.0469H161.155V18.1022H161.369V18.1576H161.53V18.213H161.745V18.2684H161.959V18.3237H162.174V18.3791H162.335V18.4345H162.549V18.4899H162.764V18.5452H162.978V18.6006H163.193V18.656H163.407V18.7113H163.622V18.7667H163.837V18.8221H164.051V18.8775H164.266V18.9328H164.48V18.9882H164.695V19.0436H164.909V19.099H165.124V19.1543H165.338V19.2097H165.553V19.2651H165.767V19.3205H165.982V19.3758H166.197V19.4312H166.411V19.4866H166.626V19.542H166.894V19.5973H167.108V19.6527H167.323V19.7081H167.537V19.7634H167.806V19.8188H168.02V19.8742H168.235V19.9296H168.503V19.9849H168.717V20.0403H168.932V20.0957H169.147V20.1511H169.415V20.2064H169.629V20.2618H169.897V20.3172H170.112V20.3726H170.38V20.4279H170.595V20.4833H170.809V20.5387H171.078V20.594H171.292V20.6494H171.56V20.7048H171.828V20.7602H171.936V20.7048H171.989V20.6494H172.097V20.594H172.15V20.5387H172.258V20.4833H172.311V20.4279H172.418V20.3726H172.472V20.3172H172.579V20.2618H172.633V20.2064H172.74V20.1511H172.794V20.0957H172.901V20.0403H172.955V19.9849H173.008V19.9296H173.116V19.8742H173.169V19.8188H173.277V19.7634H173.33V19.7081H173.438V19.6527H173.491V19.5973H173.545V19.542H173.652V19.4866H173.706V19.4312H173.759V19.3758H173.867V19.3205H173.92V19.2651H173.974V19.2097H174.081V19.1543H174.135V19.099H174.242V19.0436H174.296V18.9882H174.349V18.9328H174.457V18.8775H174.51V18.8221H174.564V18.7667H174.618V18.7113H174.725V18.656H174.778V18.6006H174.832V18.5452H174.939V18.4899H174.993V18.4345H175.047V18.3791H175.1V18.3237H175.208V18.2684H175.261V18.213H175.315V18.1576H175.422V18.1022H175.476V18.0469H175.529V17.9915H175.583V17.9361H175.637V17.8807H175.744V17.8254H175.798V17.77H175.851V17.7146H175.905V17.6593H176.012V17.6039H176.066V17.5485H176.119V17.4931H176.173V17.4378H176.227V17.3824H176.28V17.327H176.388V17.2716H176.441V17.2163H176.495V17.1609H176.548V17.1055H176.602V17.0501H176.656V16.9948H176.709V16.9394H176.817V16.884H176.87V16.8286H176.924V16.7733H176.978V16.7179H177.031V16.6625H177.085V16.6072H177.138V16.5518H177.192V16.4964H177.246V16.441H177.299V16.3857H177.353V16.3303H177.407V16.2749H177.514V16.2195H177.568V16.1642H177.621V16.1088H177.675V16.0534H177.728V15.9427H177.782V15.8873H177.836V15.8319H177.889V15.7766H177.943V15.7212H177.997V15.6658H178.05V15.6104H178.104V15.5551H178.158V15.4997H178.211V15.4443H178.265V15.3889H178.318V15.3336H178.372V15.2782H178.426V15.1674H178.479V15.1121H178.533V15.0567H178.587V15.0013H178.64V14.946H178.694V14.8906H178.748V14.7798H178.801V14.7245H178.855V14.6691H178.909V14.5583H178.962V14.503H179.016V14.4476H179.069V14.3368H179.123V14.2815H179.177V14.1707H179.23V14.06H179.284V14.0046H179.338V13.8939H179.391V13.7831H179.445V13.6724H179.499V13.5616H179.552V13.4509H179.606V13.3401H179.659V13.0633H179.606V13.1186H179.445V13.174H179.284V13.2294H179.069V13.2847H178.855V13.3401H178.587V13.3955H178.372V13.4509H178.104V13.5062H177.782V13.5616H177.46V13.617H177.085V13.6724H176.656V13.7277H176.227V13.7831H175.69V13.8385H174.993V13.8939H174.081V13.9492H170.327V13.8939H169.361V13.8385H168.449V13.7831H167.859V13.7277H167.269V13.6724H166.679V13.617H166.143V13.5616H165.714V13.5062H165.285V13.4509H164.856V13.3955H164.427V13.3401H163.997V13.2847H163.676V13.2294H163.354V13.174H162.978V13.1186H162.656V13.0633H162.335V13.0079H162.013V12.9525H161.637V12.8971H161.316V12.8418H161.047V12.7864H160.779V12.731H160.511V12.6756H160.243V12.6203H159.975V12.5649H159.653V12.5095H159.385V12.4541H159.116V12.3988H158.848V12.3434H158.58V12.288H158.312V12.2326H158.097V12.1773H157.829V12.1219H157.615V12.0665H157.346V12.0112H157.132V11.9558H156.864V11.9004H156.649V11.845H156.381V11.7897H156.166V11.7343H155.952V11.6789H155.737V11.6235H155.523V11.5682H155.362V11.5128H155.201V11.4574H155.04V11.402H154.933V11.3467H154.772V11.2913H154.611V11.2359H154.45V11.1806H154.289V11.1252H154.128V11.0698H153.967V11.0144H153.806V10.9591H153.645V10.9037H153.485V10.8483H153.324V10.7929H153.163V10.7376H153.002V10.6822H152.841V10.6268H152.68V10.5714H152.519V10.5161H152.358V10.4607H152.197V10.4053H151.983V10.3499H151.822V10.2946H151.661V10.2392H151.5V10.1838H151.339V10.1285H151.178V10.0731H150.964V10.0177H150.803V9.96233H150.642V9.90696H150.481V9.85159H150.32V9.79621H150.105V9.74084H149.945V9.68546H149.784V9.63009H149.623V9.57472H149.408V9.51934H149.247V9.46397H149.086V9.4086H148.872V9.35322H148.711V9.29785H148.55V9.24248H148.335V9.1871H148.175V9.13173H147.96V9.07636H147.799V9.02098H147.638V8.96561H147.424V8.91024H147.263V8.85486H147.048V8.79949H146.887V8.74411H146.673V8.68874H146.512V8.63337H146.297V8.57799H146.136V8.52262H145.922V8.46725H145.761V8.41187H145.546V8.3565H145.385V8.30113H145.171V8.24575H144.956V8.19038H144.795V8.13501H144.581V8.07963H144.366V8.02426H144.205V7.96889H143.991V7.91351H143.776V7.85814H143.615V7.80277H143.401V7.74739H143.186V7.69202H142.972V7.63664H142.811V7.58127H142.596V7.5259H142.382V7.47052H142.167V7.41515H141.953V7.35978H141.792V7.3044H141.577V7.24903H141.363V7.19366H141.148V7.13828H140.934V7.08291H140.719V7.02754H140.504V6.97216H140.29V6.91679H140.075V6.86142H139.861V6.80604H139.646V6.75067H139.432V6.69529H139.217V6.63992H139.003V6.58455H138.734V6.52917H138.52V6.4738H138.305V6.41843H138.091V6.36305H137.876V6.30768H137.662V6.25231H137.393V6.19693H137.179V6.14156H136.964V6.08619H136.696V6.03081H136.482V5.97544H136.267V5.92007H135.999V5.86469H135.784V5.80932H135.516V5.75394H135.302V5.69857H135.033V5.6432H134.819V5.58782H134.551V5.53245H134.336V5.47708H134.068V5.4217H133.8V5.36633H133.585V5.31096H133.317V5.25558H133.049V5.20021H132.781V5.14484H132.566V5.08946H132.298V5.03409H132.03V4.97872H131.762V4.92334H131.493V4.86797H131.225V4.81259H130.957V4.75722H130.689V4.70185H130.421V4.64647H130.152V4.5911H129.884V4.53573H129.562V4.48035H129.294V4.42498H128.972V4.36961H128.704V4.31423H128.382V4.25886H128.114V4.20349H127.792V4.14811H127.524V4.09274H127.202V4.03737H126.881V3.98199H126.559V3.92662H126.237V3.87124H125.915V3.81587H125.593V3.7605H125.272V3.70512H124.95V3.64975H124.628V3.59438H124.306V3.539H123.931V3.48363H123.555V3.42826H123.233V3.37288H122.858V3.31751H122.482V3.26214H122.161V3.20676H121.785V3.15139H121.356V3.09602H120.981V3.04064H120.551V2.98527H120.122V2.92989H119.747V2.87452H119.318V2.81915H118.889V2.76377H118.406V2.7084H117.923V2.65303H117.441V2.59765H116.958V2.54228H116.475V2.48691H115.939V2.43153H115.349V2.37616H114.759V2.32079H114.169V2.26541H113.525V2.21004H112.828V2.15467H112.023V2.09929H111.219V2.04392H110.414V1.98854H109.234V1.93317H107.947V1.8778H100.92V1.93317H99.6867V1.98854H98.5603V2.04392H97.863V2.09929H97.1657V2.15467H96.4685V2.21004H95.8248V2.26541H95.3421V2.32079H94.8593V2.37616H94.3766V2.43153H93.9475V2.48691H93.4648V2.54228H92.9821V2.59765H92.6602V2.65303H92.2848V2.7084H91.963V2.76377H91.5875V2.81915H91.2657V2.87452H90.8902V2.92989H90.5684V2.98527H90.2466V3.04064H89.9247V3.09602H89.6566V3.15139H89.3884V3.20676H89.1202V3.26214H88.7984V3.31751H88.5302V3.37288H88.262V3.42826H87.9938V3.48363H87.7793V3.539H87.5111V3.59438H87.2965V3.64975H87.0283V3.70512H86.7602V3.7605H86.5456V3.81587H86.3311V3.87124H86.0629V3.92662H85.8483V3.98199H85.6338V4.03737H85.4192V4.09274H85.2047V4.14811H84.9901V4.20349H84.7756V4.25886H84.561V4.31423H84.3465V4.36961H84.132V4.42498H83.971V4.48035H83.7565V4.53573H83.5419V4.5911H83.3274V4.64647H83.1665V4.70185H82.9519V4.75722H82.7374V4.81259H82.5765V4.86797H82.3619V4.92334H82.201V4.97872H81.9865V5.03409H81.8256V5.08946H81.611V5.14484H81.4501V5.20021H81.2892V5.25558H81.0746V5.31096H80.9137V5.36633H80.6992V5.4217H80.5383V5.47708H80.3774V5.53245H80.2165V5.58782H80.0019V5.6432H79.841V5.69857H79.6801V5.75394H79.5192V5.80932H79.3583V5.86469H79.1437V5.92007H78.9828V5.97544H78.8219V6.03081H78.661V6.08619H78.5001V6.14156H78.3392V6.19693H78.1782V6.25231H78.0173V6.30768H77.8564V6.36305H77.6955V6.41843H77.5346V6.4738H77.3737V6.52917H77.2128V6.58455H77.0519V6.63992H76.891V6.69529H76.7837V6.75067H76.6228V6.80604H76.4619V6.86142H76.301V6.91679H76.14V6.97216H75.9791V7.02754H75.8719V7.08291H75.7109V7.13828H75.55V7.19366H75.3891V7.24903H75.2818V7.3044H75.1209V7.35978H74.96V7.41515H74.8528V7.47052H74.6918V7.5259H74.5309V7.58127H74.4237V7.63664H74.2627V7.69202H74.1018V7.74739H73.9946V7.80277H73.8336V7.85814H73.7264V7.91351H73.5655V7.96889H73.4046V8.02426H73.2973V8.07963H73.1364V8.13501H73.0291V8.19038H72.8682V8.24575H72.7609V8.30113H72.6V8.3565H72.4927V8.41187H72.3855V8.46725H72.2245V8.52262H72.1173V8.57799H71.9564V8.63337H71.8491V8.68874H71.6882V8.74411H71.5809V8.79949H71.4736V8.85486H71.3127V8.91024H71.2054V8.96561H71.0982V9.02098H70.9373V9.07636H70.83V9.13173H70.7227V9.1871H70.5618V9.24248H70.4545V9.29785H70.3472V9.35322H70.24V9.4086H70.0791V9.46397H69.9718V9.51934H69.8645V9.57472H69.7572V9.63009H69.65V9.68546H69.4891V9.74084H69.3818V9.79621H69.2745V9.85159H69.1672V9.90696H69.06V9.96233H68.9527V10.0177H68.7918V10.0731H68.6845V10.1285H68.5772V10.1838H68.47V10.2392H68.3627V10.2946H68.2554V10.3499H68.1481V10.4053H68.0409V10.4607H67.9336V10.5161H67.8263V10.5714H67.719V10.6268H67.6118V10.6822H67.5045V10.7376H67.3972V10.7929H67.2899V10.8483H67.1827V10.9037H67.0754V10.9591H66.9681V11.0144H66.8608V11.0698H66.7536V11.1252H66.6463V11.1806H66.539V11.2359H66.4317V11.2913H66.3245V11.3467H66.2172V11.402H66.1099V11.4574H66.0026V11.5128H65.949V11.5682H65.8417V11.6235H65.7345V11.6789H65.6272V11.7343H65.5199V11.7897H65.4126V11.845H65.359V11.9004H65.2517V11.9558H65.1445V12.0112H65.0372V12.0665H64.9299V12.1219H64.8226V12.1773H64.769V12.2326H64.6617V12.288H64.5545V12.3434H64.5008V12.3988H64.3935V12.4541H64.2863V12.5095H64.179V12.5649H64.1254V12.6203H64.0181V12.6756H63.9108V12.731H63.8035V12.7864H63.7499V12.8418H63.6426V12.8971H63.5353V12.9525H63.4817V13.0079H63.3744V13.0633H63.3208V13.1186H63.2135V13.174H63.1063V13.2294H63.0526V13.2847H62.9453V13.3401H62.8381V13.3955H62.7844V13.4509H62.6772V13.5062H62.6235V13.5616H62.5162V13.617H62.409V13.6724H62.3553V13.7277H62.2481V13.7831H62.1944V13.8385H62.0871V13.8939H62.0335V13.9492H61.9262V14.0046H61.8726V14.06H61.7653V14.1153H61.7117V14.1707H61.6044V14.2261H61.5508V14.2815H61.4435V14.3368H61.3899V14.3922H61.2826V14.4476H61.229V14.503H61.1217V14.5583H61.068V14.6137H61.0144V14.6691H60.9071V14.7245H60.8535V14.7798H60.7462V14.8352H60.6926V14.8906H60.5853V14.946H60.5317V15.0013H60.4244V15.0567H60.3708V15.1121H60.3171V15.1674H60.2099V15.2228H60.1562V15.2782H60.1026V15.3336H59.9953V15.3889H59.9417V15.4443H59.888V15.4997H59.7808V15.5551H59.7271V15.6104H59.6735V15.6658H59.5662V15.7212H59.5126V15.7766H59.4589V15.8319H55.6507V15.8873H53.8271V15.9427H52.4861V15.998H51.3598V16.0534H50.3406V16.1088H49.4825V16.1642H48.6779V16.2195H47.927V16.2749H47.1761V16.3303H46.5324V16.3857H45.8888V16.441H45.2988V16.4964H44.7624V16.5518H44.1724V16.6072H43.636V16.6625H43.1533V16.7179H42.6706V16.7733H42.1342V16.8286H41.7051V16.884H41.276V16.9394H40.8469V16.9948H40.3642V17.0501H39.9887V17.1055H39.5596V17.1609H39.1842V17.2163H38.8087V17.2716H38.3796V17.327H38.0578V17.3824H37.6823V17.4378H37.3069V17.4931H36.985V17.5485H36.6096V17.6039H36.2878V17.6593H35.9659V17.7146H35.6441V17.77H35.3223V17.8254H35.0005V17.8807H34.6786V17.9361H34.4105V17.9915H34.1423V18.0469H33.8205V18.1022H33.5523V18.1576H33.2841V18.213H32.9623V18.2684H32.6941V18.3237H32.4259V18.3791H32.1577V18.4345H31.9432V18.4899H31.675V18.5452H31.4068V18.6006H31.1386V18.656H30.8704V18.7113H30.6559V18.7667H30.3877V18.8221H30.1731V18.8775H29.9586V18.9328H29.6904V18.9882H29.4759V19.0436H29.2613V19.099H28.9931V19.1543H28.7786V19.2097H28.564V19.2651H28.3495V19.3205H28.1886V19.3758H27.974V19.4312H27.7595V19.4866H27.5449V19.542H27.3304V19.5973H27.1158V19.6527H26.9013V19.7081H26.7404V19.7634H26.5258V19.8188H26.3649V19.8742H26.1504V19.9296H25.9895V19.9849H25.7749V20.0403H25.614V20.0957H25.3994V20.1511H25.1849V20.2064H25.024V20.2618H24.8631V20.3172H24.7022V20.3726H24.5413V20.4279H24.3267V20.4833H24.1658V20.5387H24.0049V20.594H23.844V20.6494H23.6831V20.7048H23.4685V20.7602H23.3076V20.8155H23.1467V20.8709H22.9858V20.9263H22.8785V20.9817H22.7176V21.037H22.5567V21.0924H22.3958V21.1478H22.2349V21.2032H22.074V21.2585H21.913V21.3139H21.8058V21.3693H21.6449V21.4247H21.4839V21.48H21.323V21.5354H21.2158V21.5908H21.0549V21.6461H20.9476V21.7015H20.7867V21.7569H20.6258V21.8123H20.5185V21.8676H20.3576V21.923H20.2503V21.9784H20.0894V22.0338H19.9821V22.0891H19.8212V22.1445H19.7139V22.1999H19.553V22.2553H19.4457V22.3106H19.3385V22.366H19.1776V22.4214H19.0703V22.4767H18.963V22.5321H18.8021V22.5875H18.6948V22.6429H18.5876V22.6982H18.4266V22.7536H18.3194V22.809H18.2121V22.8644H18.1048V22.9197H17.9439V22.9751H17.8366V23.0305H17.7294V23.0859H17.6221V23.1412H17.5148V23.1966H17.4075V23.252H17.3003V23.3074H17.193V23.3627H17.0857V23.4181H16.9784V23.4735H16.8712V23.5288H16.7639V23.5842H16.6566V23.6396H16.5493V23.695H16.4421V23.7503H16.3348V23.8057H16.2275V23.8611H16.1203V23.9165H16.013V23.9718H15.9593V24.0272H15.8521V24.0826H15.7448V24.138H15.6375V24.1933H15.5302V24.2487H15.423V24.3041H15.3693V24.3594H15.2621V24.4148H15.1548V24.4702H15.0475V24.5256H14.9402V24.5809H14.833V24.6363H14.7793V24.6917H14.6721V24.7471H14.6184V24.8024H14.5111V24.8578H14.4039V24.9132H14.3502V24.9686H14.243V25.0239H14.1357V25.0793H14.082V25.1347H13.9748V25.1901H13.8675V25.2454H13.8139V25.3008H13.7066V25.3562H13.6529V25.4115H13.5457V25.4669H13.492V25.5223H13.3848V25.5777" fill="url(#paint5_linear_43_74)"/>
<path d="M7.09058 34.7198C7.09058 34.7198 8.72544 30.7091 18.9492 30.2872C18.9492 30.2872 19.2479 29.0584 22.2216 26.0649C22.2216 26.0649 11.9973 23.7431 7.09058 34.7198" fill="url(#paint6_linear_43_74)"/>
<path d="M102.575 21.9823H67.4074C67.4074 21.9823 82.5374 8.6838 96.5431 9.31727C96.5431 9.31727 81.1063 12.4835 77.0165 19.027L102.575 21.9823" fill="url(#paint7_linear_43_74)"/>
<path d="M107.074 21.9823V11.0062C107.074 11.0062 127.111 10.1623 139.992 15.8608C139.992 15.8608 130.178 8.05033 105.438 8.26185L107.074 21.9823Z" fill="url(#paint8_linear_43_74)"/>
<path d="M7.09057 36.7682C7.09057 36.7682 18.5163 48.0245 4.00002 52.6316C4.00002 52.6316 13.4047 52.6687 16.063 52.6316C16.063 52.6316 16.4958 37.8236 7.09057 36.7682Z" fill="url(#paint9_linear_43_74)"/>
<path d="M40.0273 58C43.4987 57.1838 46.5238 55.1599 48.6672 52.3801C55.5295 55.3758 62.9314 56.5404 70.3011 56.5404C96.0839 56.5404 121.42 42.275 121.42 42.275C109.158 46.9004 98.4852 48.4946 89.5916 48.4935C69.8693 48.4924 58.9161 40.652 58.9161 40.652C70.019 44.3133 79.7122 45.7569 88.1021 45.7569C119.463 45.7569 132.562 25.5705 132.562 25.5705C122.663 30.1316 113.828 31.5957 105.635 31.5957C98.2883 31.5957 91.4587 30.4179 84.8458 29.2407C78.2324 28.0629 71.8362 26.8856 65.3531 26.8856C59.4026 26.8856 53.3786 27.8779 47.05 30.7728C44.0479 27.9133 40.3121 26.5523 36.6133 26.5523C30.9841 26.5523 25.4407 29.7047 22.6999 35.5267C25.3098 31.2479 29.9248 28.4029 35.1855 28.4029C46.0641 28.4029 53.1448 40.1271 48.5019 50.1658C46.8151 53.8143 43.7637 56.6605 40.0273 58Z" fill="url(#paint10_linear_43_74)"/>
<path d="M35.1056 57.1578C42.2098 57.1578 47.9897 51.1907 47.9897 43.8559C47.9897 36.5212 42.2098 30.5536 35.1056 30.5536C28.0003 30.5536 22.2215 36.5212 22.2215 43.8559C22.2215 51.1907 28.0003 57.1578 35.1056 57.1578ZM35.1056 34.752C39.9683 34.752 43.9235 38.8358 43.9235 43.8559C43.9235 48.8756 39.9683 52.9594 35.1056 52.9594C30.2434 52.9594 26.2866 48.8756 26.2866 43.8559C26.2866 38.8358 30.2434 34.752 35.1056 34.752ZM33.4541 32.655C32.0848 32.9363 30.3373 33.7204 28.7378 35.0493C27.1282 36.3877 25.1506 38.7267 24.8389 42.275L23.8477 42.2418C24.4442 36.9963 28.5984 32.9723 33.4541 32.655Z" fill="url(#paint11_radial_43_74)"/>
<path d="M28.7378 35.0499C30.3373 33.7204 32.0848 32.9363 33.4541 32.655C28.5984 32.9723 24.4442 36.9963 23.8477 42.2418L24.8389 42.275C25.15 38.7267 27.1282 36.3877 28.7378 35.0499ZM35.1056 52.9594C39.9683 52.9594 43.9235 48.8756 43.9235 43.8559C43.9235 38.8358 39.9683 34.752 35.1056 34.752C30.2434 34.752 26.2866 38.8358 26.2866 43.8559C26.2866 48.8756 30.2434 52.9594 35.1056 52.9594ZM35.1056 30.5536C42.2098 30.5536 47.9897 36.5212 47.9897 43.8559C47.9897 51.1907 42.2098 57.1578 35.1056 57.1578C28.0003 57.1578 22.2215 51.1907 22.2215 43.8559C22.2215 36.5212 28.0003 30.5536 35.1056 30.5536Z" fill="url(#paint12_radial_43_74)"/>
<path d="M142.369 57.1578C149.473 57.1578 155.253 51.1907 155.253 43.8559C155.253 36.5212 149.473 30.5536 142.369 30.5536C135.263 30.5536 129.484 36.5212 129.484 43.8559C129.484 51.1907 135.263 57.1578 142.369 57.1578V57.1578ZM142.369 34.752C147.231 34.752 151.187 38.8358 151.187 43.8559C151.187 48.8756 147.231 52.9594 142.369 52.9594C137.506 52.9594 133.549 48.8756 133.549 43.8559C133.549 38.8358 137.506 34.752 142.369 34.752ZM140.717 32.655C139.348 32.9363 137.601 33.7204 136.001 35.0493C134.39 36.3877 132.413 38.7267 132.102 42.275L131.11 42.2418C131.707 36.9963 135.862 32.9723 140.717 32.655Z" fill="url(#paint13_radial_43_74)"/>
<path d="M136.001 35.0499C137.601 33.7204 139.348 32.9363 140.717 32.655C135.862 32.9723 131.707 36.9963 131.11 42.2418L132.102 42.275C132.413 38.7267 134.39 36.3877 136.001 35.0499ZM142.369 52.9594C147.231 52.9594 151.187 48.8756 151.187 43.8559C151.187 38.8358 147.231 34.752 142.369 34.752C137.506 34.752 133.549 38.8358 133.549 43.8559C133.549 48.8756 137.506 52.9594 142.369 52.9594V52.9594ZM142.369 30.5536C149.473 30.5536 155.253 36.5212 155.253 43.8559C155.253 51.1907 149.473 57.1578 142.369 57.1578C135.263 57.1578 129.484 51.1907 129.484 43.8559C129.484 36.5212 135.263 30.5536 142.369 30.5536" fill="url(#paint14_radial_43_74)"/>
<path d="M142.319 39.6187C144.542 39.6187 146.351 41.4865 146.351 43.7817C146.351 46.077 144.542 47.9447 142.319 47.9447C140.095 47.9447 138.287 46.077 138.287 43.7817C138.287 41.4865 140.095 39.6187 142.319 39.6187ZM142.319 48.5643C144.873 48.5643 146.951 46.4186 146.951 43.7817C146.951 41.1443 144.873 38.9985 142.319 38.9985C139.764 38.9985 137.686 41.1443 137.686 43.7817C137.686 46.4186 139.764 48.5643 142.319 48.5643Z" fill="url(#paint15_linear_43_74)"/>
<path d="M142.358 43.1438C142.731 43.1438 143.035 43.4572 143.035 43.8426C143.035 44.228 142.731 44.5409 142.358 44.5409C141.985 44.5409 141.681 44.228 141.681 43.8426C141.681 43.4572 141.985 43.1438 142.358 43.1438ZM142.358 44.8504C142.896 44.8504 143.334 44.3986 143.334 43.8426C143.334 43.2872 142.896 42.8343 142.358 42.8343C141.819 42.8343 141.382 43.2872 141.382 43.8426C141.382 44.3986 141.819 44.8504 142.358 44.8504Z" fill="url(#paint16_linear_43_74)"/>
<path d="M144.916 43.0951L143.559 44.3106L143.759 46.1551L142.219 45.1971L140.582 45.9629L140.988 44.1561L139.776 42.7861L141.567 42.6261L142.455 41.0125L143.156 42.7219L144.916 43.0951ZM144.413 47.2077L144.123 44.5376L146.089 42.7778L143.54 42.2374L142.526 39.7633L141.24 42.0995L138.647 42.3304L140.402 44.3144L139.813 46.9308L142.184 45.8217L144.413 47.2077" fill="url(#paint17_radial_43_74)"/>
</g>
<g filter="url(#filter1_d_43_74)">
<path d="M201.422 16.7746L198.469 33.8371H195.117L198.059 16.7746H201.422ZM209.73 16.7746L202.84 25.3176L198.797 29.5598L198.762 25.8684L201.492 22.259L205.477 16.7746H209.73ZM202.898 33.8371L200.613 25.8684L203.32 23.7356L206.684 33.8371H202.898ZM218.016 31.0012L217.512 33.8371H210.316L210.797 31.0012H218.016ZM214.312 16.7746L211.359 33.8371H208.008L210.949 16.7746H214.312ZM218.32 23.6887L217.84 26.4426H211.594L212.062 23.6887H218.32ZM220.453 16.7746L219.949 19.6223H212.766L213.27 16.7746H220.453ZM224.824 16.7746L226.008 24.427L229.828 16.7746H233.602L227.156 27.802L226.113 33.8371H222.727L223.84 27.4621L221.309 16.7746H224.824ZM239.098 26.3957H235.559L235.992 23.9113L238.734 23.9348C239.195 23.927 239.602 23.8371 239.953 23.6653C240.305 23.4856 240.586 23.2317 240.797 22.9035C241.008 22.5754 241.145 22.1809 241.207 21.7199C241.262 21.3215 241.262 20.9738 241.207 20.677C241.16 20.3723 241.023 20.1301 240.797 19.9504C240.578 19.7629 240.254 19.6574 239.824 19.634L237.891 19.6223L235.43 33.8371H232.078L235.02 16.7746L239.965 16.7863C240.684 16.802 241.34 16.9074 241.934 17.1028C242.527 17.2903 243.031 17.5754 243.445 17.9582C243.867 18.3332 244.184 18.8059 244.395 19.3762C244.605 19.9387 244.684 20.5988 244.629 21.3567C244.566 22.2238 244.332 22.9543 243.926 23.5481C243.527 24.134 243 24.591 242.344 24.9192C241.688 25.2473 240.941 25.4348 240.105 25.4817L239.098 26.3957ZM237.727 33.8371H233.273L235.066 31.0129L237.891 31.0246C238.352 31.009 238.746 30.8996 239.074 30.6965C239.41 30.4934 239.676 30.2199 239.871 29.8762C240.074 29.5324 240.207 29.134 240.27 28.6809C240.316 28.3528 240.328 28.0207 240.305 27.6848C240.281 27.341 240.184 27.052 240.012 26.8176C239.84 26.5754 239.543 26.4387 239.121 26.4074L236.098 26.3957L236.555 23.9113L239.941 23.9231L240.516 24.8957C241.258 24.9192 241.859 25.1028 242.32 25.4465C242.789 25.7903 243.125 26.2473 243.328 26.8176C243.531 27.3801 243.605 28.0168 243.551 28.7278C243.48 29.8371 243.188 30.7746 242.672 31.5403C242.164 32.2981 241.484 32.8762 240.633 33.2746C239.781 33.6653 238.812 33.8528 237.727 33.8371ZM258.469 23.9817L258.047 26.8059C257.898 27.7668 257.652 28.6926 257.309 29.5832C256.965 30.466 256.508 31.2473 255.938 31.927C255.367 32.6067 254.676 33.1418 253.863 33.5324C253.051 33.9153 252.109 34.0949 251.039 34.0715C250.016 34.0481 249.16 33.8293 248.473 33.4153C247.793 33.0012 247.262 32.4504 246.879 31.7629C246.496 31.0754 246.246 30.3059 246.129 29.4543C246.02 28.5949 246.02 27.7199 246.129 26.8293L246.551 23.9934C246.699 23.0246 246.945 22.0949 247.289 21.2043C247.633 20.3059 248.09 19.5012 248.66 18.7903C249.238 18.0793 249.938 17.5207 250.758 17.1145C251.578 16.7004 252.531 16.509 253.617 16.5403C254.656 16.5637 255.516 16.7942 256.195 17.2317C256.875 17.6692 257.402 18.2473 257.777 18.966C258.152 19.677 258.391 20.4699 258.492 21.3449C258.594 22.2121 258.586 23.091 258.469 23.9817ZM254.73 26.8293L255.141 23.9348C255.195 23.5363 255.234 23.0871 255.258 22.5871C255.289 22.0793 255.262 21.5871 255.176 21.1106C255.09 20.6262 254.91 20.2238 254.637 19.9035C254.363 19.5832 253.941 19.4113 253.371 19.3879C252.746 19.3567 252.223 19.4817 251.801 19.7629C251.387 20.0442 251.051 20.4231 250.793 20.8996C250.535 21.3684 250.336 21.8723 250.195 22.4113C250.062 22.9504 249.957 23.466 249.879 23.9582L249.48 26.841C249.426 27.2473 249.387 27.6965 249.363 28.1887C249.34 28.6809 249.375 29.1574 249.469 29.6184C249.57 30.0715 249.758 30.4504 250.031 30.7551C250.312 31.052 250.738 31.2121 251.309 31.2356C251.91 31.2668 252.414 31.1496 252.82 30.884C253.227 30.6106 253.559 30.2512 253.816 29.8059C254.074 29.3606 254.273 28.8762 254.414 28.3528C254.555 27.8215 254.66 27.3137 254.73 26.8293ZM267.375 19.9856L261.457 33.8371H257.824L265.957 16.7746H268.242L267.375 19.9856ZM267.809 33.8371L266.637 19.7043L266.824 16.7746H268.992L271.254 33.8371H267.809ZM269.016 27.4738L268.512 30.3215H261.012L261.516 27.4738H269.016ZM275.812 16.7746L280.969 16.7863C281.992 16.8176 282.852 17.0403 283.547 17.4543C284.25 17.8606 284.77 18.4387 285.105 19.1887C285.449 19.9309 285.578 20.8137 285.492 21.8371C285.422 22.6887 285.238 23.4348 284.941 24.0754C284.652 24.7082 284.246 25.2629 283.723 25.7395C283.199 26.2082 282.559 26.6184 281.801 26.9699L280.664 27.5793H276.188L276.68 24.7317L279.516 24.7551C280.039 24.7473 280.484 24.6262 280.852 24.3918C281.219 24.1574 281.508 23.841 281.719 23.4426C281.938 23.0442 282.078 22.6028 282.141 22.1184C282.188 21.7512 282.191 21.3801 282.152 21.0051C282.121 20.6301 282.004 20.3137 281.801 20.0559C281.598 19.7981 281.273 19.6574 280.828 19.634L278.684 19.6223L276.223 33.8371H272.871L275.812 16.7746ZM280.453 33.8371L278.73 26.2317L282.105 26.2199L284.027 33.6496V33.8371H280.453ZM290.25 33.8371H287.156L287.672 31.0012L290.414 31.0129C291.336 31.0207 292.07 30.8332 292.617 30.4504C293.172 30.0598 293.586 29.5363 293.859 28.8801C294.133 28.216 294.332 27.466 294.457 26.6301L294.832 23.9582C294.895 23.466 294.938 22.9699 294.961 22.4699C294.992 21.9699 294.953 21.509 294.844 21.0871C294.734 20.6653 294.516 20.3254 294.188 20.0676C293.867 19.802 293.391 19.6574 292.758 19.634L289.559 19.6223L290.062 16.7746L292.898 16.7863C293.93 16.8098 294.805 17.0207 295.523 17.4192C296.242 17.8176 296.816 18.3528 297.246 19.0246C297.684 19.6965 297.977 20.4582 298.125 21.3098C298.273 22.1613 298.289 23.0559 298.172 23.9934L297.773 26.6418C297.617 27.6496 297.34 28.5949 296.941 29.4778C296.551 30.3528 296.039 31.1184 295.406 31.7746C294.781 32.4231 294.039 32.9309 293.18 33.2981C292.328 33.6653 291.352 33.8449 290.25 33.8371ZM292.055 16.7746L289.102 33.8371H285.75L288.691 16.7746H292.055ZM197.303 42.0403L201.17 42.049C201.938 42.0725 202.582 42.2395 203.104 42.55C203.631 42.8547 204.021 43.2883 204.272 43.8508C204.53 44.4074 204.627 45.0695 204.562 45.8371C204.51 46.4758 204.372 47.0354 204.149 47.5158C203.933 47.9904 203.628 48.4065 203.235 48.7639C202.843 49.1154 202.362 49.4231 201.794 49.6867L200.941 50.1438H197.584L197.953 48.008L200.08 48.0256C200.473 48.0197 200.807 47.9289 201.082 47.7531C201.357 47.5774 201.574 47.3401 201.732 47.0412C201.896 46.7424 202.002 46.4113 202.049 46.0481C202.084 45.7727 202.087 45.4944 202.058 45.2131C202.034 44.9319 201.946 44.6945 201.794 44.5012C201.642 44.3078 201.398 44.2024 201.064 44.1848L199.456 44.176L197.61 54.8371H195.097L197.303 42.0403ZM200.783 54.8371L199.491 49.133L202.022 49.1242L203.464 54.6965V54.8371H200.783ZM211.066 44.4485L206.628 54.8371H203.903L210.003 42.0403H211.717L211.066 44.4485ZM211.392 54.8371L210.513 44.2375L210.653 42.0403H212.279L213.976 54.8371H211.392ZM212.297 50.0647L211.919 52.2004H206.294L206.672 50.0647H212.297ZM221.604 50.5832L224.021 50.5481C223.928 51.4387 223.679 52.2238 223.274 52.9035C222.876 53.5832 222.334 54.1106 221.648 54.4856C220.969 54.8606 220.166 55.0363 219.24 55.0129C218.467 54.9953 217.831 54.8283 217.333 54.5119C216.835 54.1897 216.451 53.7678 216.182 53.2463C215.912 52.719 215.745 52.136 215.681 51.4973C215.616 50.8528 215.625 50.1965 215.707 49.5285L216.041 47.3576C216.146 46.6487 216.325 45.9631 216.577 45.301C216.829 44.633 217.163 44.0383 217.579 43.5168C217.995 42.9895 218.505 42.5764 219.108 42.2776C219.718 41.9787 220.421 41.8381 221.218 41.8557C222.138 41.8733 222.864 42.0871 223.397 42.4973C223.937 42.9016 224.323 43.4436 224.558 44.1233C224.792 44.8029 224.912 45.5559 224.918 46.382L222.404 46.3733C222.428 45.9748 222.422 45.5969 222.387 45.2395C222.352 44.8762 222.234 44.5803 222.035 44.3518C221.842 44.1174 221.505 43.9914 221.024 43.9738C220.556 43.9563 220.169 44.05 219.864 44.2551C219.565 44.4602 219.325 44.7326 219.144 45.0725C218.968 45.4123 218.833 45.7815 218.739 46.1799C218.651 46.5783 218.581 46.9651 218.528 47.3401L218.221 49.5373C218.18 49.842 218.142 50.1819 218.106 50.5569C218.077 50.9319 218.086 51.2951 218.133 51.6467C218.18 51.9983 218.3 52.2912 218.493 52.5256C218.687 52.76 219 52.8889 219.434 52.9123C219.943 52.9299 220.342 52.8362 220.629 52.6311C220.916 52.426 221.13 52.1447 221.271 51.7873C221.417 51.424 221.528 51.0227 221.604 50.5832ZM232.441 52.7102L232.063 54.8371H226.667L227.027 52.7102H232.441ZM229.664 42.0403L227.449 54.8371H224.936L227.142 42.0403H229.664ZM232.67 47.2258L232.31 49.2912H227.625L227.977 47.2258H232.67ZM234.27 42.0403L233.892 44.176H228.504L228.882 42.0403H234.27Z" fill="#333333"/>
</g>
<line x1="312.5" x2="312.5" y2="56" stroke="black" stroke-opacity="0.5"/>
<defs>
<filter id="filter0_d_43_74" x="0" y="1.87781" width="186" height="64.1222" filterUnits="userSpaceOnUse" color-interpolation-filters="sRGB">
<feFlood flood-opacity="0" result="BackgroundImageFix"/>
<feColorMatrix in="SourceAlpha" type="matrix" values="0 0 0 0 0 0 0 0 0 0 0 0 0 0 0 0 0 0 127 0" result="hardAlpha"/>
<feOffset dy="4"/>
<feGaussianBlur stdDeviation="2"/>
<feComposite in2="hardAlpha" operator="out"/>
<feColorMatrix type="matrix" values="0 0 0 0 0 0 0 0 0 0 0 0 0 0 0 0 0 0 0.25 0"/>
<feBlend mode="normal" in2="BackgroundImageFix" result="effect1_dropShadow_43_74"/>
<feBlend mode="normal" in="SourceGraphic" in2="effect1_dropShadow_43_74" result="shape"/>
</filter>
<filter id="filter1_d_43_74" x="191.097" y="16.4934" width="111.251" height="46.5547" filterUnits="userSpaceOnUse" color-interpolation-filters="sRGB">
<feFlood flood-opacity="0" result="BackgroundImageFix"/>
<feColorMatrix in="SourceAlpha" type="matrix" values="0 0 0 0 0 0 0 0 0 0 0 0 0 0 0 0 0 0 127 0" result="hardAlpha"/>
<feOffset dy="4"/>
<feGaussianBlur stdDeviation="2"/>
<feComposite in2="hardAlpha" operator="out"/>
<feColorMatrix type="matrix" values="0 0 0 0 0 0 0 0 0 0 0 0 0 0 0 0 0 0 0.25 0"/>
<feBlend mode="normal" in2="BackgroundImageFix" result="effect1_dropShadow_43_74"/>
<feBlend mode="normal" in="SourceGraphic" in2="effect1_dropShadow_43_74" result="shape"/>
</filter>
<linearGradient id="paint0_linear_43_74" x1="35.1057" y1="0.82185" x2="35.1057" y2="60.638" gradientUnits="userSpaceOnUse">
<stop stop-color="#ED1C24"/>
<stop offset="0.344602" stop-color="#ED1C24"/>
<stop offset="1" stop-color="#861115"/>
</linearGradient>
<linearGradient id="paint1_linear_43_74" x1="35.1441" y1="22.1206" x2="35.1441" y2="52.4169" gradientUnits="userSpaceOnUse">
<stop stop-color="#ED1C24"/>
<stop offset="0.344602" stop-color="#ED1C24"/>
<stop offset="1" stop-color="#861115"/>
</linearGradient>
<radialGradient id="paint2_radial_43_74" cx="0" cy="0" r="1" gradientUnits="userSpaceOnUse" gradientTransform="translate(35.1557 43.5602) rotate(180) scale(5.0755 5.23981)">
<stop stop-color="#7B7979"/>
<stop offset="0.0986598" stop-color="#7B7979"/>
<stop offset="0.286301" stop-color="#231F20"/>
<stop offset="0.374278" stop-color="#231F20"/>
<stop offset="1" stop-color="#656263"/>
</radialGradient>
<linearGradient id="paint3_linear_43_74" x1="143.402" y1="-11.4633" x2="145.444" y2="67.6572" gradientUnits="userSpaceOnUse">
<stop stop-color="#ED1C24"/>
<stop offset="0.344602" stop-color="#ED1C24"/>
<stop offset="1" stop-color="#861115"/>
</linearGradient>
<linearGradient id="paint4_linear_43_74" x1="169.789" y1="-12.1461" x2="171.831" y2="66.9772" gradientUnits="userSpaceOnUse">
<stop stop-color="#ED1C24"/>
<stop offset="0.344602" stop-color="#ED1C24"/>
<stop offset="1" stop-color="#861115"/>
</linearGradient>
<linearGradient id="paint5_linear_43_74" x1="95.827" y1="-10.2363" x2="97.8691" y2="68.8854" gradientUnits="userSpaceOnUse">
<stop stop-color="#ED1C24"/>
<stop offset="0.344602" stop-color="#ED1C24"/>
<stop offset="1" stop-color="#861115"/>
</linearGradient>
<linearGradient id="paint6_linear_43_74" x1="13.7233" y1="-8.11821" x2="15.7654" y2="71.0045" gradientUnits="userSpaceOnUse">
<stop stop-color="#F68712"/>
<stop offset="1" stop-color="#EF2E32"/>
</linearGradient>
<linearGradient id="paint7_linear_43_74" x1="84.2178" y1="-9.93721" x2="86.2599" y2="69.185" gradientUnits="userSpaceOnUse">
<stop stop-color="#ED1C24"/>
<stop offset="0.344602" stop-color="#ED1C24"/>
<stop offset="1" stop-color="#861115"/>
</linearGradient>
<linearGradient id="paint8_linear_43_74" x1="122.158" y1="-10.9156" x2="124.2" y2="68.2048" gradientUnits="userSpaceOnUse">
<stop stop-color="#ED1C24"/>
<stop offset="0.344602" stop-color="#ED1C24"/>
<stop offset="1" stop-color="#861115"/>
</linearGradient>
<linearGradient id="paint9_linear_43_74" x1="8.57257" y1="-7.9847" x2="10.6147" y2="71.1374" gradientUnits="userSpaceOnUse">
<stop stop-color="#ED1C24"/>
<stop offset="0.344602" stop-color="#ED1C24"/>
<stop offset="1" stop-color="#861115"/>
</linearGradient>
<linearGradient id="paint10_linear_43_74" x1="76.656" y1="-9.7412" x2="78.6981" y2="69.3799" gradientUnits="userSpaceOnUse">
<stop stop-color="#ED1C24"/>
<stop offset="0.344602" stop-color="#ED1C24"/>
<stop offset="1" stop-color="#861115"/>
</linearGradient>
<radialGradient id="paint11_radial_43_74" cx="0" cy="0" r="1" gradientUnits="userSpaceOnUse" gradientTransform="translate(35.1056 43.8559) rotate(180) scale(21.039 21.7202)">
<stop stop-color="#A19FA0"/>
<stop offset="0.44454" stop-color="#918F8F"/>
<stop offset="0.507042" stop-color="#918F8F"/>
<stop offset="0.830126" stop-color="#A19FA0"/>
<stop offset="1" stop-color="#A19FA0"/>
</radialGradient>
<radialGradient id="paint12_radial_43_74" cx="0" cy="0" r="1" gradientUnits="userSpaceOnUse" gradientTransform="translate(35.1056 43.8559) rotate(180) scale(19.2336 19.8563)">
<stop stop-color="#7B7979"/>
<stop offset="0.169874" stop-color="#7B7979"/>
<stop offset="0.492958" stop-color="#231F20"/>
<stop offset="0.55546" stop-color="#231F20"/>
<stop offset="1" stop-color="#656263"/>
</radialGradient>
<radialGradient id="paint13_radial_43_74" cx="0" cy="0" r="1" gradientUnits="userSpaceOnUse" gradientTransform="translate(142.368 43.8559) rotate(180) scale(21.0392 21.7204)">
<stop stop-color="#A19FA0"/>
<stop offset="0.44454" stop-color="#918F8F"/>
<stop offset="0.507042" stop-color="#918F8F"/>
<stop offset="0.830126" stop-color="#A19FA0"/>
<stop offset="1" stop-color="#A19FA0"/>
</radialGradient>
<radialGradient id="paint14_radial_43_74" cx="0" cy="0" r="1" gradientUnits="userSpaceOnUse" gradientTransform="translate(142.368 43.8559) rotate(180) scale(19.2338 19.8565)">
<stop stop-color="#7B7979"/>
<stop offset="0.169874" stop-color="#7B7979"/>
<stop offset="0.492958" stop-color="#231F20"/>
<stop offset="0.55546" stop-color="#231F20"/>
<stop offset="1" stop-color="#656263"/>
</radialGradient>
<linearGradient id="paint15_linear_43_74" x1="142.319" y1="0.749807" x2="142.319" y2="60.5627" gradientUnits="userSpaceOnUse">
<stop stop-color="#ED1C24"/>
<stop offset="0.344602" stop-color="#ED1C24"/>
<stop offset="1" stop-color="#861115"/>
</linearGradient>
<linearGradient id="paint16_linear_43_74" x1="142.358" y1="22.0459" x2="142.358" y2="52.3421" gradientUnits="userSpaceOnUse">
<stop stop-color="#ED1C24"/>
<stop offset="0.344602" stop-color="#ED1C24"/>
<stop offset="1" stop-color="#861115"/>
</linearGradient>
<radialGradient id="paint17_radial_43_74" cx="0" cy="0" r="1" gradientUnits="userSpaceOnUse" gradientTransform="translate(142.368 43.4855) rotate(180) scale(5.07514 5.23944)">
<stop stop-color="#7B7979"/>
<stop offset="0.0986598" stop-color="#7B7979"/>
<stop offset="0.286301" stop-color="#231F20"/>
<stop offset="0.374278" stop-color="#231F20"/>
<stop offset="1" stop-color="#656263"/>
</radialGradient>
</defs>
</svg>
