<svg width="259" height="102" viewBox="0 0 259 102" fill="none" xmlns="http://www.w3.org/2000/svg">
<path d="M20.3998 87H254.8C257 87 258.8 85.2 258.8 83V76.6C258.8 52 238.9 32.1 214.3 32.1H15.3998C11.2998 32.1 7.9998 39.7 7.3998 51.2C6.4998 56.4 3.09982 59.4 2.19982 61.4C1.29982 63.4 -1.30018 78.6 2.19982 81.6C5.79982 84.6 20.3998 87 20.3998 87Z" fill="#3D2E96"/>
<path d="M199.1 73.1C199.1 73.1 71.1998 73.8 44.3998 73.8C23.7998 73.8 11.7998 66.7 2.99981 60.1C2.69981 60.6 2.39982 61 2.19982 61.5C1.29982 63.5 -1.30018 78.7 2.19982 81.7C5.69982 84.7 20.3998 87.1 20.3998 87.1H206.5L199.1 73.1Z" fill="black" fill-opacity="0.25"/>
<path d="M174.9 82.7999H174.2C174.2 82.6999 174.3 77.1999 175.1 61.9999C175.8 46.7999 172 36.1999 167.8 32.3999L168.3 31.8999C172.6 35.7999 176.6 46.5999 175.8 61.9999C175.1 77.1999 174.9 82.7999 174.9 82.7999ZM95.0997 81.5999C95.0997 81.4999 91.1996 68.5999 88.2996 55.3999C85.2996 41.8999 91.4997 32.0999 92.8997 30.7999L92.3997 30.2999C90.9997 31.6999 84.4997 41.6999 87.5997 55.5999C90.4997 68.7999 94.3997 81.6999 94.3997 81.8999L95.0997 81.5999ZM207.2 50.8999C204.4 46.2999 192.7 34.0999 186.7 31.7999L186.4 32.4999C192.1 34.5999 203.8 46.6999 206.5 51.2999L207.2 50.8999Z" fill="black" fill-opacity="0.3"/>
<path d="M191 32.0999L150.9 1.99994C149.8 1.19994 148.5 0.799927 147.2 0.799927H42.7998C37.3998 0.799927 32.3998 3.69993 29.6998 8.39993L16.2998 32.0999H191Z" fill="#32353A"/>
<path d="M203.4 80.7999H65.6997V86.9999H203.4V80.7999Z" fill="#57585E"/>
<path d="M242.9 79L238.5 64.2L231.8 56.1L222.5 51.1H209.8L199.7 54.5L191 60.8L185.6 73.1L184.3 83.4L185.1 87H243.6L242.9 79Z" fill="#181A1C"/>
<path d="M20.3996 87H68.5996V79C68.5996 79 66.3996 65.9 65.5996 66C64.8996 66.1 57.2996 56.8 57.2996 56.8L47.4996 51.1L35.1996 52.6H28.4996L20.9996 57.5L15.6996 64.2L11.2996 71.2L10.6996 79L10.0996 84.9C15.1996 86.2 20.3996 87 20.3996 87Z" fill="#181A1C"/>
<path d="M38.3998 101.9C50.8814 101.9 60.9998 91.7816 60.9998 79.2999C60.9998 66.8183 50.8814 56.7 38.3998 56.7C25.9182 56.7 15.7998 66.8183 15.7998 79.2999C15.7998 91.7816 25.9182 101.9 38.3998 101.9Z" fill="#57585E"/>
<path d="M38.3996 96.6C47.9541 96.6 55.6996 88.8545 55.6996 79.3C55.6996 69.7455 47.9541 62 38.3996 62C28.8451 62 21.0996 69.7455 21.0996 79.3C21.0996 88.8545 28.8451 96.6 38.3996 96.6Z" fill="#424449"/>
<path d="M38.3998 94.3999C46.7393 94.3999 53.4998 87.6394 53.4998 79.2999C53.4998 70.9604 46.7393 64.2 38.3998 64.2C30.0603 64.2 23.2998 70.9604 23.2998 79.2999C23.2998 87.6394 30.0603 94.3999 38.3998 94.3999Z" fill="#EDEDED"/>
<path d="M35.2999 83.7999L35.0999 83.6999C34.4999 83.2999 33.7999 83.3999 33.2999 83.8999L28.8999 88.6999C29.8999 89.7999 31.1999 90.5999 32.4999 91.2999L35.6999 85.5999C35.9999 84.9999 35.7999 84.1999 35.2999 83.7999Z" fill="#32353A"/>
<path d="M43.4998 83.8999C42.9998 83.3999 42.2999 83.2999 41.6999 83.6999L41.4998 83.7999C40.8998 84.1999 40.7999 84.9999 41.0999 85.4999L44.2998 91.1999C45.5998 90.4999 46.8998 89.5999 47.8998 88.5999L43.4998 83.8999Z" fill="#32353A"/>
<path d="M25.1997 77.3999L31.5997 78.7C32.2997 78.8 32.8997 78.3999 33.0997 77.7999L33.1997 77.5999C33.3997 76.9999 33.0997 76.1999 32.4997 75.9999L26.5997 73.2999C25.8997 74.3999 25.3997 75.7999 25.1997 77.3999Z" fill="#32353A"/>
<path d="M39.7997 72.5999L40.5997 66.0999C39.8997 65.9999 39.0997 65.8999 38.3997 65.8999C37.5997 65.8999 36.8997 65.9999 36.1997 66.0999L36.9997 72.5999C37.0997 73.2999 37.6997 73.7999 38.2997 73.7999H38.4997C39.1997 73.7999 39.7997 73.2999 39.7997 72.5999Z" fill="#32353A"/>
<path d="M44.2998 75.8998C43.6998 76.1998 43.3998 76.8998 43.5998 77.4998L43.6998 77.6999C43.8998 78.2999 44.5998 78.6999 45.1998 78.5999L51.5998 77.2998C51.3998 75.7998 50.8998 74.3999 50.1998 73.0999L44.2998 75.8998Z" fill="#32353A"/>
<path d="M38.3996 80.7999C39.3937 80.7999 40.1996 79.9941 40.1996 78.9999C40.1996 78.0058 39.3937 77.2 38.3996 77.2C37.4055 77.2 36.5996 78.0058 36.5996 78.9999C36.5996 79.9941 37.4055 80.7999 38.3996 80.7999Z" fill="#847A7E"/>
<path d="M38.3999 82.7999C38.676 82.7999 38.8999 82.5761 38.8999 82.2999C38.8999 82.0238 38.676 81.7999 38.3999 81.7999C38.1238 81.7999 37.8999 82.0238 37.8999 82.2999C37.8999 82.5761 38.1238 82.7999 38.3999 82.7999Z" fill="#847A7E"/>
<path d="M35.4477 80.4284C35.7103 80.3431 35.854 80.061 35.7686 79.7984C35.6833 79.5357 35.4012 79.3921 35.1386 79.4774C34.876 79.5628 34.7323 79.8448 34.8176 80.1075C34.903 80.3701 35.1851 80.5138 35.4477 80.4284Z" fill="#847A7E"/>
<path d="M36.7813 76.7131C37.0047 76.5508 37.0543 76.2382 36.892 76.0147C36.7297 75.7913 36.417 75.7417 36.1936 75.904C35.9702 76.0663 35.9206 76.379 36.0829 76.6024C36.2452 76.8259 36.5579 76.8754 36.7813 76.7131Z" fill="#847A7E"/>
<path d="M40.703 76.649C40.8653 76.4256 40.8158 76.1129 40.5924 75.9506C40.369 75.7883 40.0563 75.8378 39.894 76.0612C39.7317 76.2846 39.7812 76.5973 40.0046 76.7596C40.228 76.9219 40.5407 76.8724 40.703 76.649Z" fill="#847A7E"/>
<path d="M42.0138 80.1831C42.0991 79.9204 41.9554 79.6383 41.6928 79.553C41.4301 79.4677 41.148 79.6114 41.0627 79.8741C40.9774 80.1367 41.1211 80.4188 41.3838 80.5041C41.6464 80.5894 41.9285 80.4457 42.0138 80.1831Z" fill="#847A7E"/>
<path d="M71.2 86.9999V80.7999C71.2 63.3999 57 49.2 39.6 49.2C22.2 49.2 8 63.3999 8 80.7999V84.0999C9.4 84.4999 11 84.8999 12.5 85.2999V80.7999C12.5 65.7999 24.7 53.5999 39.7 53.5999C54.7 53.5999 66.9 65.7999 66.9 80.7999V86.9999H71.2Z" fill="#57585E"/>
<path d="M212.9 101.9C225.381 101.9 235.5 91.7816 235.5 79.2999C235.5 66.8183 225.381 56.7 212.9 56.7C200.418 56.7 190.3 66.8183 190.3 79.2999C190.3 91.7816 200.418 101.9 212.9 101.9Z" fill="#57585E"/>
<path d="M212.9 96.6C222.454 96.6 230.2 88.8545 230.2 79.3C230.2 69.7455 222.454 62 212.9 62C203.345 62 195.6 69.7455 195.6 79.3C195.6 88.8545 203.345 96.6 212.9 96.6Z" fill="#424449"/>
<path d="M212.9 94.3999C221.239 94.3999 228 87.6394 228 79.2999C228 70.9604 221.239 64.2 212.9 64.2C204.56 64.2 197.8 70.9604 197.8 79.2999C197.8 87.6394 204.56 94.3999 212.9 94.3999Z" fill="#EDEDED"/>
<path d="M209.8 83.7999L209.6 83.6999C209 83.2999 208.3 83.3999 207.8 83.8999L203.4 88.6999C204.4 89.7999 205.7 90.5999 207 91.2999L210.2 85.5999C210.5 84.9999 210.3 84.1999 209.8 83.7999Z" fill="#32353A"/>
<path d="M218 83.8999C217.5 83.3999 216.8 83.2999 216.2 83.6999L216 83.7999C215.4 84.1999 215.3 84.9999 215.6 85.4999L218.8 91.1999C220.1 90.4999 221.4 89.5999 222.4 88.5999L218 83.8999Z" fill="#32353A"/>
<path d="M199.7 77.3999L206.1 78.7C206.8 78.8 207.4 78.3999 207.6 77.7999L207.7 77.5999C207.9 76.9999 207.6 76.1999 207 75.9999L201.1 73.2999C200.4 74.3999 200 75.7999 199.7 77.3999Z" fill="#32353A"/>
<path d="M214.4 72.5999L215.2 66.0999C214.5 65.9999 213.7 65.8999 213 65.8999C212.2 65.8999 211.5 65.9999 210.8 66.0999L211.6 72.5999C211.7 73.2999 212.3 73.7999 212.9 73.7999H213.1C213.7 73.7999 214.3 73.2999 214.4 72.5999Z" fill="#32353A"/>
<path d="M218.8 75.8998C218.2 76.1998 217.9 76.8998 218.1 77.4998L218.2 77.6999C218.4 78.2999 219.1 78.6999 219.7 78.5999L226.1 77.2998C225.9 75.7998 225.4 74.3999 224.7 73.0999L218.8 75.8998Z" fill="#32353A"/>
<path d="M212.9 80.7999C213.894 80.7999 214.7 79.9941 214.7 78.9999C214.7 78.0058 213.894 77.2 212.9 77.2C211.906 77.2 211.1 78.0058 211.1 78.9999C211.1 79.9941 211.906 80.7999 212.9 80.7999Z" fill="#847A7E"/>
<path d="M212.9 82.7999C213.176 82.7999 213.4 82.5761 213.4 82.2999C213.4 82.0238 213.176 81.7999 212.9 81.7999C212.624 81.7999 212.4 82.0238 212.4 82.2999C212.4 82.5761 212.624 82.7999 212.9 82.7999Z" fill="#847A7E"/>
<path d="M209.942 80.4339C210.205 80.3485 210.349 80.0665 210.263 79.8039C210.178 79.5412 209.896 79.3975 209.633 79.4829C209.371 79.5683 209.227 79.8503 209.312 80.113C209.398 80.3756 209.68 80.5193 209.942 80.4339Z" fill="#847A7E"/>
<path d="M211.296 76.7363C211.52 76.574 211.569 76.2613 211.407 76.0379C211.245 75.8145 210.932 75.7649 210.709 75.9272C210.485 76.0895 210.436 76.4022 210.598 76.6256C210.76 76.849 211.073 76.8986 211.296 76.7363Z" fill="#847A7E"/>
<path d="M215.281 76.5997C215.443 76.3763 215.394 76.0636 215.171 75.9013C214.947 75.739 214.634 75.7885 214.472 76.0119C214.31 76.2353 214.359 76.548 214.583 76.7103C214.806 76.8726 215.119 76.8231 215.281 76.5997Z" fill="#847A7E"/>
<path d="M216.578 80.1218C216.663 79.8591 216.519 79.5771 216.257 79.4917C215.994 79.4064 215.712 79.5501 215.627 79.8128C215.541 80.0754 215.685 80.3575 215.948 80.4428C216.21 80.5282 216.492 80.3844 216.578 80.1218Z" fill="#847A7E"/>
<path d="M214.2 49.2999C196.8 49.2999 182.6 63.4999 182.6 80.8999V87.0999H187.1V80.8999C187.1 65.8999 199.3 53.7 214.3 53.7C229.3 53.7 241.5 65.8999 241.5 80.8999V87.0999H246V80.8999C245.8 63.3999 231.6 49.2999 214.2 49.2999Z" fill="#57585E"/>
<path d="M35.7998 46.3999C38.0089 46.3999 39.7998 44.609 39.7998 42.3999C39.7998 40.1908 38.0089 38.3999 35.7998 38.3999C33.5907 38.3999 31.7998 40.1908 31.7998 42.3999C31.7998 44.609 33.5907 46.3999 35.7998 46.3999Z" fill="black" fill-opacity="0.34"/>
<path d="M185.6 28.0999H171.6C170.9 28.0999 170.3 27.8999 169.8 27.4999L146.7 10.4999C144.3 8.69991 145.6 4.8999 148.5 4.8999H154.7L185.6 28.0999ZM24.3996 28.0999L38.6996 4.8999H32.4996C31.3996 5.8999 30.3996 7.09991 29.6996 8.49991L18.5996 28.0999H24.3996ZM91.6996 28.0999H163L132.7 5.2999C132.3 4.9999 131.9 4.8999 131.4 4.8999H86.9996L91.6996 28.0999ZM81.0996 4.8999H42.6996L28.8996 28.0999H85.6996L81.0996 4.8999Z" fill="#60695C"/>
<path d="M12 34.3999H11.8C9.49999 37.4999 7.9 43.4999 7.5 51.1999C7.3 52.3999 6.9 53.3999 6.5 54.3999H8.29999C10.2 54.3999 11.9 53.1999 12.5 51.2999L16.2 40.1999C17.2 37.3999 15 34.3999 12 34.3999Z" fill="#EDEDED"/>
<path d="M14.0996 37.3999C13.5996 36.6999 12.7996 36.2999 11.9996 36.2999H10.5996C8.89961 39.5999 7.6996 44.7999 7.3996 51.2999C7.2996 51.7999 7.19961 52.2 7.09961 52.7H8.29959C9.39959 52.7 10.3996 51.9999 10.7996 50.8999L14.4996 39.7999C14.6996 38.8999 14.5996 37.9999 14.0996 37.3999Z" fill="#F26F75"/>
<path d="M161.3 32L164.4 36.9C165.4 38.4 164.3 40.3 162.5 40.3H157.2C155.7 40.3 154.7 38.9 155 37.5L156.3 32.5L161.3 32Z" fill="#32353A"/>
<path d="M160 35.3L154.4 36.6C151.3 36.6 148.8 34.1 148.8 31V30.1C148.8 27 151.3 24.5 154.4 24.5L160 25.8C162.2 26.3 163.8 28.3 163.8 30.6C163.8 32.8 162.3 34.8 160 35.3Z" fill="#57585E"/>
<path d="M158.6 26.7H153.2C152.5 26.7 151.9 27.2999 151.9 27.9999C151.9 28.6999 152.5 29.2999 153.2 29.2999H158.6C159.3 29.2999 159.9 28.6999 159.9 27.9999C159.9 27.2999 159.3 26.7 158.6 26.7Z" fill="#9A9B9E"/>
<path d="M101.1 28.0999H107.5L115.4 4.8999H109L101.1 28.0999Z" fill="#847A7E"/>
<path d="M122.2 4.8999H118.5L110.6 28.0999H114.3L122.2 4.8999Z" fill="#847A7E"/>
<path d="M71.2996 4.8999H68.9996L61.0996 28.0999H63.2996L71.2996 4.8999Z" fill="#847A7E"/>
<path d="M49.2998 28.0999H57.6998L65.5998 4.8999H57.1998L49.2998 28.0999Z" fill="#847A7E"/>
<path d="M100.5 45C103.317 45 105.6 43.6569 105.6 42C105.6 40.3431 103.317 39 100.5 39C97.6833 39 95.3999 40.3431 95.3999 42C95.3999 43.6569 97.6833 45 100.5 45Z" fill="black" fill-opacity="0.38"/>
<path d="M150.9 1.99994C149.8 1.19994 148.5 0.799927 147.2 0.799927H58.7999H55.4999H23.3999V1.69995C23.3999 4.59995 25.6999 6.89993 28.5999 6.89993H55.4999H58.7999H157.4L150.9 1.99994Z" fill="#57585E"/>
<path d="M94.0996 42.2C94.0996 43 94.7996 43.7 95.5996 43.7H105.4C106.2 43.7 106.9 43 106.9 42.2C106.9 41.4 106.2 40.7 105.4 40.7H95.5996C94.7996 40.7 94.0996 41.4 94.0996 42.2Z" fill="#32353A"/>
<path d="M252.9 80.8999C254.557 80.8999 255.9 78.4375 255.9 75.3999C255.9 72.3623 254.557 69.8999 252.9 69.8999C251.243 69.8999 249.9 72.3623 249.9 75.3999C249.9 78.4375 251.243 80.8999 252.9 80.8999Z" fill="black" fill-opacity="0.31"/>
<path d="M240.3 40.6C239 40.7 237.9 41.2 237.1 42C234.6 44.4 235.4 49 239 52.3C242.6 55.6 249.4 58 251.9 55.6C252.3 55.2 252.5 54.8 252.7 54.3C249.6 48.9 245.3 44.2 240.3 40.6Z" fill="#EDEDED"/>
<path d="M241.8 41.7C241.4 41.7 240.9 41.6 240.5 41.7C239.5 41.8 238.6 42.1999 237.9 42.7999C237 43.6999 236.6 45.1 236.9 46.6C237.2 48.3 238.3 50.0999 239.8 51.4999C242.4 53.9 246.7 55.5999 249.4 55.3999C250.1 55.2999 250.7 55.0999 251.1 54.7999C251.6 54.2999 251.8 53.6 251.7 52.7C249 48.5 245.7 44.8 241.8 41.7Z" fill="#EDE5A5"/>
<path d="M241.089 47.3062C242.245 47.206 243.108 46.2773 243.018 45.2319C242.927 44.1864 241.917 43.4201 240.761 43.5203C239.606 43.6205 238.742 44.5492 238.833 45.5946C238.924 46.6401 239.934 47.4064 241.089 47.3062Z" fill="#EDEDED"/>
<path d="M131.8 36.0999H95.4996C94.6996 36.0999 94.0996 35.5 94.0996 34.7C94.0996 33.9 94.6996 33.2999 95.4996 33.2999H131.8C132.6 33.2999 133.2 33.9 133.2 34.7C133.2 35.5 132.6 36.0999 131.8 36.0999Z" fill="black" fill-opacity="0.35"/>
<path d="M75.5999 36.0999H39.2999C38.4999 36.0999 37.8999 35.5 37.8999 34.7C37.8999 33.9 38.4999 33.2999 39.2999 33.2999H75.5999C76.3999 33.2999 76.9999 33.9 76.9999 34.7C76.8999 35.5 76.2999 36.0999 75.5999 36.0999Z" fill="black" fill-opacity="0.25"/>
</svg>
