<svg width="259" height="88" viewBox="0 0 259 88" fill="none" xmlns="http://www.w3.org/2000/svg">
<path d="M250.3 65.2C250.3 65.2 248.8 70.9 235.5 70.9C222.1 70.9 197.3 71.4999 197.3 71.4999H72.2998H29.0998C27.9998 71.4999 27.0998 70.7999 26.7998 69.7C26.5998 68.9 25.8998 68.1999 25.0998 67.9999L9.7998 64.0999C9.7998 64.0999 22.5998 35.2999 23.1998 35.4999C23.6998 35.6999 79.5998 32.2 79.5998 32.2H224.1C224.1 32.2 248 44.1 248.1 45.7C248.3 47.5 250.3 65.2 250.3 65.2Z" fill="#181A1C"/>
<path d="M57.0997 84.7C67.2618 84.7 75.4997 76.462 75.4997 66.3C75.4997 56.1379 67.2618 47.9 57.0997 47.9C46.9377 47.9 38.6997 56.1379 38.6997 66.3C38.6997 76.462 46.9377 84.7 57.0997 84.7Z" fill="#181A1C"/>
<path d="M213.1 84.7C223.262 84.7 231.5 76.462 231.5 66.3C231.5 56.1379 223.262 47.9 213.1 47.9C202.938 47.9 194.7 56.1379 194.7 66.3C194.7 76.462 202.938 84.7 213.1 84.7Z" fill="#181A1C"/>
<path d="M253.3 39.1C252.6 36.9 250.8 35.3 248.5 34.8L195.9 25.1L176.8 11.2C167.2 4.20001 155.7 0.5 143.9 0.5H109.1C106.3 0.5 103.9 2.3 103.1 5L96.4998 26.5H7.6998C5.7998 26.5 4.2998 28 4.2998 29.9V61.8C4.2998 63.3 5.4998 64.6 6.9998 64.8L25.6998 66.4C26.4998 62.1 27.7998 56.1 27.7998 56.1L33.1998 44.3L40.1998 40.6H57.9998H62.7998L67.7998 43.3C67.7998 43.3 71.4998 48.4 71.6998 48.7C71.7998 48.9 76.3998 63.3 78.6998 70.5L191.2 70.7C192.8 64.3 195.7 53.1 195.7 53.1L201.1 42.7L207.2 41.5H222.6C222.6 41.5 233.5 43.9 233.8 43.9C234.1 43.9 237.6 48 237.6 48C237.6 48 243 63.4 243 63.8C243 64 243.3 66.3 243.5 68.6C246.5 68.1 249.4 67.6 251.7 67.2C257.1 55.6 255 44.6 253.3 39.1Z" fill="#2A9206"/>
<path d="M237.1 32.7L195.8 25.1L176.7 11.2C167.1 4.20001 155.6 0.5 143.8 0.5H109C106.2 0.5 103.8 2.3 103 5L96.3997 26.5H7.59971C5.69971 26.5 4.19971 28 4.19971 29.9V32.7H237.1Z" fill="black" fill-opacity="0.31"/>
<path d="M50.1996 70.5001C51.3594 70.5001 52.2996 69.5599 52.2996 68.4001C52.2996 67.2403 51.3594 66.3 50.1996 66.3C49.0398 66.3 48.0996 67.2403 48.0996 68.4001C48.0996 69.5599 49.0398 70.5001 50.1996 70.5001Z" fill="#847A7E"/>
<path d="M50.1996 65.2C50.531 65.2 50.7996 64.9313 50.7996 64.6C50.7996 64.2686 50.531 64 50.1996 64C49.8682 64 49.5996 64.2686 49.5996 64.6C49.5996 64.9313 49.8682 65.2 50.1996 65.2Z" fill="#847A7E"/>
<path d="M47.0816 67.4322C47.184 67.1171 47.0115 66.7786 46.6964 66.6762C46.3812 66.5738 46.0427 66.7462 45.9403 67.0614C45.8379 67.3766 46.0104 67.7151 46.3256 67.8175C46.6407 67.9199 46.9792 67.7474 47.0816 67.4322Z" fill="#847A7E"/>
<path d="M48.3459 71.9185C48.5407 71.6505 48.4813 71.2753 48.2132 71.0805C47.9451 70.8857 47.5699 70.9451 47.3751 71.2132C47.1804 71.4813 47.2398 71.8565 47.5078 72.0513C47.7759 72.2461 48.1511 72.1866 48.3459 71.9185Z" fill="#847A7E"/>
<path d="M52.7371 72.0187C53.0052 71.8239 53.0646 71.4487 52.8698 71.1807C52.6751 70.9126 52.2999 70.8532 52.0318 71.048C51.7637 71.2427 51.7043 71.6179 51.8991 71.886C52.0938 72.1541 52.469 72.2135 52.7371 72.0187Z" fill="#847A7E"/>
<path d="M53.9976 67.8035C54.3128 67.7011 54.4853 67.3626 54.3829 67.0474C54.2805 66.7323 53.942 66.5597 53.6268 66.6621C53.3117 66.7645 53.1392 67.1031 53.2416 67.4182C53.344 67.7334 53.6825 67.9059 53.9976 67.8035Z" fill="#847A7E"/>
<path d="M50.1995 87.3C61.0795 87.3 69.8995 78.48 69.8995 67.6C69.8995 56.72 61.0795 47.9 50.1995 47.9C39.3195 47.9 30.4995 56.72 30.4995 67.6C30.4995 78.48 39.3195 87.3 50.1995 87.3Z" fill="#57585E"/>
<path d="M50.1994 79.9001C56.9925 79.9001 62.4994 74.3931 62.4994 67.6C62.4994 60.8069 56.9925 55.3 50.1994 55.3C43.4063 55.3 37.8994 60.8069 37.8994 67.6C37.8994 74.3931 43.4063 79.9001 50.1994 79.9001Z" fill="#424449"/>
<path d="M50.1994 77.9001C55.8879 77.9001 60.4994 73.2886 60.4994 67.6C60.4994 61.9115 55.8879 57.3 50.1994 57.3C44.5109 57.3 39.8994 61.9115 39.8994 67.6C39.8994 73.2886 44.5109 77.9001 50.1994 77.9001Z" fill="#EDEDED"/>
<path d="M47.4994 76.7002L47.9994 75.5001C48.3994 74.6001 48.0994 73.6001 47.2994 73.1001L45.8994 72.1001C45.0994 71.5001 44.0994 71.6002 43.3994 72.2002L42.3994 73.0001C43.5994 74.7001 45.3994 76.1002 47.4994 76.7002Z" fill="#32353A"/>
<path d="M44.0996 66.6L44.5996 64.9001C44.8996 64.0001 44.4996 63.0001 43.6996 62.5001L42.5996 61.8C41.3996 63.4 40.5996 65.4001 40.5996 67.5001C40.5996 67.6001 40.5996 67.7 40.5996 67.8L41.8996 67.9001C42.9996 68.1001 43.7996 67.5 44.0996 66.6Z" fill="#32353A"/>
<path d="M57.9995 73.0001L56.9995 72.2002C56.2995 71.6002 55.1995 71.5001 54.4995 72.1001L53.0995 73.1001C52.2995 73.7001 52.0995 74.7001 52.3995 75.5001L52.8995 76.7002C54.9995 76.1002 56.6995 74.7001 57.9995 73.0001Z" fill="#32353A"/>
<path d="M57.6997 61.9001L56.5997 62.6001C55.7997 63.1001 55.3997 64.1001 55.6997 65.0001L56.1997 66.7001C56.4997 67.6001 57.3997 68.2001 58.2997 68.1001L59.5997 68.0001C59.5997 67.9001 59.5997 67.8001 59.5997 67.7001C59.5997 65.5001 58.8997 63.5001 57.6997 61.9001Z" fill="#32353A"/>
<path d="M52.9994 60.0001L53.2994 58.8C52.2994 58.5 51.2994 58.3 50.0994 58.3C48.9994 58.3 47.8994 58.5 46.8994 58.8L47.1994 60.0001C47.3994 60.9001 48.1994 61.6 49.1994 61.6H50.8994C51.9994 61.6 52.7994 60.9001 52.9994 60.0001Z" fill="#32353A"/>
<path d="M219.2 87.3C230.08 87.3 238.9 78.48 238.9 67.6C238.9 56.72 230.08 47.9 219.2 47.9C208.32 47.9 199.5 56.72 199.5 67.6C199.5 78.48 208.32 87.3 219.2 87.3Z" fill="#57585E"/>
<path d="M219.199 79.9001C225.993 79.9001 231.499 74.3931 231.499 67.6C231.499 60.8069 225.993 55.3 219.199 55.3C212.406 55.3 206.899 60.8069 206.899 67.6C206.899 74.3931 212.406 79.9001 219.199 79.9001Z" fill="#424449"/>
<path d="M219.199 77.9001C224.888 77.9001 229.499 73.2886 229.499 67.6C229.499 61.9115 224.888 57.3 219.199 57.3C213.511 57.3 208.899 61.9115 208.899 67.6C208.899 73.2886 213.511 77.9001 219.199 77.9001Z" fill="#EDEDED"/>
<path d="M216.5 76.7002L217 75.5001C217.4 74.6001 217.1 73.6001 216.3 73.1001L214.9 72.1001C214.1 71.5001 213.1 71.6002 212.4 72.2002L211.4 73.0001C212.7 74.7001 214.4 76.1002 216.5 76.7002Z" fill="#32353A"/>
<path d="M213.2 66.6L213.7 64.9001C214 64.0001 213.6 63.0001 212.8 62.5001L211.7 61.8C210.5 63.4 209.7 65.4001 209.7 67.5001C209.7 67.6001 209.7 67.7 209.7 67.8L211 67.9001C212 68.1001 212.9 67.5 213.2 66.6Z" fill="#32353A"/>
<path d="M227 73.0001L226 72.2002C225.3 71.6002 224.2 71.5001 223.5 72.1001L222.1 73.1001C221.3 73.7001 221.1 74.7001 221.4 75.5001L221.9 76.7002C224 76.1002 225.8 74.7001 227 73.0001Z" fill="#32353A"/>
<path d="M226.7 61.9001L225.6 62.6001C224.8 63.1001 224.4 64.1001 224.7 65.0001L225.2 66.7001C225.5 67.6001 226.4 68.2001 227.3 68.1001L228.6 68.0001C228.6 67.9001 228.6 67.8001 228.6 67.7001C228.7 65.5001 227.9 63.5001 226.7 61.9001Z" fill="#32353A"/>
<path d="M222.1 60.0001L222.4 58.8C221.4 58.5 220.4 58.3 219.2 58.3C218.1 58.3 217 58.5 216 58.8L216.299 60.0001C216.499 60.9001 217.299 61.6 218.299 61.6H220C221 61.6 221.9 60.9001 222.1 60.0001Z" fill="#32353A"/>
<path d="M139.9 34H133.1C132.2 34 131.5 34.7 131.5 35.6V37.8C131.5 38.7 132.2 39.4 133.1 39.4H139.9C140.8 39.4 141.5 38.7 141.5 37.8V35.6C141.5 34.7 140.8 34 139.9 34Z" fill="black" fill-opacity="0.31"/>
<path d="M142.1 35.4H131C130.3 35.4 129.8 35.9 129.8 36.6C129.8 37.3 130.3 37.8 131 37.8H142.2C142.9 37.8 143.4 37.3 143.4 36.6C143.3 36 142.8 35.4 142.1 35.4Z" fill="#57585E"/>
<path d="M253.3 39.0999C253.3 38.9999 253.2 38.8 253.2 38.7H244.6C242.6 38.7 241.3 40.6999 242.1 42.4999L246.2 51.4999C246.6 52.3999 247.6 52.9999 248.6 52.9999H255.2C255.4 47.1999 254.3 42.1999 253.3 39.0999Z" fill="#EDE5A5"/>
<path d="M9.6998 32.7H4.2998V47.7999L7.6998 47.4C8.5998 47.3 9.2998 46.5999 9.4998 45.7999L11.7998 35.4C12.0998 34 11.0998 32.7 9.6998 32.7Z" fill="#DB636B"/>
<path d="M4.39941 33.8H9.79942C10.0994 33.8 10.3994 33.9001 10.5994 34.2001C10.7994 34.4001 10.8994 34.7001 10.7994 35.0001L8.49941 45.4001C8.39941 45.8001 8.09941 46.1001 7.69941 46.2001L4.49941 46.5001V33.8H4.39941Z" fill="#EDE5A5"/>
<path d="M16.8996 68.4H3.49961C1.89961 68.4 0.599609 67.1 0.599609 65.5V60.3C0.599609 58.7 1.89961 57.4 3.49961 57.4H13.8996C16.8996 57.4 19.2996 59.8 19.2996 62.8V66C19.2996 67.3 18.1996 68.4 16.8996 68.4Z" fill="black"/>
<path d="M95.9994 26.5H94.8994C94.6994 33.4 96.0994 61.9 97.8994 70.5H99.0994C97.2994 62.4 95.7994 33.1 95.9994 26.5Z" fill="black" fill-opacity="0.24"/>
<path d="M76.9995 65.2C77.5995 67.2 78.1995 68.9999 78.7995 70.5999L191.299 70.7999C191.7 69.1999 192.2 67.2999 192.7 65.2999H76.9995V65.2Z" fill="black" fill-opacity="0.17"/>
<path d="M187.5 23.9L187 24.2C194.3 37.6 188.399 61.2 187.799 63.7H126.9C127.3 59.8 126.6 31.6 126.5 28.3L129 0.599976H128.7H128.4L125.9 28.3C126.2 41.5 126.6 61.3 126.3 63.7H97.4995V64.3H188.2L188.299 64.1C188.299 63.8 195.3 38.2 187.5 23.9Z" fill="black" fill-opacity="0.32"/>
<path d="M186.699 22.5999L174.599 13.7999C165.499 7.19993 154.799 3.69995 143.499 3.69995H132.599C131.799 3.69995 131.099 4.29991 130.999 5.09991L128.599 26.4999C128.499 27.3999 129.199 28.2 130.199 28.2L184.899 28.0999C187.899 28.0999 189.099 24.2999 186.699 22.5999Z" fill="#3D3036"/>
<path d="M130.199 27.0001C129.999 27.0001 129.899 26.9001 129.899 26.9001C129.899 26.8001 129.799 26.7 129.799 26.6L132.199 5.20007C132.199 5.00007 132.399 4.80005 132.599 4.80005H143.499C154.499 4.80005 164.999 8.20007 173.899 14.7001L185.999 23.5001C186.799 24.1001 186.899 25 186.699 25.6C186.499 26.2 185.899 26.9001 184.899 26.9001L130.199 27.0001Z" fill="#695C61"/>
<path d="M123.5 3.59998H109.3C107.7 3.59998 106.5 4.90002 106.5 6.40002V25.3C106.5 26.9 107.8 28.1 109.3 28.1H121.2C122.2 28.1 123 27.3 123.1 26.4L125.4 5.70001C125.5 4.60001 124.6 3.59998 123.5 3.59998Z" fill="#3D3036"/>
<path d="M109.3 27.1C108.4 27.1 107.6 26.3001 107.6 25.4001V6.50006C107.6 5.60006 108.4 4.80005 109.3 4.80005H123.5C123.8 4.80005 124 5.00004 124.1 5.10004C124.2 5.20004 124.3 5.40007 124.3 5.70007L122 26.4001C122 26.8001 121.6 27.1 121.2 27.1H109.3Z" fill="#695C61"/>
<path d="M121.999 4.80005H120.799L115.899 27.1H117.099L121.999 4.80005Z" fill="#847A7E"/>
<path d="M108.399 26.8C108.699 27 108.999 27.1 109.299 27.1H113.799L118.699 4.80005H113.299L108.399 26.8Z" fill="#847A7E"/>
<path d="M139.299 27.0001H144.699L149.499 5.10004C147.699 4.90004 145.899 4.80005 144.099 4.80005L139.299 27.0001Z" fill="#847A7E"/>
<path d="M152.799 5.6001C152.399 5.5001 151.999 5.50015 151.599 5.40015L146.899 27.0001H148.099L152.799 5.6001Z" fill="#847A7E"/>
<path d="M183.8 32.7H181.8C180.4 32.7 179.2 31.8 178.8 30.6L177.6 27H183.8C185.3 27 186.6 28.2 186.6 29.8V29.9C186.6 31.5 185.4 32.7 183.8 32.7Z" fill="#424449"/>
<path d="M176.2 17.8V30.3H180.6C182.9 30.3 184.8 28.4 184.8 26.1V22.1C184.8 19.8 182.9 17.9001 180.6 17.9001H176.2V17.8Z" fill="#57585E"/>
<path d="M180.6 17.8H176.2V30.3H180.6V17.8Z" fill="#717175"/>
<path d="M179 19.6001H177.3C177 19.6001 176.8 19.4001 176.8 19.1001C176.8 18.8001 177 18.6001 177.3 18.6001H179C179.3 18.6001 179.5 18.8001 179.5 19.1001C179.6 19.3001 179.3 19.6001 179 19.6001Z" fill="#9A9B9E"/>
<path d="M255.6 54.1H239.3C240.8 58.4 242.5 63.3 242.5 63.5C242.5 63.7 242.9 66.6 243.1 68.9C244.9 68.6 254 67.1 254 67.1C256.9 66.7 259 64.2 259 61.3V57.4C258.9 55.5 257.4 54.1 255.6 54.1Z" fill="black" fill-opacity="0.26"/>
<path d="M241.7 61.2C242.1 62.5 242.4 63.3999 242.4 63.4999C242.4 63.6999 242.8 66.6 243 68.9C244.8 68.6 253.9 67.0999 253.9 67.0999C256.8 66.6999 258.9 64.1999 258.9 61.2999V59.7L241.7 61.2Z" fill="#32353A"/>
<path d="M74.3998 50.5C72.2998 43.4 65.5998 38.4 58.1998 38.4H44.0998C36.5998 38.4 29.9998 43.4 27.8998 50.6L23.2998 66.3L26.7998 66.6L31.1998 51.6C32.8998 45.9 38.0998 42 44.0998 42H58.1998C64.0998 42 69.3998 45.9 70.9998 51.6L76.7998 70.6L80.4998 70.7L74.3998 50.5Z" fill="black"/>
<path d="M236.6 44.2C231.9 40.5 221.5 39.2 214 39.2C205.5 39.2 200 40.6 197.9 43.4C194.6 47.8 190.9 60.5999 189.3 70.5999L192.8 70.7C194.4 60.9 197.9 49.0999 200.6 45.4999C203.9 41.0999 228.1 41.9 234.4 46.9C239.3 50.7 241.1 63.2999 241.6 68.7999C242.8 68.5999 243.9 68.4 245.1 68.2C244.6 61.9 242.6 48.9 236.6 44.2Z" fill="black"/>
<path d="M118.2 34H98.1995C97.7995 34 97.4995 34.3 97.4995 34.7C97.4995 35.1 97.7995 35.4 98.1995 35.4H118.2C118.6 35.4 118.9 35.1 118.9 34.7C118.9 34.3 118.6 34 118.2 34Z" fill="black" fill-opacity="0.27"/>
<path d="M91.5994 34H71.5994C71.1994 34 70.8994 34.3 70.8994 34.7C70.8994 35.1 71.1994 35.4 71.5994 35.4H91.5994C91.9994 35.4 92.2994 35.1 92.2994 34.7C92.2994 34.3 91.9994 34 91.5994 34Z" fill="black" fill-opacity="0.5"/>
<path d="M167 34H147C146.6 34 146.3 34.3 146.3 34.7C146.3 35.1 146.6 35.4 147 35.4H167C167.4 35.4 167.7 35.1 167.7 34.7C167.7 34.3 167.4 34 167 34Z" fill="black" fill-opacity="0.33"/>
<path d="M8.39941 35.2H6.19941C5.79941 35.2 5.39941 35.5999 5.39941 35.9999C5.39941 36.3999 5.79941 36.7999 6.19941 36.7999H8.39941C8.79941 36.7999 9.19941 36.3999 9.19941 35.9999C9.19941 35.4999 8.89941 35.2 8.39941 35.2Z" fill="#EDEDED"/>
<path d="M250.2 39.3H244.299C243.899 39.3 243.5 39.7 243.5 40.1C243.5 40.5 243.899 40.9001 244.299 40.9001H250.2C250.6 40.9001 251 40.5 251 40.1C251 39.7 250.6 39.3 250.2 39.3Z" fill="#EDEDED"/>
</svg>
