<svg width="260" height="76" viewBox="0 0 260 76" fill="none" xmlns="http://www.w3.org/2000/svg">
<path d="M39.8999 17.3999C42.5999 15.4999 51.7999 14.1 60.7999 13.7C63.8999 13.5 67.0999 14.3999 69.4999 16.2999C70.5999 17.0999 71.8999 17.3999 71.8999 17.3999L97.7999 25.2999C97.7999 25.2999 55.5999 24.5999 55.0999 24.4999C54.3999 24.3999 39.8999 17.3999 39.8999 17.3999Z" fill="#F26F75"/>
<path d="M107.7 16.6999C107 12.7999 103.3 10.2999 99.3998 10.9999C98.1998 11.1999 97.3997 12.3999 97.5997 13.5999L100.7 30.3999L109.8 28.6999L107.7 16.6999Z" fill="#F26F75"/>
<path d="M59.3 67.3999H201.5H252.6C256.5 67.3999 259.6 64.1999 259.6 60.3999V48.5999C259.6 44.4999 257.3 40.7999 253.7 38.8999C243 33.2999 218.3 22.6999 182.7 20.8999C182.7 20.8999 148.5 1.1999 137.1 0.899902C137.1 0.899902 137 0.899908 137 0.999908C133.7 2.99991 133.8 7.79992 137.1 9.69992C144.5 14.1999 157.6 22.1999 159.4 24.1999C145.3 24.1999 109.2 24.1999 101.9 24.1999C94.6 24.1999 57.1 21.0999 40.3 13.7999C32.8 13.7999 16.5999 19.7999 9.09991 25.5999C5.79991 25.5999 5.69993 25.5999 3.99993 25.5999C2.29993 25.5999 1.09993 30.2999 3.99993 33.2999C6.89993 36.2999 1.59993 36.7999 0.999933 39.5999C0.599933 41.3999 1.09996 51.0999 1.39996 57.6999C1.59996 61.1999 4.39996 63.9999 7.89996 64.1999L49.9 66.6999L59.3 67.3999Z" fill="#EDE5A5"/>
<path d="M193 61.4998C183.4 62.2998 46.1998 56.8999 0.899781 40.5999C0.699781 43.6999 1.09978 51.8999 1.39978 57.6999C1.59978 61.1999 4.39978 63.9999 7.89978 64.1999L49.8998 66.6999L59.0997 67.4998H196.1L193 61.4998Z" fill="black" fill-opacity="0.17"/>
<path d="M237.6 57.4999V67.4999H234.8V57.4999C234.8 44.7999 224.5 34.4999 211.8 34.4999C199.1 34.4999 188.8 44.7999 188.8 57.4999V67.4999H186V57.4999C186 43.2999 197.6 31.7999 211.7 31.7999C226 31.6999 237.6 43.2999 237.6 57.4999ZM70.8998 67.3999V57.3999C70.8998 43.1999 59.3997 31.7 45.1997 31.7C30.9997 31.7 19.4998 43.2999 19.4998 57.3999V64.7999L22.2998 64.9999V57.4999C22.2998 44.7999 32.5998 34.4999 45.2998 34.4999C57.9998 34.4999 68.2998 44.7999 68.2998 57.4999V67.4999H70.8998V67.3999Z" fill="black" fill-opacity="0.1"/>
<path d="M211.8 34.4999C199.1 34.4999 188.8 44.7999 188.8 57.4999V67.4999H201.5H234.8V57.4999C234.8 44.7999 224.5 34.4999 211.8 34.4999Z" fill="#181A1C"/>
<path d="M45.0996 34.4999C32.3996 34.4999 22.0996 44.7999 22.0996 57.4999V64.9999L49.9996 66.5999L59.1996 67.3999H67.9996V57.3999C68.0996 44.7999 57.7996 34.4999 45.0996 34.4999Z" fill="#181A1C"/>
<path d="M45.0996 75.8999C55.8692 75.8999 64.5996 67.1695 64.5996 56.3999C64.5996 45.6304 55.8692 36.8999 45.0996 36.8999C34.3301 36.8999 25.5996 45.6304 25.5996 56.3999C25.5996 67.1695 34.3301 75.8999 45.0996 75.8999Z" fill="#424449"/>
<path d="M45.0996 72.0999C53.7705 72.0999 60.7997 65.0708 60.7997 56.3999C60.7997 47.7291 53.7705 40.7 45.0996 40.7C36.4287 40.7 29.3997 47.7291 29.3997 56.3999C29.3997 65.0708 36.4287 72.0999 45.0996 72.0999Z" fill="#F4F4F4"/>
<path d="M40.9996 56.7999C41.3996 56.7999 41.7997 56.5999 41.7997 56.1999C41.8997 55.7999 41.5996 55.3999 41.1996 55.2999L31.2997 52.8999C31.0997 53.7999 30.8997 54.7999 30.8997 55.7999L40.9996 56.7999Z" fill="#32353A"/>
<path d="M41.9998 59.4C42.2998 59.2 42.3997 58.7 42.1997 58.4C41.9997 58 41.5997 57.9 41.1997 58.1L32.1997 62.5C32.5997 63.4 33.0997 64.2 33.6997 65L41.9998 59.4Z" fill="#32353A"/>
<path d="M41.8998 54.0999C42.1998 54.3999 42.5998 54.4 42.9998 54.2C43.2998 53.9 43.3997 53.5 43.0997 53.2L36.9998 44.7999C36.1998 45.3999 35.3998 46 34.7998 46.7L41.8998 54.0999Z" fill="#32353A"/>
<path d="M41.6996 70.2L44.3997 60.7C44.4997 60.3 44.2997 59.9 43.8997 59.8C43.4997 59.7 43.0997 59.8 42.8997 60.2L38.8997 69.2C39.8997 69.7 40.7996 70 41.6996 70.2Z" fill="#32353A"/>
<path d="M48.8998 55.2C48.4998 55.3 48.2998 55.6999 48.2998 56.0999C48.3998 56.4999 48.6997 56.8 49.0997 56.7L59.1997 55.5999C59.0997 54.5999 58.9998 53.6 58.7998 52.7L48.8998 55.2Z" fill="#32353A"/>
<path d="M47.1996 60.1999C46.9996 59.7999 46.5996 59.5999 46.1996 59.7999C45.7996 59.8999 45.5996 60.2999 45.6996 60.6999L48.3996 70.1999C49.2996 69.9999 50.1996 69.5999 51.0996 69.1999L47.1996 60.1999Z" fill="#32353A"/>
<path d="M45.8997 52.7L46.5996 42.2999C46.0996 42.2999 45.5996 42.2 45.0996 42.2C44.5996 42.2 44.0996 42.1999 43.5996 42.2999L44.2997 52.7C44.2997 53.1 44.6996 53.3999 45.0996 53.3999C45.4996 53.3999 45.7997 53.1 45.8997 52.7Z" fill="#32353A"/>
<path d="M57.9996 62.4999L48.9996 58.0999C48.5996 57.8999 48.1996 58.0999 47.9996 58.3999C47.7996 58.7999 47.8995 59.1999 48.1995 59.3999L56.4996 64.9999C57.0996 64.1999 57.5996 63.2999 57.9996 62.4999Z" fill="#32353A"/>
<path d="M47.1996 54.2C47.4996 54.5 47.9997 54.3999 48.2997 54.0999L55.4997 46.7C54.7997 46 54.0997 45.2999 53.2997 44.7999L47.1996 53.2C46.8996 53.4 46.8996 53.9 47.1996 54.2Z" fill="#32353A"/>
<path d="M45.0994 57.7999C45.7621 57.7999 46.2994 57.2627 46.2994 56.5999C46.2994 55.9372 45.7621 55.3999 45.0994 55.3999C44.4366 55.3999 43.8994 55.9372 43.8994 56.5999C43.8994 57.2627 44.4366 57.7999 45.0994 57.7999Z" fill="#57585E"/>
<path d="M45.0995 58.9999C45.2652 58.9999 45.3995 58.8656 45.3995 58.6999C45.3995 58.5342 45.2652 58.3999 45.0995 58.3999C44.9338 58.3999 44.7996 58.5342 44.7996 58.6999C44.7996 58.8656 44.9338 58.9999 45.0995 58.9999Z" fill="#57585E"/>
<path d="M43.2265 57.4875C43.3841 57.4363 43.4704 57.2671 43.4192 57.1095C43.368 56.9519 43.1987 56.8656 43.0411 56.9168C42.8835 56.968 42.7974 57.1373 42.8486 57.2949C42.8998 57.4525 43.0689 57.5387 43.2265 57.4875Z" fill="#57585E"/>
<path d="M44.0481 55.0822C44.1821 54.9848 44.2117 54.7973 44.1143 54.6632C44.017 54.5292 43.8294 54.4994 43.6954 54.5968C43.5613 54.6942 43.5316 54.8818 43.629 55.0159C43.7264 55.1499 43.914 55.1796 44.0481 55.0822Z" fill="#57585E"/>
<path d="M46.5749 55.1511C46.6722 55.017 46.6425 54.8295 46.5084 54.7321C46.3744 54.6347 46.1868 54.6644 46.0895 54.7984C45.9921 54.9324 46.0217 55.1201 46.1558 55.2175C46.2898 55.3149 46.4775 55.2851 46.5749 55.1511Z" fill="#57585E"/>
<path d="M47.388 57.3247C47.4392 57.1672 47.353 56.9979 47.1954 56.9466C47.0379 56.8954 46.8686 56.9816 46.8173 57.1392C46.7661 57.2968 46.8524 57.466 47.0099 57.5172C47.1675 57.5684 47.3367 57.4823 47.388 57.3247Z" fill="#57585E"/>
<path d="M211.8 75.8999C222.569 75.8999 231.3 67.1695 231.3 56.3999C231.3 45.6304 222.569 36.8999 211.8 36.8999C201.03 36.8999 192.3 45.6304 192.3 56.3999C192.3 67.1695 201.03 75.8999 211.8 75.8999Z" fill="#424449"/>
<path d="M211.8 72.0999C220.471 72.0999 227.5 65.0708 227.5 56.3999C227.5 47.7291 220.471 40.7 211.8 40.7C203.129 40.7 196.1 47.7291 196.1 56.3999C196.1 65.0708 203.129 72.0999 211.8 72.0999Z" fill="#F4F4F4"/>
<path d="M207.7 56.7999C208.1 56.7999 208.5 56.5999 208.5 56.1999C208.6 55.7999 208.3 55.3999 207.9 55.2999L198 52.8999C197.8 53.7999 197.6 54.7999 197.6 55.7999L207.7 56.7999Z" fill="#32353A"/>
<path d="M208.7 59.4C209 59.2 209.1 58.7 208.9 58.4C208.7 58 208.3 57.9 207.9 58.1L198.9 62.5C199.3 63.4 199.8 64.2 200.4 65L208.7 59.4Z" fill="#32353A"/>
<path d="M208.7 54.0999C209 54.3999 209.4 54.4 209.8 54.2C210.1 53.9 210.2 53.5 209.9 53.2L203.8 44.7999C203 45.3999 202.2 46 201.6 46.7L208.7 54.0999Z" fill="#32353A"/>
<path d="M208.5 70.2L211.2 60.7C211.3 60.3 211.1 59.9 210.7 59.8C210.3 59.7 209.9 59.8 209.7 60.2L205.7 69.2C206.6 69.7 207.5 70 208.5 70.2Z" fill="#32353A"/>
<path d="M215.7 55.2C215.3 55.3 215.1 55.6999 215.1 56.0999C215.2 56.4999 215.5 56.8 215.9 56.7L226 55.5999C225.9 54.5999 225.8 53.6 225.6 52.7L215.7 55.2Z" fill="#32353A"/>
<path d="M213.9 60.1999C213.7 59.7999 213.3 59.5999 212.9 59.7999C212.5 59.8999 212.3 60.2999 212.4 60.6999L215.099 70.1999C215.999 69.9999 216.9 69.5999 217.8 69.1999L213.9 60.1999Z" fill="#32353A"/>
<path d="M212.6 52.7L213.3 42.2999C212.8 42.2999 212.3 42.2 211.8 42.2C211.3 42.2 210.8 42.1999 210.3 42.2999L211 52.7C211 53.1 211.4 53.3999 211.8 53.3999C212.2 53.3999 212.6 53.1 212.6 52.7Z" fill="#32353A"/>
<path d="M224.7 62.4999L215.7 58.0999C215.3 57.8999 214.9 58.0999 214.7 58.3999C214.5 58.7999 214.6 59.1999 214.9 59.3999L223.2 64.9999C223.8 64.1999 224.3 63.2999 224.7 62.4999Z" fill="#32353A"/>
<path d="M214 54.2C214.3 54.5 214.8 54.3999 215.1 54.0999L222.3 46.7C221.6 46 220.9 45.2999 220.1 44.7999L214 53.2C213.6 53.4 213.7 53.9 214 54.2Z" fill="#32353A"/>
<path d="M211.8 57.7999C212.462 57.7999 213 57.2627 213 56.5999C213 55.9372 212.462 55.3999 211.8 55.3999C211.137 55.3999 210.6 55.9372 210.6 56.5999C210.6 57.2627 211.137 57.7999 211.8 57.7999Z" fill="#57585E"/>
<path d="M211.8 58.9999C211.965 58.9999 212.099 58.8656 212.099 58.6999C212.099 58.5342 211.965 58.3999 211.8 58.3999C211.634 58.3999 211.5 58.5342 211.5 58.6999C211.5 58.8656 211.634 58.9999 211.8 58.9999Z" fill="#57585E"/>
<path d="M210.029 57.4649C210.186 57.4137 210.273 57.2445 210.221 57.0869C210.17 56.9293 210.001 56.843 209.843 56.8942C209.686 56.9454 209.6 57.1147 209.651 57.2723C209.702 57.4299 209.871 57.5161 210.029 57.4649Z" fill="#57585E"/>
<path d="M210.838 55.1202C210.972 55.0228 211.002 54.8352 210.904 54.7011C210.807 54.5671 210.619 54.5374 210.485 54.6348C210.351 54.7322 210.322 54.9198 210.419 55.0538C210.516 55.1879 210.704 55.2176 210.838 55.1202Z" fill="#57585E"/>
<path d="M213.388 55.0215C213.486 54.8874 213.456 54.6998 213.322 54.6024C213.188 54.505 213 54.5347 212.903 54.6687C212.805 54.8028 212.835 54.9903 212.969 55.0877C213.103 55.1851 213.291 55.1555 213.388 55.0215Z" fill="#57585E"/>
<path d="M214.045 57.3574C214.096 57.1998 214.01 57.0306 213.853 56.9794C213.695 56.9282 213.526 57.0144 213.475 57.1719C213.423 57.3295 213.51 57.4988 213.667 57.55C213.825 57.6012 213.994 57.515 214.045 57.3574Z" fill="#57585E"/>
<path d="M162.2 22.3999C163.9 23.2999 175 23.4 182.6 20.7C180.5 19.5 153.9 4.39993 140.8 1.29993C139.4 2.89993 137.8 5.09993 139 6.79993C140.6 9.19993 157.7 19.4999 162.2 22.3999Z" fill="#629ABF"/>
<path d="M156.9 24.0999L159 26.3998C159.6 27.0998 159.1 28.1999 158.2 28.1999H155.1C154.8 28.1999 154.5 28.0998 154.3 27.7998L151.5 24.5999L156.9 24.0999Z" fill="#424449"/>
<path d="M145.4 21.6999V23.3998C145.4 24.6998 146.5 25.7998 147.8 25.7998H155.7C157.2 25.7998 158.3 24.5999 158.3 23.1999C158.3 22.1999 157.8 21.2999 157 20.6999L153.9 18.3998C153 17.7998 151.9 17.5999 150.9 17.9999L146.9 19.4999C146 19.8999 145.4 20.7999 145.4 21.6999Z" fill="#F4EBC0"/>
<path d="M157 20.5999L153.9 18.2999C153 17.6999 151.9 17.4999 150.9 17.8999L149.4 18.4999L152.3 20.5999C153.1 21.1999 153.6 22.0999 153.6 23.0999C153.6 24.5999 152.4 25.6999 151 25.6999H155.7C157.2 25.6999 158.3 24.4999 158.3 23.0999C158.3 22.1999 157.8 21.1999 157 20.5999Z" fill="#D3C888"/>
<path d="M13.3997 39.6999C13.7997 39.6999 14.1997 39.4999 14.3997 39.1999L20.2997 32.0999C20.9997 31.2999 20.3997 29.9999 19.2997 29.9999H2.39966C2.59966 31.0999 3.09961 32.2999 4.09961 33.2999C6.99961 36.2999 1.69961 36.7999 1.09961 39.5999V39.6999H13.3997Z" fill="#C65D67"/>
<path d="M19.4996 31.1999C19.4996 31.0999 19.3997 31.0999 19.3997 31.0999H2.79968C3.09968 31.7999 3.49961 32.5999 4.09961 33.1999C6.59961 35.7999 2.99961 36.4998 1.59961 38.3998H13.4996H13.5996L19.4996 31.2998C19.4996 31.2998 19.4996 31.2999 19.4996 31.1999Z" fill="#F26F75"/>
<path d="M13.0996 31.7H5.99963C5.49963 31.7 5.09961 32.0999 5.09961 32.5999C5.09961 33.0999 5.49963 33.4999 5.99963 33.4999H13.0996C13.5996 33.4999 13.9996 33.0999 13.9996 32.5999C13.8996 32.0999 13.4996 31.7 13.0996 31.7Z" fill="#FCD9DC"/>
<path d="M164.2 33.3999C164.2 27.1999 160.8 24.7999 158.3 22.9999C158.2 22.9999 158.2 22.8999 158.1 22.8999C158.7 23.3999 159.2 23.7999 159.5 24.0999C159.2 24.0999 158.8 24.0999 158.4 24.0999C160.8 25.7999 163.4 27.9999 163.4 33.3999V61.7999H108.3C102.3 61.7999 96.9997 57.6999 95.3997 51.8999L91.3997 36.9999C90.9997 35.3999 91.1997 33.6999 92.0997 32.2999L94.8997 27.8999C95.5997 26.7999 95.9997 25.5999 95.9997 24.2999V23.7999C95.6997 23.7999 95.4997 23.7999 95.1997 23.6999V24.1999C95.1997 25.2999 94.8998 26.3999 94.2998 27.3999L91.4997 31.7999C90.4997 33.3999 90.1997 35.2999 90.6997 37.0999L94.6997 51.9999C96.3997 58.1999 102 62.4999 108.4 62.4999H188.9V61.6999H164.3V33.3999H164.2Z" fill="#C6BA7D"/>
<path d="M259.7 60.3999V53.4999C257 53.4999 253 53.4999 250.8 53.4999C249.8 53.4999 248.8 53.9999 248.2 54.8999L245.4 59.3999C244.1 61.3999 245.6 64.0999 248 64.0999H258.6C259.3 63.0999 259.7 61.7999 259.7 60.3999Z" fill="#D3C888"/>
<path d="M248.2 55L245.4 59.5C244.1 61.5 245.6 64.2 248 64.2H251.1C251.9 62.6 252.3 60.9 252.3 59.1C252.3 57.1 251.8 55.3 250.9 53.6H250.8C249.7 53.5 248.8 54.1 248.2 55Z" fill="#A09356"/>
<path d="M255.6 41.7999C252.6 39.3999 248 37.4999 242 36.2999C241.1 36.0999 240.4 36.9999 240.7 37.7999L243.7 45.5999C244 46.3999 244.6 46.8999 245.4 47.0999L253.1 48.9999C255 49.4999 256.8 48.0999 256.8 46.0999V44.0999C256.6 43.1999 256.2 42.2999 255.6 41.7999Z" fill="#EDEDEB"/>
<path d="M241.9 40.9999L243.6 45.4999C243.9 46.2999 244.5 46.7999 245.3 46.9999L250.7 48.3999C247.4 43.1999 244.7 41.4999 241.9 40.9999Z" fill="#F26F75"/>
<path d="M40.3998 13.7999C35.7998 13.7999 27.6998 16.0999 20.4998 19.2999C22.8998 22.1999 34.1997 24.7999 70.0997 20.9999C59.0997 19.2999 47.6998 16.8999 40.3998 13.7999Z" fill="#F7EFC4"/>
<path d="M103.4 33.7C106.879 33.7 109.7 32.8045 109.7 31.7C109.7 30.5954 106.879 29.7 103.4 29.7C99.9203 29.7 97.0996 30.5954 97.0996 31.7C97.0996 32.8045 99.9203 33.7 103.4 33.7Z" fill="#E1D599"/>
<path d="M107.6 30.5999H99.1996C98.5996 30.5999 98.0996 31.0999 98.0996 31.6999C98.0996 32.2999 98.5996 32.7998 99.1996 32.7998H107.6C108.2 32.7998 108.7 32.2999 108.7 31.6999C108.7 31.0999 108.2 30.5999 107.6 30.5999Z" fill="#424449"/>
<path d="M142.3 25.7999H101.1C100.4 25.7999 99.8999 26.2999 99.8999 26.9999C99.8999 27.6999 100.4 28.2 101.1 28.2H142.3C143 28.2 143.5 27.6999 143.5 26.9999C143.5 26.2999 143 25.7999 142.3 25.7999Z" fill="#F7EFC4"/>
</svg>
