<svg width="260" height="98" viewBox="0 0 260 98" fill="none" xmlns="http://www.w3.org/2000/svg">
<path d="M80.3998 76.2L78.6998 80.3999C77.5998 82.9999 75.5998 84.5999 73.2998 84.5999H33.8998L27.2998 74.7L80.3998 76.2Z" fill="#181A1C"/>
<path d="M197.6 76.2L199.3 80.3999C200.3 82.9999 202.3 84.5999 204.5 84.5999H242.4L248.8 74.7L197.6 76.2Z" fill="#181A1C"/>
<path d="M32.7999 78.7999H247.1H247.6C254.9 78.7999 260.4 72.0999 259 64.9999L256.4 51.4999C254.5 41.5999 246.3 33.9999 236.3 32.7999L197 27.8999L163.3 8.39993C154.1 3.09993 143.7 0.299927 133 0.299927H26.2999C23.8999 0.299927 21.5999 1.59995 20.3999 3.69995L6.79987 27.7999C5.99987 29.2999 5.49988 30.8999 5.49988 32.5999V41.7999C5.49988 43.4999 4.99989 45.2 4.19989 46.7L1.69989 50.9999C0.79989 52.4999 0.399902 54.1999 0.399902 55.8999V64.2999C0.399902 68.8999 3.59989 72.8999 8.19989 73.7999L32.7999 78.7999Z" fill="#89B5E1"/>
<path d="M32.7999 78.7999H247.1H247.6C254.9 78.7999 260.4 72.0999 259 64.9999L256.4 51.4999C254.5 41.5999 246.3 33.9999 236.3 32.7999L197 27.8999L163.3 8.39993C154.1 3.09993 146.1 0.299927 133 0.299927H26.2999C23.8999 0.299927 21.5999 1.59995 20.3999 3.69995L6.79987 27.7999C5.99987 29.2999 5.49988 30.8999 5.49988 32.5999V41.7999C5.49988 43.4999 4.99989 45.2 4.19989 46.7L1.69989 50.9999C0.79989 52.4999 0.399902 54.1999 0.399902 55.8999V64.2999C0.399902 68.8999 3.59989 72.8999 8.19989 73.7999L32.7999 78.7999Z" fill="#460E40"/>
<path d="M258.9 64.9999L257.3 56.7H235.1V78.7999H247.1H247.6C254.8 78.7999 260.3 72.1999 258.9 64.9999Z" fill="black" fill-opacity="0.3"/>
<path d="M244.5 73.8999H201.2H50.3999L11.7999 67.5999C10.0999 67.2999 8.8999 65.9 8.8999 64.2C8.8999 62.3 7.39988 60.7999 5.49988 60.7999H0.399902V64.0999C0.399902 68.6999 3.59989 72.6999 8.19989 73.5999L32.7999 78.7999H247.1H247.6C251.6 78.7999 255 76.7999 257.1 73.8999H244.5Z" fill="#57585E"/>
<path d="M249.1 64.7999L241.4 54.4999L233.4 49.9999L224.1 48.2L215.7 49.5999L209.9 52.8999L203.8 56.7L200.2 61.9999L197.6 65.5999L196.8 68.9999L195.4 78.8999H247H247.5C249.4 78.8999 249.9 77.8999 251.5 77.0999C251.6 76.1999 251.6 75.5999 251.4 75.2999C250.4 74.3999 249.1 64.7999 249.1 64.7999Z" fill="black" fill-opacity="0.15"/>
<path d="M23.5 76.8999L32.7 78.7999H83.6L82.1 68.2C82.1 68.2 76.4 55.9999 75.7 55.7999C75.1 55.5999 65.7 49.1999 65 48.9999C64.4 48.7999 48.5 47.2 48.5 47.2L33.9 53.5999L27.1 62.0999L24.4 71.0999L23.5 76.8999Z" fill="black" fill-opacity="0.22"/>
<path d="M53.5998 97.8999C66.468 97.8999 76.8998 87.4682 76.8998 74.5999C76.8998 61.7317 66.468 51.2999 53.5998 51.2999C40.7316 51.2999 30.2998 61.7317 30.2998 74.5999C30.2998 87.4682 40.7316 97.8999 53.5998 97.8999Z" fill="#57585E"/>
<path d="M53.5997 92.4999C63.4856 92.4999 71.4997 84.4858 71.4997 74.5999C71.4997 64.714 63.4856 56.7 53.5997 56.7C43.7138 56.7 35.6997 64.714 35.6997 74.5999C35.6997 84.4858 43.7138 92.4999 53.5997 92.4999Z" fill="#424449"/>
<path d="M53.5997 90.2C62.2154 90.2 69.1998 83.2156 69.1998 74.6C69.1998 65.9844 62.2154 59 53.5997 59C44.9841 59 37.9998 65.9844 37.9998 74.6C37.9998 83.2156 44.9841 90.2 53.5997 90.2Z" fill="#EDEDED"/>
<path d="M50.3998 79.2001L50.1998 79.1001C49.5998 78.7001 48.7998 78.8001 48.3998 79.3001L43.7998 84.2001C44.8998 85.3001 46.0998 86.2001 47.4998 86.9001L50.7998 81.0001C51.0998 80.4001 50.8998 79.6001 50.3998 79.2001Z" fill="#32353A"/>
<path d="M58.8998 79.3001C58.3998 78.8001 57.5997 78.7001 57.0997 79.1001L56.8998 79.2001C56.2998 79.6001 56.1997 80.4001 56.4997 81.0001L59.7997 86.9001C61.1997 86.2001 62.3997 85.3001 63.4997 84.2001L58.8998 79.3001Z" fill="#32353A"/>
<path d="M39.9998 72.5001L46.5997 73.8C47.2997 73.9 47.9998 73.5001 48.1998 72.9001L48.2997 72.7001C48.4997 72.0001 48.1997 71.3001 47.5997 71.0001L41.4998 68.2001C40.6998 69.5001 40.1998 71.0001 39.9998 72.5001Z" fill="#32353A"/>
<path d="M55.0998 67.7001L55.8998 61.0001C55.1998 60.9001 54.3998 60.8 53.5998 60.8C52.7998 60.8 52.0998 60.9001 51.2998 61.0001L52.0998 67.7001C52.1998 68.4001 52.7998 68.9001 53.4998 68.9001H53.6998C54.3998 68.9001 54.9998 68.4001 55.0998 67.7001Z" fill="#32353A"/>
<path d="M59.6997 71.0001C59.0997 71.3001 58.6997 72.0001 58.9997 72.7001L59.0997 72.9001C59.2997 73.6001 59.9997 74.0001 60.6997 73.8001L67.2997 72.5001C67.0997 70.9001 66.5997 69.5001 65.8997 68.1001L59.6997 71.0001Z" fill="#32353A"/>
<path d="M53.5997 76.0999C54.649 76.0999 55.4997 75.2493 55.4997 74.2C55.4997 73.1506 54.649 72.2999 53.5997 72.2999C52.5503 72.2999 51.6997 73.1506 51.6997 74.2C51.6997 75.2493 52.5503 76.0999 53.5997 76.0999Z" fill="#847A7E"/>
<path d="M53.5997 78.2C53.9311 78.2 54.1998 77.9314 54.1998 77.6C54.1998 77.2686 53.9311 77 53.5997 77C53.2684 77 52.9998 77.2686 52.9998 77.6C52.9998 77.9314 53.2684 78.2 53.5997 78.2Z" fill="#847A7E"/>
<path d="M50.6139 75.8899C50.929 75.7875 51.1015 75.449 50.9991 75.1338C50.8967 74.8186 50.5582 74.6462 50.2431 74.7485C49.9279 74.8509 49.7554 75.1894 49.8578 75.5046C49.9601 75.8198 50.2987 75.9922 50.6139 75.8899Z" fill="#847A7E"/>
<path d="M51.9839 72.0152C52.252 71.8204 52.3115 71.4452 52.1168 71.1771C51.922 70.909 51.5468 70.8495 51.2787 71.0442C51.0105 71.239 50.9511 71.6142 51.1458 71.8823C51.3406 72.1504 51.7158 72.2099 51.9839 72.0152Z" fill="#847A7E"/>
<path d="M56.1135 71.8783C56.3083 71.6102 56.2489 71.235 55.9808 71.0402C55.7127 70.8454 55.3375 70.9049 55.1427 71.1729C54.9479 71.441 55.0074 71.8162 55.2754 72.011C55.5435 72.2058 55.9187 72.1464 56.1135 71.8783Z" fill="#847A7E"/>
<path d="M57.3529 75.5285C57.4553 75.2134 57.2829 74.8748 56.9677 74.7725C56.6526 74.6701 56.3142 74.8426 56.2118 75.1577C56.1094 75.4728 56.2818 75.8113 56.5969 75.9137C56.9121 76.0161 57.2505 75.8436 57.3529 75.5285Z" fill="#847A7E"/>
<path d="M223.5 97.8999C236.368 97.8999 246.8 87.4682 246.8 74.5999C246.8 61.7317 236.368 51.2999 223.5 51.2999C210.632 51.2999 200.2 61.7317 200.2 74.5999C200.2 87.4682 210.632 97.8999 223.5 97.8999Z" fill="#57585E"/>
<path d="M223.5 92.4999C233.386 92.4999 241.4 84.4858 241.4 74.5999C241.4 64.714 233.386 56.7 223.5 56.7C213.614 56.7 205.6 64.714 205.6 74.5999C205.6 84.4858 213.614 92.4999 223.5 92.4999Z" fill="#424449"/>
<path d="M223.5 90.2C232.116 90.2 239.1 83.2156 239.1 74.6C239.1 65.9844 232.116 59 223.5 59C214.884 59 207.9 65.9844 207.9 74.6C207.9 83.2156 214.884 90.2 223.5 90.2Z" fill="#EDEDED"/>
<path d="M220.3 79.2001L220.1 79.1001C219.5 78.7001 218.7 78.8001 218.3 79.3001L213.7 84.2001C214.8 85.3001 216 86.2001 217.4 86.9001L220.7 81.0001C221 80.4001 220.9 79.6001 220.3 79.2001Z" fill="#32353A"/>
<path d="M228.8 79.3001C228.3 78.8001 227.5 78.7001 227 79.1001L226.8 79.2001C226.2 79.6001 226.1 80.4001 226.4 81.0001L229.7 86.9001C231.1 86.2001 232.3 85.3001 233.4 84.2001L228.8 79.3001Z" fill="#32353A"/>
<path d="M209.9 72.5001L216.5 73.8C217.2 73.9 217.9 73.5001 218.1 72.9001L218.2 72.7001C218.4 72.0001 218.1 71.3001 217.5 71.0001L211.4 68.2001C210.6 69.5001 210.1 71.0001 209.9 72.5001Z" fill="#32353A"/>
<path d="M225 67.7001L225.8 61.0001C225.1 60.9001 224.3 60.8 223.5 60.8C222.7 60.8 222 60.9001 221.2 61.0001L222 67.7001C222.1 68.4001 222.7 68.9001 223.4 68.9001H223.6C224.3 68.9001 224.9 68.4001 225 67.7001Z" fill="#32353A"/>
<path d="M229.6 71.0001C229 71.3001 228.6 72.0001 228.9 72.7001L229 72.9001C229.2 73.6001 229.9 74.0001 230.6 73.8001L237.2 72.5001C237 70.9001 236.5 69.5001 235.8 68.1001L229.6 71.0001Z" fill="#32353A"/>
<path d="M223.5 76.1001C224.549 76.1001 225.4 75.2494 225.4 74.2001C225.4 73.1507 224.549 72.3 223.5 72.3C222.45 72.3 221.6 73.1507 221.6 74.2001C221.6 75.2494 222.45 76.1001 223.5 76.1001Z" fill="#847A7E"/>
<path d="M223.5 78.2C223.831 78.2 224.1 77.9314 224.1 77.6C224.1 77.2686 223.831 77 223.5 77C223.169 77 222.9 77.2686 222.9 77.6C222.9 77.9314 223.169 78.2 223.5 78.2Z" fill="#847A7E"/>
<path d="M220.426 75.8915C220.741 75.7891 220.914 75.4506 220.811 75.1354C220.709 74.8203 220.371 74.6479 220.055 74.7503C219.74 74.8527 219.568 75.1911 219.67 75.5062C219.773 75.8214 220.111 75.9939 220.426 75.8915Z" fill="#847A7E"/>
<path d="M221.858 71.9758C222.127 71.781 222.186 71.4058 221.991 71.1377C221.796 70.8697 221.421 70.8102 221.153 71.005C220.885 71.1998 220.826 71.575 221.02 71.8431C221.215 72.1111 221.59 72.1706 221.858 71.9758Z" fill="#847A7E"/>
<path d="M226.031 71.9081C226.226 71.64 226.167 71.2648 225.899 71.07C225.631 70.8753 225.255 70.9347 225.061 71.2027C224.866 71.4708 224.925 71.846 225.193 72.0408C225.461 72.2356 225.837 72.1762 226.031 71.9081Z" fill="#847A7E"/>
<path d="M227.297 75.4706C227.4 75.1555 227.227 74.817 226.912 74.7146C226.597 74.6122 226.258 74.7847 226.156 75.0998C226.054 75.415 226.226 75.7534 226.541 75.8558C226.856 75.9582 227.195 75.7858 227.297 75.4706Z" fill="#847A7E"/>
<path d="M252.5 74.4C251.6 59.1 238.9 47.1 223.6 47.1C208.3 47.1 195.6 59 194.7 74.4L194.4 78.8H197.1L197.4 74.5C198.2 60.7 209.7 49.8 223.6 49.8C237.5 49.8 249 60.6 249.8 74.5L250 78.5C250.9 78.3 251.8 78 252.7 77.6L252.5 74.4Z" fill="black" fill-opacity="0.79"/>
<path d="M249.7 74.4999L249.9 78.4999C249.9 78.4999 249.9 78.4999 250 78.4999C250.2 78.4999 250.4 78.3999 250.6 78.3999H250.7C250.9 78.3999 251 78.3 251.2 78.2C251.3 78.2 251.3 78.1999 251.4 78.0999C251.5 77.9999 251.7 77.9999 251.8 77.8999C251.9 77.8999 252 77.7999 252.1 77.7999C252.2 77.6999 252.3 77.6999 252.4 77.5999C252.4 77.5999 252.5 77.5999 252.5 77.4999L252.3 74.2999C252.3 74.0999 252.3 73.8999 252.3 73.7999H249.6C249.7 74.0999 249.7 74.2999 249.7 74.4999Z" fill="#32353A"/>
<path d="M197.4 73.8999H194.7C194.7 74.0999 194.7 74.2999 194.7 74.3999L194.4 78.7999H197.1L197.4 74.4999C197.3 74.2999 197.3 74.0999 197.4 73.8999Z" fill="#32353A"/>
<path d="M84.7998 74.4C83.7998 57.9 70.1998 45.1 53.5998 45.1C36.9998 45.1 23.3998 58 22.3998 74.4L22.2998 76.6L25.9998 77.4L26.1998 74.7C27.0998 60.2 39.0998 48.8 53.6998 48.8C68.1998 48.8 80.2998 60.2 81.1998 74.7L81.3998 78.8H85.0998L84.7998 74.4Z" fill="black" fill-opacity="0.7"/>
<path d="M23.1999 69.3999C22.7999 70.9999 22.5999 72.6999 22.4999 74.3999L22.3999 76.5999L23.4999 76.7999L25.9999 77.2999L26.1999 74.5999C26.2999 72.9999 26.4999 71.4999 26.8999 69.9999L23.1999 69.3999Z" fill="#32353A"/>
<path d="M84.7 73.8999H81C81 74.1999 81.1 74.3999 81.1 74.6999L81.3 78.7999H85L84.7 74.3999C84.7 74.2999 84.7 74.0999 84.7 73.8999Z" fill="#32353A"/>
<path d="M10.7999 50.2999C11.5999 50.2999 12.3999 49.9 12.8999 49.2L18.8999 41.2999C19.6999 40.2999 19.5999 38.7999 18.6999 37.8999L13.1999 31.9999C12.6999 31.4999 11.9999 31.2 11.1999 31.2H5.49988C5.39988 31.7 5.3999 32.0999 5.3999 32.5999V41.7999C5.3999 43.4999 4.89985 45.2 4.09985 46.7L1.8999 50.3999H10.7999V50.2999Z" fill="#F26F75"/>
<path d="M18.8 37.8999L13.3 31.9999C12.8 31.4999 12.1 31.2 11.3 31.2H5.59998C5.49998 31.7 5.5 32.0999 5.5 32.5999V32.8999H11.3C11.6 32.8999 11.9 33 12 33.2L17.5 39.0999C17.8 39.4999 17.9 39.9999 17.6 40.3999L11.6 48.2999C11.4 48.5999 11.1 48.7 10.8 48.7H3L2 50.2999H10.7C11.5 50.2999 12.3 49.9 12.8 49.2L18.8 41.2999C19.7 40.2999 19.6 38.7999 18.8 37.8999Z" fill="#C65D67"/>
<path d="M25.7998 32.1C25.7998 33.4 26.8998 34.5 28.1998 34.5H113L188.6 39.1C190 39.2 191.1 38.1 191.1 36.8C191.1 35.6 190.1 34.5 188.9 34.5L112.9 29.9H28.1998C26.8998 29.8 25.7998 30.8 25.7998 32.1Z" fill="black" fill-opacity="0.21"/>
<path d="M10.4 34.2H7.59998C6.99998 34.2 6.5 34.6999 6.5 35.2999C6.5 35.8999 6.99998 36.3999 7.59998 36.3999H10.4C11 36.3999 11.5 35.8999 11.5 35.2999C11.5 34.6999 11 34.2 10.4 34.2Z" fill="#FCD9DC"/>
<path d="M12.6998 42.8999H5.49982C5.29982 44.1999 4.8998 45.3999 4.2998 46.5999L3.7998 47.3999H10.4998C10.6998 47.3999 10.8998 47.2999 10.9998 47.0999L13.2998 43.8999C13.4998 43.4999 13.1998 42.8999 12.6998 42.8999Z" fill="#FCD9DC"/>
<path d="M193.8 70.1999H86.9998V69.7999C86.9998 54.2999 68.8998 45.1999 68.6998 45.0999L68.4998 44.9999L65.8998 33.1999V33.0999L70.9998 3.19992H39.9998C39.0998 3.19992 34.2998 8.59991 23.6998 23.4999C23.2998 23.9999 23.2998 24.5999 23.5998 25.1999C23.8998 25.7999 24.3998 26.0999 24.9998 26.0999H30.2998V26.8999H24.9998C24.0998 26.8999 23.1998 26.3999 22.7998 25.5999C22.3998 24.7999 22.3998 23.7999 22.9998 23.0999C32.6998 9.39991 38.3998 2.3999 39.8998 2.3999H140C146 2.3999 151.8 3.99991 156.9 6.99991C166.3 12.4999 179.8 20.4999 190.3 27.0999C203.6 35.3999 194.1 68.4999 193.7 69.8999L193.8 70.1999ZM87.7998 69.3999H193.2C194.1 66.0999 202.2 35.3999 190.1 27.7999C179.5 21.1999 166.1 13.2999 156.7 7.69992C151.7 4.79992 146 3.19992 140.2 3.19992H71.8998L66.7998 33.0999L69.2998 44.2999C71.0998 45.3999 87.4998 54.4999 87.7998 69.3999Z" fill="black" fill-opacity="0.31"/>
<path d="M123 69.8L122.2 69.7C124 41.2 116.4 28.8 116.3 28.6L116.2 28.5V28.4L113.4 2.69998L114.2 2.59998L116.9 28.2C117.7 29.5 124.8 42.2 123 69.8Z" fill="black" fill-opacity="0.6"/>
<path d="M130.3 41.5C132.398 41.5 134.1 40.3807 134.1 39C134.1 37.6193 132.398 36.5 130.3 36.5C128.201 36.5 126.5 37.6193 126.5 39C126.5 40.3807 128.201 41.5 130.3 41.5Z" fill="black" fill-opacity="0.34"/>
<path d="M136 38.1H125.3C124.8 38.1 124.3 38.5 124.3 39.1C124.3 39.6 124.7 40.1 125.3 40.1H136C136.5 40.1 137 39.7 137 39.1C137 38.5 136.5 38.1 136 38.1Z" fill="#57585E"/>
<path d="M76.4999 41.5C78.5986 41.5 80.2999 40.3807 80.2999 39C80.2999 37.6193 78.5986 36.5 76.4999 36.5C74.4013 36.5 72.7 37.6193 72.7 39C72.7 40.3807 74.4013 41.5 76.4999 41.5Z" fill="black" fill-opacity="0.36"/>
<path d="M82.2 38.1H71.5C71 38.1 70.5 38.5 70.5 39.1C70.5 39.6 70.9 40.1 71.5 40.1H82.2C82.7 40.1 83.2 39.7 83.2 39.1C83.2 38.5 82.8 38.1 82.2 38.1Z" fill="#57585E"/>
<path d="M71.6999 27.4999H111.6C112.9 27.4999 114 26.2999 113.9 24.9999L112.1 6.19995C112 4.99995 111 4.19995 109.8 4.19995H75.3999C74.2999 4.19995 73.3999 4.99994 73.1999 5.99994L69.4999 24.7999C69.1999 26.1999 70.2999 27.4999 71.6999 27.4999Z" fill="#3D3036"/>
<path d="M71.6998 25.4C71.6998 25.4 71.5998 25.4 71.4998 25.3C71.3998 25.2 71.3998 25.1 71.4998 25.1L75.1998 6.29996C75.1998 6.19996 75.2998 6.09998 75.3998 6.09998H109.8C109.9 6.09998 110 6.19996 110 6.29996L111.8 25.1C111.8 25.2 111.8 25.2 111.7 25.3C111.7 25.3 111.6 25.4 111.5 25.4H71.6998Z" fill="#695C61"/>
<path d="M66.2998 4.09998H42.3998C40.9998 4.09998 39.7998 4.79996 38.9998 5.89996L24.8998 25.3C24.1998 26.2 24.8998 27.6 25.9998 27.6H62.5998C63.5998 27.6 64.4998 26.9 64.6998 25.9L68.4998 6.79996C68.5998 5.29996 67.5998 4.09998 66.2998 4.09998Z" fill="#3D3036"/>
<path d="M27.1997 25.4L40.5997 6.99997C40.9997 6.39997 41.6997 6.09998 42.3997 6.09998H66.2997C66.2997 6.09998 66.2997 6.09998 66.2997 6.19998L62.4997 25.3C62.4997 25.3 62.4997 25.4 62.3997 25.4H27.1997Z" fill="#695C61"/>
<path d="M188.1 28.2L152.5 6.79999C149.4 4.99999 145.9 4 142.4 4H117.9C117.2 4 116.6 4.59999 116.7 5.29999L118.8 26.4C118.9 27 119.3 27.5 119.9 27.5C128.4 28.1 187 31.9 187 31.9C189.1 32.2 190 29.3 188.1 28.2Z" fill="#3D3036"/>
<path d="M187.1 30C185.5 29.9 131.2 26.3 120.7 25.6L118.8 6.09998H142.4C145.6 6.09998 148.7 6.99998 151.5 8.59998L187.1 30Z" fill="#695C61"/>
<path d="M84.2998 25.4H91.2998L96.9998 6.09998H89.9998L84.2998 25.4Z" fill="#847A7E"/>
<path d="M60.2997 6.09998H58.1997L50.6997 25.4H52.8997L60.2997 6.09998Z" fill="#847A7E"/>
<path d="M41.9998 25.4H47.8998L55.2997 6.09998H49.3998L41.9998 25.4Z" fill="#847A7E"/>
<path d="M142 6.09998H139.8L137.8 26.7C138.5 26.7 139.2 26.8 140 26.8L142 6.09998Z" fill="#847A7E"/>
<path d="M129.1 26.2C130.9 26.3 132.9 26.3999 135 26.5999L136.9 6.19995H131L129.1 26.2Z" fill="#847A7E"/>
<path d="M184.4 31C183.6 31.1 183 31.8 183 32.6V36.2C183 37.1 183.7 37.9 184.7 37.9H187.5C188.4 37.9 189.2 37.2 189.2 36.2V34.9C189.2 34.4 189 33.9 188.6 33.6L185.8 31.3C185.3 31.1 184.9 30.9 184.4 31Z" fill="#57585E"/>
<path d="M184.3 26.6H178.6C177.4 26.6 176.4 27.6 176.4 28.8V34.5C176.4 35.7 177.4 36.7 178.6 36.7H184.3C185.5 36.7 186.5 35.7 186.5 34.5V28.8C186.5 27.6 185.5 26.6 184.3 26.6Z" fill="#424449"/>
<path d="M179.7 28.2H178.5C177.3 28.2 176.3 29.1999 176.3 30.3999V34.3999C176.3 35.5999 177.3 36.5999 178.5 36.5999H179.7C180.9 36.5999 181.9 35.5999 181.9 34.3999V30.3999C182 29.1999 181 28.2 179.7 28.2Z" fill="#57585E"/>
<path d="M27.2 49.3999C29.9614 49.3999 32.2 47.1613 32.2 44.3999C32.2 41.6385 29.9614 39.3999 27.2 39.3999C24.4385 39.3999 22.2 41.6385 22.2 44.3999C22.2 47.1613 24.4385 49.3999 27.2 49.3999Z" fill="black" fill-opacity="0.21"/>
<path d="M257 55.3L256.3 51.5C255.7 48.2 254.4 45.3 252.5 42.6H248.7C247.3 42.6 245.9 43.4 245.2 44.6C244.3 46.1 244.5 48 245.7 49.3L249.7 53.8C250.5 54.7 251.6 55.2 252.7 55.2H257V55.3Z" fill="#E8E3D1"/>
<path d="M248.8 48.9L248.5 49.1C247.9 49.5 247.8 50.3 248.2 50.9L250 53.3C250.4 53.9 251.2 54 251.8 53.6L252.1 53.4C252.7 53 252.8 52.2 252.4 51.6L250.6 49.2C250.2 48.6 249.4 48.4 248.8 48.9Z" fill="#F26F75"/>
<path d="M252.2 44H248C247.5 44 247.1 44.4 247.1 44.9C247.1 45.4 247.5 45.8 248 45.8H252.1C252.6 45.8 253 45.4 253 44.9C253.1 44.4 252.7 44 252.2 44Z" fill="#F9F9FA"/>
</svg>
