<svg width="259" height="134" viewBox="0 0 259 134" fill="none" xmlns="http://www.w3.org/2000/svg">
<path d="M114.7 53C114.3 53 114 52.9 113.7 52.6C113.1 52 113.1 51.1 113.7 50.6L132.3 32C132.9 31.4 133.8 31.4 134.3 32C134.9 32.6 134.9 33.5 134.3 34L115.7 52.6C115.4 52.8 115.1 53 114.7 53Z" fill="#424449"/>
<path d="M143.5 61.8C143.1 61.8 142.8 61.7001 142.5 61.4001L123.7 42.6C123.1 42 123.1 41.1 123.7 40.6C124.3 40 125.2 40 125.7 40.6L144.5 59.4001C145.1 60.0001 145.1 60.9001 144.5 61.4001C144.3 61.7001 143.9 61.8 143.5 61.8Z" fill="#424449"/>
<path d="M134.522 46.8769L129.997 51.4023L148.028 69.4334L152.553 64.9079L134.522 46.8769Z" fill="#424449"/>
<path d="M146 71.2C145.8 71.2 145.5 71.1 145.3 70.9L132.6 58.2C132.2 57.8 132.2 57.2 132.6 56.8C133 56.4 133.6 56.4 134 56.8L146.7 69.5C147.1 69.9 147.1 70.5 146.7 70.9C146.5 71.1 146.2 71.2 146 71.2Z" fill="#424449"/>
<path d="M134.688 58.8822C135.469 58.1012 135.469 56.8349 134.688 56.0538C133.907 55.2728 132.641 55.2728 131.86 56.0538C131.078 56.8349 131.078 58.1012 131.86 58.8822C132.641 59.6633 133.907 59.6633 134.688 58.8822Z" fill="#424449"/>
<path d="M79.6997 30.3L75.5997 30.8C74.7997 30.9 74.1997 31.6 74.2997 32.5L76.7997 55.4L87.8998 54.2L85.7997 35.3C85.4997 32.1 82.6997 29.9 79.6997 30.3Z" fill="#6D574E"/>
<path d="M112.8 59H92.9998V67.3V76.8H113V70.9H114.9C115.8 70.9 116.5 70.2 116.5 69.3V62.8C116.5 60.7 114.8 59 112.8 59Z" fill="#6D574E"/>
<path d="M7.2998 104.8H74.1998H105.5V106.3H112.2V109.1H118V106.2H171.1L177.2 110.7H241.3L228.5 85.3H14.1998L8.69983 94.1L7.2998 104.8Z" fill="#181A1C"/>
<path d="M146 48.4V67.4C146 72.6 141.8 76.8 136.6 76.8H112C109.8 76.8 107.9 75.6 106.9 73.7L101.9 64C96.8999 54.4 86.9999 48.4 76.1999 48.4H13.6999C12.1999 48.4 10.8999 49.6 10.8999 51.2V95.1H237.5V48.4H146Z" fill="#F40808"/>
<path d="M246.1 91.4L243.7 93.4H236.4V99.1H243.7L246.1 101H257.6V91.4H246.1Z" fill="#181A1C"/>
<path d="M249.1 89.1V103.3H256.2C257.6 103.3 258.7 102.2 258.7 100.8V91.6C258.7 90.2 257.6 89.1 256.2 89.1H249.1Z" fill="#57585E"/>
<path d="M84.5998 85.6L78.2998 73.4C78.2998 73.4 71.6998 67.6 70.7998 67C69.7998 66.4 58.2998 62.4 58.2998 62.4H34.6998H11.7998L10.7998 62.9V95.2H87.9998L84.5998 85.6Z" fill="black" fill-opacity="0.32"/>
<path d="M165 95.1H237.5V64.6H183.1L165 95.1Z" fill="black" fill-opacity="0.45"/>
<path d="M48.3998 133.3C64.9131 133.3 78.2997 119.913 78.2997 103.4C78.2997 86.8867 64.9131 73.5 48.3998 73.5C31.8865 73.5 18.4998 86.8867 18.4998 103.4C18.4998 119.913 31.8865 133.3 48.3998 133.3Z" fill="#646668"/>
<path d="M48.3998 131.3C63.8085 131.3 76.2997 118.809 76.2997 103.4C76.2997 87.9913 63.8085 75.5 48.3998 75.5C32.991 75.5 20.4998 87.9913 20.4998 103.4C20.4998 118.809 32.991 131.3 48.3998 131.3Z" fill="#57585E"/>
<path d="M48.3999 124.4C59.9979 124.4 69.3999 114.998 69.3999 103.4C69.3999 91.802 59.9979 82.4 48.3999 82.4C36.8019 82.4 27.3999 91.802 27.3999 103.4C27.3999 114.998 36.8019 124.4 48.3999 124.4Z" fill="#32353A"/>
<path d="M48.3998 122.3C58.838 122.3 67.2997 113.838 67.2997 103.4C67.2997 92.9618 58.838 84.5 48.3998 84.5C37.9616 84.5 29.4998 92.9618 29.4998 103.4C29.4998 113.838 37.9616 122.3 48.3998 122.3Z" fill="#F26F75"/>
<path d="M48.3995 107.3C50.5534 107.3 52.2995 105.554 52.2995 103.4C52.2995 101.246 50.5534 99.5 48.3995 99.5C46.2456 99.5 44.4995 101.246 44.4995 103.4C44.4995 105.554 46.2456 107.3 48.3995 107.3Z" fill="#32353A"/>
<path d="M48.3997 97.5C49.0625 97.5 49.5997 96.9627 49.5997 96.3C49.5997 95.6372 49.0625 95.1 48.3997 95.1C47.737 95.1 47.1997 95.6372 47.1997 96.3C47.1997 96.9627 47.737 97.5 48.3997 97.5Z" fill="#57585E"/>
<path d="M42.901 101.54C43.1058 100.909 42.7608 100.232 42.1305 100.028C41.5002 99.8228 40.8231 100.168 40.6184 100.798C40.4136 101.428 40.7586 102.105 41.3889 102.31C42.0192 102.515 42.6962 102.17 42.901 101.54Z" fill="#57585E"/>
<path d="M45.2758 109.812C45.6654 109.276 45.5466 108.525 45.0104 108.136C44.4742 107.746 43.7238 107.865 43.3343 108.401C42.9447 108.937 43.0635 109.688 43.5997 110.077C44.1358 110.467 44.8863 110.348 45.2758 109.812Z" fill="#57585E"/>
<path d="M53.3102 110.017C53.8463 109.627 53.9652 108.876 53.5756 108.34C53.1861 107.804 52.4356 107.685 51.8995 108.075C51.3633 108.465 51.2445 109.215 51.634 109.751C52.0236 110.287 52.774 110.406 53.3102 110.017Z" fill="#57585E"/>
<path d="M55.5936 102.381C56.224 102.176 56.5689 101.499 56.3642 100.869C56.1594 100.238 55.4824 99.8933 54.852 100.098C54.2217 100.303 53.8767 100.98 54.0815 101.61C54.2863 102.241 54.9633 102.586 55.5936 102.381Z" fill="#57585E"/>
<path d="M43.4996 120L44.3997 117.8C45.0997 116.2 44.4996 114.3 43.0996 113.3L40.4996 111.4C39.0996 110.4 37.1997 110.5 35.8997 111.6L34.0996 113.1C36.3996 116.4 39.6996 118.8 43.4996 120Z" fill="#32353A"/>
<path d="M37.2996 101.4L38.2996 98.4001C38.7996 96.8001 38.1996 94.9001 36.6996 94.0001L34.6996 92.8C32.4996 95.7 31.0996 99.4 31.0996 103.3C31.0996 103.5 31.0996 103.6 31.0996 103.8L33.3997 104C35.1997 104.1 36.7996 103.1 37.2996 101.4Z" fill="#32353A"/>
<path d="M62.6996 113.2L60.8996 111.7C59.5996 110.6 57.6995 110.5 56.2995 111.5L53.6996 113.4C52.2996 114.4 51.7996 116.3 52.3996 117.9L53.2995 120.1C57.1995 118.8 60.4996 116.4 62.6996 113.2Z" fill="#32353A"/>
<path d="M62.1997 92.8L60.1997 94.0001C58.6997 94.9001 58.0996 96.7001 58.5996 98.4001L59.5996 101.4C60.0996 103 61.6997 104.1 63.4997 104L65.7996 103.8C65.7996 103.6 65.7996 103.5 65.7996 103.3C65.7996 99.4 64.3997 95.7 62.1997 92.8Z" fill="#32353A"/>
<path d="M53.6996 89.3L54.1996 87C52.3996 86.4 50.3997 86 48.3997 86C46.3997 86 44.3996 86.4 42.5996 87L43.0996 89.3C43.4996 91 44.9996 92.2 46.6996 92.2H49.8997C51.7997 92.2 53.2996 91 53.6996 89.3Z" fill="#32353A"/>
<path d="M214.2 133.3C230.713 133.3 244.1 119.913 244.1 103.4C244.1 86.8867 230.713 73.5 214.2 73.5C197.687 73.5 184.3 86.8867 184.3 103.4C184.3 119.913 197.687 133.3 214.2 133.3Z" fill="#646668"/>
<path d="M214.2 131.3C229.609 131.3 242.1 118.809 242.1 103.4C242.1 87.9913 229.609 75.5 214.2 75.5C198.791 75.5 186.3 87.9913 186.3 103.4C186.3 118.809 198.791 131.3 214.2 131.3Z" fill="#57585E"/>
<path d="M214.2 124.4C225.798 124.4 235.2 114.998 235.2 103.4C235.2 91.802 225.798 82.4 214.2 82.4C202.602 82.4 193.2 91.802 193.2 103.4C193.2 114.998 202.602 124.4 214.2 124.4Z" fill="#32353A"/>
<path d="M214.2 122.3C224.638 122.3 233.1 113.838 233.1 103.4C233.1 92.9618 224.638 84.5 214.2 84.5C203.762 84.5 195.3 92.9618 195.3 103.4C195.3 113.838 203.762 122.3 214.2 122.3Z" fill="#F26F75"/>
<path d="M214.2 107.3C216.354 107.3 218.1 105.554 218.1 103.4C218.1 101.246 216.354 99.5 214.2 99.5C212.046 99.5 210.3 101.246 210.3 103.4C210.3 105.554 212.046 107.3 214.2 107.3Z" fill="#32353A"/>
<path d="M214.2 97.5C214.863 97.5 215.4 96.9627 215.4 96.3C215.4 95.6372 214.863 95.1 214.2 95.1C213.537 95.1 213 95.6372 213 96.3C213 96.9627 213.537 97.5 214.2 97.5Z" fill="#57585E"/>
<path d="M208.719 101.555C208.924 100.925 208.579 100.248 207.949 100.043C207.319 99.8381 206.642 100.183 206.437 100.813C206.232 101.444 206.577 102.121 207.207 102.326C207.838 102.53 208.515 102.185 208.719 101.555Z" fill="#57585E"/>
<path d="M211.09 109.834C211.479 109.298 211.36 108.547 210.824 108.158C210.288 107.768 209.538 107.887 209.148 108.423C208.758 108.959 208.877 109.71 209.413 110.099C209.95 110.489 210.7 110.37 211.09 109.834Z" fill="#57585E"/>
<path d="M219.11 110.034C219.646 109.644 219.765 108.894 219.375 108.358C218.986 107.822 218.235 107.703 217.699 108.092C217.163 108.482 217.044 109.232 217.434 109.768C217.823 110.305 218.574 110.423 219.11 110.034Z" fill="#57585E"/>
<path d="M221.403 102.392C222.033 102.188 222.378 101.511 222.173 100.88C221.968 100.25 221.291 99.905 220.661 100.11C220.031 100.315 219.686 100.992 219.891 101.622C220.095 102.252 220.772 102.597 221.403 102.392Z" fill="#57585E"/>
<path d="M209.3 120L210.2 117.8C210.9 116.2 210.3 114.3 208.9 113.3L206.3 111.4C204.9 110.4 203 110.5 201.7 111.6L199.9 113.1C202.2 116.4 205.5 118.8 209.3 120Z" fill="#32353A"/>
<path d="M203.1 101.4L204.1 98.4001C204.6 96.8001 204 94.9001 202.5 94.0001L200.5 92.8C198.3 95.7 196.9 99.4 196.9 103.3C196.9 103.5 196.9 103.6 196.9 103.8L199.2 104C201 104.1 202.6 103.1 203.1 101.4Z" fill="#32353A"/>
<path d="M228.5 113.2L226.7 111.7C225.4 110.6 223.5 110.5 222.1 111.5L219.5 113.4C218.1 114.4 217.6 116.3 218.2 117.9L219.1 120.1C223 118.8 226.3 116.4 228.5 113.2Z" fill="#32353A"/>
<path d="M228 92.8L226 94.0001C224.5 94.9001 223.9 96.7001 224.4 98.4001L225.4 101.4C225.9 103 227.5 104.1 229.3 104L231.6 103.8C231.6 103.6 231.6 103.5 231.6 103.3C231.6 99.4 230.2 95.7 228 92.8Z" fill="#32353A"/>
<path d="M219.5 89.3L220 87C218.2 86.4 216.2 86 214.2 86C212.2 86 210.2 86.4 208.4 87L208.9 89.3C209.3 91 210.8 92.2 212.5 92.2H215.7C217.6 92.2 219.1 91 219.5 89.3Z" fill="#32353A"/>
<path d="M88.0999 95.1H83.7999V93.1C83.7999 77.7 71.2999 65.2 55.8999 65.2H15.7999C14.3999 65.2 13.1999 66.4 13.1999 67.8V95.2H8.8999V67.8C8.8999 64 11.9999 60.9 15.7999 60.9H55.8999C73.6999 60.9 88.1999 75.4 88.1999 93.2V95.1H88.0999Z" fill="black" fill-opacity="0.3"/>
<path d="M160.5 62.4H150.5C149.6 62.4 148.7 61.8 148.4 60.9L129.8 3C129.4 1.9 130.1 0.599989 131.2 0.299989C132.3 -0.100011 133.6 0.600014 133.9 1.70001L152.2 58.2H160.6C161.8 58.2 162.8 59.2 162.8 60.4C162.8 61.6 161.7 62.4 160.5 62.4Z" fill="black" fill-opacity="0.44"/>
<path d="M156.2 56.6V64H161.2C163.2 64 164.9 62.3 164.9 60.3C164.9 58.3 163.2 56.6 161.2 56.6H156.2Z" fill="black" fill-opacity="0.25"/>
<path d="M0.799805 95.9V104.2C0.799805 105.4 1.79982 106.4 2.99982 106.4H9.39984V93.6H2.99982C1.79982 93.7 0.799805 94.7 0.799805 95.9Z" fill="#57585E"/>
<path d="M238.3 62.4H171.3V49.4999C171.3 47.9999 172.5 46.7 174.1 46.7H232.8C236.5 46.7 239.5 49.3999 240 52.9999L240.8 59.4C241.1 61.1 239.9 62.4 238.3 62.4Z" fill="black" fill-opacity="0.22"/>
<path d="M172.1 63.4H236.6V62.4H172.1C171.5 62.4 171 61.9 171 61.3V48.4H170V61.3C170.1 62.5 171 63.4 172.1 63.4Z" fill="#629ABF"/>
<path d="M165.7 98.5L161.9 96.4L180.9 62.4H239.2V66.7H183.4L165.7 98.5Z" fill="black" fill-opacity="0.41"/>
<path d="M225.1 58.1C224.9 58.1 224.7 58 224.6 57.9C224.3 57.6 224.3 57.2 224.6 56.9L228.6 52.9C228.9 52.6 229.3 52.6 229.6 52.9C229.9 53.2 229.9 53.6 229.6 53.9L225.6 57.9C225.5 58 225.3 58.1 225.1 58.1Z" fill="black" fill-opacity="0.35"/>
<path d="M219.7 58.1C219.5 58.1 219.3 58 219.2 57.9C218.9 57.6 218.9 57.2 219.2 56.9L223.2 52.9C223.5 52.6 223.9 52.6 224.2 52.9C224.5 53.2 224.5 53.6 224.2 53.9L220.2 57.9C220 58 219.8 58.1 219.7 58.1Z" fill="black" fill-opacity="0.35"/>
<path d="M214.2 58.1C214 58.1 213.8 58 213.7 57.9C213.4 57.6 213.4 57.2 213.7 56.9L217.7 52.9C218 52.6 218.4 52.6 218.7 52.9C219 53.2 219 53.6 218.7 53.9L214.7 57.9C214.6 58 214.4 58.1 214.2 58.1Z" fill="black" fill-opacity="0.35"/>
<path d="M233.5 47.3H175.1C174.8 47.3 174.5 47.6001 174.5 47.9001C174.5 48.2001 174.8 48.5001 175.1 48.5001H233.5C233.8 48.5001 234.1 48.2001 234.1 47.9001C234.1 47.6001 233.9 47.3 233.5 47.3Z" fill="black" fill-opacity="0.46"/>
<path d="M72.9997 49H16.9997C16.2997 49 15.6997 49.6 15.6997 50.3C15.6997 51 16.2997 51.6 16.9997 51.6H72.9997C73.6997 51.6 74.2997 51 74.2997 50.3C74.1997 49.6 73.6997 49 72.9997 49Z" fill="black" fill-opacity="0.24"/>
</svg>
