<svg width="260" height="122" viewBox="0 0 260 122" fill="none" xmlns="http://www.w3.org/2000/svg">
<path d="M169.1 41.2L151.7 7.29993C149.6 3.19993 145.4 0.699951 140.9 0.699951H27.0999C21.9999 0.699951 17.8999 4.79993 17.8999 9.89993V83.9999L31.9999 90.5999H249.6V66.4999L246.7 61.5999C244.9 49.7999 234.8 41.2 222.9 41.2H169.1Z" fill="#606AC7"/>
<path d="M178.9 88.7999H100.5L79.6999 57.7H38.8999L27.8999 81.2H17.8999V83.9999L31.9999 90.5999H249.6V66.4999L246.7 61.5999C246.5 60.1999 246.2 58.9 245.8 57.7H201.4L178.9 88.7999Z" fill="#181A1C"/>
<path d="M62.3998 121.8C77.6429 121.8 89.9998 109.443 89.9998 94.2C89.9998 78.9569 77.6429 66.6 62.3998 66.6C47.1567 66.6 34.7998 78.9569 34.7998 94.2C34.7998 109.443 47.1567 121.8 62.3998 121.8Z" fill="#57585E"/>
<path d="M62.3999 114.7C73.7217 114.7 82.8999 105.522 82.8999 94.2C82.8999 82.8781 73.7217 73.7 62.3999 73.7C51.0781 73.7 41.8999 82.8781 41.8999 94.2C41.8999 105.522 51.0781 114.7 62.3999 114.7Z" fill="#424449"/>
<path d="M62.3997 111.4C71.899 111.4 79.5997 103.699 79.5997 94.2C79.5997 84.7007 71.899 77 62.3997 77C52.9004 77 45.1997 84.7007 45.1997 94.2C45.1997 103.699 52.9004 111.4 62.3997 111.4Z" fill="#EDEDED"/>
<path d="M62.3998 97.8C64.388 97.8 65.9998 96.1882 65.9998 94.2C65.9998 92.2118 64.388 90.6 62.3998 90.6C60.4116 90.6 58.7998 92.2118 58.7998 94.2C58.7998 96.1882 60.4116 97.8 62.3998 97.8Z" fill="#847A7E"/>
<path d="M62.3998 88.8999C63.0073 88.8999 63.4998 88.4074 63.4998 87.7999C63.4998 87.1924 63.0073 86.7 62.3998 86.7C61.7923 86.7 61.2998 87.1924 61.2998 87.7999C61.2998 88.4074 61.7923 88.8999 62.3998 88.8999Z" fill="#847A7E"/>
<path d="M57.3454 92.5651C57.5331 91.9873 57.2169 91.3667 56.6391 91.179C56.0613 90.9913 55.4407 91.3075 55.253 91.8853C55.0653 92.4631 55.3815 93.0837 55.9593 93.2714C56.5371 93.4591 57.1577 93.1429 57.3454 92.5651Z" fill="#847A7E"/>
<path d="M59.5455 100.028C59.9026 99.5369 59.7937 98.849 59.3022 98.4919C58.8107 98.1348 58.1228 98.2438 57.7657 98.7352C57.4086 99.2267 57.5176 99.9146 58.009 100.272C58.5005 100.629 59.1884 100.52 59.5455 100.028Z" fill="#847A7E"/>
<path d="M66.833 100.312C67.3244 99.9548 67.4334 99.2669 67.0763 98.7755C66.7192 98.284 66.0313 98.175 65.5398 98.5321C65.0483 98.8892 64.9394 99.5771 65.2965 100.069C65.6536 100.56 66.3415 100.669 66.833 100.312Z" fill="#847A7E"/>
<path d="M68.9301 93.2586C69.5079 93.0709 69.8241 92.4503 69.6364 91.8725C69.4487 91.2947 68.8281 90.9785 68.2503 91.1662C67.6725 91.3539 67.3563 91.9745 67.544 92.5523C67.7317 93.1301 68.3523 93.4463 68.9301 93.2586Z" fill="#847A7E"/>
<path d="M57.9995 109.3L58.7995 107.3C59.3995 105.8 58.8995 104.2 57.6995 103.2L55.2995 101.5C53.9995 100.6 52.2995 100.6 51.0995 101.7L49.4995 103.1C51.4995 106.1 54.4995 108.3 57.9995 109.3Z" fill="#32353A"/>
<path d="M52.2996 92.4998L53.1996 89.6999C53.6996 88.1999 53.0996 86.5999 51.6996 85.6999L49.8996 84.5999C47.8996 87.2999 46.5996 90.5999 46.5996 94.1999C46.5996 94.2999 46.5996 94.4999 46.5996 94.5999L48.6996 94.7998C50.3996 94.8998 51.7996 93.9998 52.2996 92.4998Z" fill="#32353A"/>
<path d="M75.3997 103.2L73.7997 101.8C72.5997 100.8 70.8997 100.7 69.5997 101.6L67.1997 103.3C65.8997 104.2 65.3997 105.9 66.0997 107.4L66.8997 109.4C70.3997 108.3 73.3997 106.1 75.3997 103.2Z" fill="#32353A"/>
<path d="M74.9998 84.5999L73.1997 85.6999C71.8997 86.4999 71.1997 88.1999 71.6997 89.6999L72.5998 92.4998C73.0998 93.9998 74.4998 94.9998 76.0998 94.7998L78.1997 94.5999C78.1997 94.4999 78.1997 94.2999 78.1997 94.1999C78.1997 90.5999 76.9998 87.2999 74.9998 84.5999Z" fill="#32353A"/>
<path d="M67.1996 81.3999L67.6996 79.2999C66.0996 78.6999 64.2996 78.3999 62.3996 78.3999C60.5996 78.3999 58.7996 78.6999 57.0996 79.2999L57.5996 81.3999C57.9996 82.8999 59.2996 83.9999 60.8996 83.9999H63.7996C65.4996 84.0999 66.8996 82.9999 67.1996 81.3999Z" fill="#32353A"/>
<path d="M218.6 121.8C233.843 121.8 246.2 109.443 246.2 94.2C246.2 78.9569 233.843 66.6 218.6 66.6C203.357 66.6 191 78.9569 191 94.2C191 109.443 203.357 121.8 218.6 121.8Z" fill="#57585E"/>
<path d="M218.6 114.7C229.922 114.7 239.1 105.522 239.1 94.2C239.1 82.8781 229.922 73.7 218.6 73.7C207.278 73.7 198.1 82.8781 198.1 94.2C198.1 105.522 207.278 114.7 218.6 114.7Z" fill="#424449"/>
<path d="M218.6 111.4C228.099 111.4 235.8 103.699 235.8 94.2C235.8 84.7007 228.099 77 218.6 77C209.101 77 201.4 84.7007 201.4 94.2C201.4 103.699 209.101 111.4 218.6 111.4Z" fill="#EDEDED"/>
<path d="M218.6 97.8C220.588 97.8 222.2 96.1882 222.2 94.2C222.2 92.2118 220.588 90.6 218.6 90.6C216.612 90.6 215 92.2118 215 94.2C215 96.1882 216.612 97.8 218.6 97.8Z" fill="#847A7E"/>
<path d="M218.6 88.8999C219.208 88.8999 219.7 88.4074 219.7 87.7999C219.7 87.1924 219.208 86.7 218.6 86.7C217.992 86.7 217.5 87.1924 217.5 87.7999C217.5 88.4074 217.992 88.8999 218.6 88.8999Z" fill="#847A7E"/>
<path d="M213.497 92.4956C213.685 91.9178 213.369 91.2973 212.791 91.1095C212.213 90.9218 211.593 91.238 211.405 91.8158C211.217 92.3937 211.533 93.0142 212.111 93.202C212.689 93.3897 213.31 93.0734 213.497 92.4956Z" fill="#847A7E"/>
<path d="M215.66 100.057C216.017 99.5653 215.908 98.8773 215.416 98.5202C214.925 98.1631 214.237 98.2721 213.88 98.7636C213.523 99.255 213.632 99.9429 214.123 100.3C214.615 100.657 215.303 100.548 215.66 100.057Z" fill="#847A7E"/>
<path d="M223.02 100.272C223.511 99.915 223.62 99.2271 223.263 98.7357C222.906 98.2442 222.218 98.1352 221.727 98.4923C221.235 98.8494 221.126 99.5373 221.483 100.029C221.841 100.52 222.529 100.629 223.02 100.272Z" fill="#847A7E"/>
<path d="M225.039 93.2719C225.616 93.0842 225.933 92.4636 225.745 91.8858C225.557 91.308 224.937 90.9918 224.359 91.1795C223.781 91.3672 223.465 91.9878 223.652 92.5656C223.84 93.1434 224.461 93.4596 225.039 93.2719Z" fill="#847A7E"/>
<path d="M214.1 109.3L214.9 107.3C215.5 105.8 215 104.2 213.8 103.2L211.4 101.5C210.1 100.6 208.4 100.6 207.2 101.7L205.6 103.1C207.6 106.1 210.6 108.3 214.1 109.3Z" fill="#32353A"/>
<path d="M208.5 92.4998L209.4 89.6999C209.9 88.1999 209.3 86.5999 207.9 85.6999L206.1 84.5999C204.1 87.2999 202.8 90.5999 202.8 94.1999C202.8 94.2999 202.8 94.4999 202.8 94.5999L204.9 94.7998C206.5 94.8998 208 93.9998 208.5 92.4998Z" fill="#32353A"/>
<path d="M231.6 103.2L230 101.8C228.8 100.8 227.1 100.7 225.8 101.6L223.4 103.3C222.1 104.2 221.6 105.9 222.3 107.4L223.1 109.4C226.6 108.3 229.6 106.1 231.6 103.2Z" fill="#32353A"/>
<path d="M231.1 84.5999L229.3 85.6999C228 86.4999 227.3 88.1999 227.8 89.6999L228.7 92.4998C229.2 93.9998 230.6 94.9998 232.2 94.7998L234.3 94.5999C234.3 94.4999 234.3 94.2999 234.3 94.1999C234.4 90.5999 233.1 87.2999 231.1 84.5999Z" fill="#32353A"/>
<path d="M223.4 81.3999L223.9 79.2999C222.3 78.6999 220.5 78.3999 218.6 78.3999C216.8 78.3999 215 78.6999 213.3 79.2999L213.8 81.3999C214.2 82.8999 215.5 83.9999 217.1 83.9999H220C221.6 84.0999 223 82.9999 223.4 81.3999Z" fill="#32353A"/>
<path d="M94.1997 86.7V89.2C94.1997 91.5 95.9997 93.2999 98.2997 93.2999H180.5C182.8 93.2999 184.6 91.5 184.6 89.2V86.7H94.1997Z" fill="#53475C"/>
<path d="M184.6 86.7L203.1 62.0999C203.9 60.9999 205.2 60.2999 206.6 60.2999H239.2C240.8 60.2999 242.2 61.0999 243 62.4999L245.6 66.9999C245.9 67.5999 246.6 67.8999 247.2 67.8999H248.6C250 67.8999 250.9 66.3999 250.3 65.0999L246 56.9999C245.2 55.5999 243.7 54.7 242.1 54.7H201.3C199.9 54.7 198.6 55.3999 197.7 56.4999L175.4 86.7H184.6Z" fill="#57585E"/>
<path d="M94.1997 86.7L79.4997 63.2999C78.6997 62.0999 77.3997 61.3999 75.9997 61.3999H44.0997C42.4997 61.3999 41.0997 62.2999 40.3997 63.7999L34.1997 76.9999H26.6997L35.6997 57.0999C36.3997 55.5999 37.7997 54.7 39.3997 54.7H79.2997C80.6997 54.7 81.9997 55.3999 82.6997 56.5999L102.5 86.7999H94.1997V86.7Z" fill="#57585E"/>
<path d="M34.0998 76.9999L30.3998 86.6999H14.7998C13.3998 86.6999 12.2998 85.5999 12.2998 84.1999V79.3999C12.2998 77.9999 13.3998 76.8999 14.7998 76.8999H34.0998V76.9999Z" fill="#53475C"/>
<path d="M91.5998 7.8999H29.4998C26.8998 7.8999 24.7998 9.99991 24.7998 12.5999V34.9999C24.7998 37.5999 26.8998 39.6999 29.4998 39.6999H91.5998C94.1998 39.6999 96.2998 37.5999 96.2998 34.9999V12.5999C96.2998 9.99991 94.1998 7.8999 91.5998 7.8999Z" fill="#3D3036"/>
<path d="M150 82.5999H114.6C110.8 82.5999 107.4 80.5 105.5 77.2L101 69.0999C100.2 67.5999 99.6997 65.8999 99.6997 64.0999V0.699951H101.2V64.0999C101.2 65.5999 101.6 67.0999 102.3 68.3999L106.8 76.4999C108.4 79.2999 111.3 81.0999 114.6 81.0999H150C156.7 81.0999 162.1 75.6999 162.1 68.9999V43.2C162.1 42.7 162 42.2999 161.8 41.8999L150 20.7L151.3 19.9999L163.1 41.2C163.4 41.7999 163.6 42.5 163.6 43.2V68.9999C163.5 76.4999 157.4 82.5999 150 82.5999Z" fill="black" fill-opacity="0.54"/>
<path d="M29.3996 38.2999C27.5996 38.2999 26.0996 36.7999 26.0996 34.9999V12.5999C26.0996 10.7999 27.5996 9.29993 29.3996 9.29993H91.4996C93.2996 9.29993 94.7996 10.7999 94.7996 12.5999V34.9999C94.7996 36.7999 93.2996 38.2999 91.4996 38.2999H29.3996Z" fill="#695C61"/>
<path d="M55.7999 38.2999H44.3999L59.3999 9.29993H70.7999L55.7999 38.2999Z" fill="#847A7E"/>
<path d="M157.4 39.6999H105.3C103.7 39.6999 102.5 38.3999 102.5 36.8999V10.6999C102.5 9.09992 103.8 7.8999 105.3 7.8999H143.1C144.1 7.8999 145.1 8.4999 145.6 9.3999L159.9 35.5999C160.9 37.3999 159.5 39.6999 157.4 39.6999Z" fill="#3D3036"/>
<path d="M105.3 38.2999C104.5 38.2999 103.9 37.6999 103.9 36.8999V10.7C103.9 9.89995 104.5 9.29993 105.3 9.29993H143.1C143.6 9.29993 144.1 9.59994 144.3 9.99994L158.6 36.2C158.9 36.8 158.7 37.2999 158.6 37.4999C158.5 37.6999 158.1 38.2 157.4 38.2H105.3V38.2999Z" fill="#695C61"/>
<path d="M123 9.29993L114.2 38.2999H120.1L128.9 9.29993H123Z" fill="#847A7E"/>
<path d="M132.5 9.29993L123.8 38.2999H125.5L134.2 9.29993H132.5Z" fill="#847A7E"/>
<path d="M112.5 51.4C114.654 51.4 116.4 49.6539 116.4 47.5C116.4 45.3461 114.654 43.6 112.5 43.6C110.346 43.6 108.6 45.3461 108.6 47.5C108.6 49.6539 110.346 51.4 112.5 51.4Z" fill="black" fill-opacity="0.32"/>
<path d="M154 47.4H149.9V42H154C155.5 42 156.7 43.2 156.7 44.7V44.8C156.7 46.2 155.5 47.4 154 47.4Z" fill="#717175"/>
<path d="M149.9 38.6V44.4C149.9 45.4 150.7 46.1 151.6 46.1C152.6 46.1 153.3 45.3 153.3 44.4V38.6H149.9Z" fill="#424449"/>
<path d="M147.3 27.7999V39.7999H151.5C153.7 39.7999 155.5 37.9999 155.5 35.7999V31.8999C155.5 29.6999 153.7 27.8999 151.5 27.8999H147.3V27.7999Z" fill="#57585E"/>
<path d="M151.5 27.7999H147.3V39.7999H151.5V27.7999Z" fill="#717175"/>
<path d="M150.1 29.5H148.5C148.2 29.5 148 29.3 148 29C148 28.7 148.2 28.5 148.5 28.5H150.1C150.4 28.5 150.6 28.7 150.6 29C150.6 29.3 150.3 29.5 150.1 29.5Z" fill="#9A9B9E"/>
<path d="M117.3 45.7H105.3C104.3 45.7 103.5 46.4999 103.5 47.4999C103.5 48.4999 104.3 49.2999 105.3 49.2999H117.3C118.3 49.2999 119.1 48.4999 119.1 47.4999C119.2 46.4999 118.4 45.7 117.3 45.7Z" fill="#53475C"/>
<path d="M105.3 49.4H117.3C118.3 49.4 119.1 48.6 119.1 47.6H103.4C103.5 48.5 104.3 49.4 105.3 49.4Z" fill="#3A3142"/>
<path d="M105.5 53.0999C106.107 53.0999 106.6 52.6074 106.6 51.9999C106.6 51.3924 106.107 50.8999 105.5 50.8999C104.892 50.8999 104.4 51.3924 104.4 51.9999C104.4 52.6074 104.892 53.0999 105.5 53.0999Z" fill="#53475C"/>
<path d="M255.8 74.8999H247.5V91.9999H255.8C257.6 91.9999 259.1 90.7999 259.1 89.1999V77.5999C259.1 76.0999 257.6 74.8999 255.8 74.8999Z" fill="#73677D"/>
<path d="M255.8 86.4H247.5V92H255.8C257.6 92 259.1 90.8 259.1 89.2V83.6C259.1 85.1 257.6 86.4 255.8 86.4Z" fill="#574E61"/>
<path d="M239.8 55.5H203.8C203.2 55.5 202.8 56 202.8 56.5C202.8 57.1 203.3 57.5 203.8 57.5H239.8C240.4 57.5 240.8 57 240.8 56.5C240.9 56 240.4 55.5 239.8 55.5Z" fill="#847A7E"/>
<path d="M76.8999 55.5H40.8999C40.2999 55.5 39.8999 56 39.8999 56.5C39.8999 57.1 40.3999 57.5 40.8999 57.5H76.8999C77.4999 57.5 77.8999 57 77.8999 56.5C77.8999 56 77.3999 55.5 76.8999 55.5Z" fill="#847A7E"/>
<path d="M13.8998 28.5H4.2998C2.0998 28.5 0.299805 30.3 0.299805 32.5V71.3C0.299805 73.5 2.0998 75.3 4.2998 75.3H13.8998C16.0998 75.3 17.8998 73.5 17.8998 71.3V32.5C17.8998 30.3 16.0998 28.5 13.8998 28.5Z" fill="#57585E"/>
<path d="M13.8996 28.5H9.09961V75.3H13.8996C16.0996 75.3 17.8996 73.5 17.8996 71.3V32.5C17.8996 30.3 16.0996 28.5 13.8996 28.5Z" fill="#424449"/>
<path d="M9.09963 34.9C8.99963 34.9 8.89963 34.9 8.79963 34.9L2.19963 33C1.69963 32.9 1.39963 32.3 1.49963 31.8C1.59963 31.3 2.19963 31 2.69963 31.1L9.09963 32.9L15.4996 31.1C15.9996 31 16.5996 31.3 16.6996 31.8C16.7996 32.3 16.4996 32.9 15.9996 33L9.39963 34.9C9.29963 34.9 9.19963 34.9 9.09963 34.9ZM9.39963 41.2L15.9996 39.3C16.4996 39.2 16.7996 38.6 16.6996 38.1C16.5996 37.6 15.9996 37.3 15.4996 37.4L9.09963 39.2L2.69963 37.4C2.19963 37.3 1.59963 37.6 1.49963 38.1C1.39963 38.6 1.69963 39.2 2.19963 39.3L8.79963 41.2C8.89963 41.2 8.99963 41.2 9.09963 41.2C9.19963 41.2 9.29963 41.2 9.39963 41.2ZM9.39963 47.5L15.9996 45.6C16.4996 45.5 16.7996 44.9 16.6996 44.4C16.5996 43.9 15.9996 43.6 15.4996 43.7L9.09963 45.5L2.69963 43.7C2.19963 43.6 1.59963 43.9 1.49963 44.4C1.39963 44.9 1.69963 45.5 2.19963 45.6L8.79963 47.5C8.89963 47.5 8.99963 47.5 9.09963 47.5C9.19963 47.5 9.29963 47.5 9.39963 47.5ZM9.39963 53.8L15.9996 51.9C16.4996 51.8 16.7996 51.2 16.6996 50.7C16.5996 50.2 15.9996 49.9 15.4996 50L9.09963 51.8L2.69963 50C2.19963 49.9 1.59963 50.2 1.49963 50.7C1.39963 51.2 1.69963 51.8 2.19963 51.9L8.79963 53.8C8.89963 53.8 8.99963 53.8 9.09963 53.8C9.19963 53.8 9.29963 53.8 9.39963 53.8ZM9.39963 60.1L15.9996 58.2C16.4996 58.1 16.7996 57.5 16.6996 57C16.5996 56.5 15.9996 56.2 15.4996 56.3L9.09963 58.1L2.69963 56.3C2.19963 56.2 1.59963 56.5 1.49963 57C1.39963 57.5 1.69963 58.1 2.19963 58.2L8.79963 60.1C8.89963 60.1 8.99963 60.1 9.09963 60.1C9.19963 60.1 9.29963 60.1 9.39963 60.1ZM9.39963 66.4L15.9996 64.5C16.4996 64.4 16.7996 63.8 16.6996 63.3C16.5996 62.8 15.9996 62.5 15.4996 62.6L9.09963 64.4L2.69963 62.6C2.19963 62.5 1.59963 62.8 1.49963 63.3C1.39963 63.8 1.69963 64.4 2.19963 64.5L8.79963 66.4C8.89963 66.4 8.99963 66.4 9.09963 66.4C9.19963 66.4 9.29963 66.4 9.39963 66.4ZM9.39963 72.6L15.9996 70.7C16.4996 70.6 16.7996 70 16.6996 69.5C16.5996 69 15.9996 68.7 15.4996 68.8L9.09963 70.6L2.69963 68.8C2.19963 68.7 1.59963 69 1.49963 69.5C1.39963 70 1.69963 70.6 2.19963 70.7L8.79963 72.6C8.89963 72.6 8.99963 72.6 9.09963 72.6C9.19963 72.7 9.29963 72.7 9.39963 72.6Z" fill="#424449"/>
<path d="M16.6996 56.9999C16.5996 56.4999 15.9996 56.1999 15.4996 56.2999L9.09961 58.0999V60.0999C9.19961 60.0999 9.29961 60.0999 9.39961 60.0999L15.9996 58.1999C16.4996 57.9999 16.7996 57.4999 16.6996 56.9999Z" fill="#32353A"/>
<path d="M15.9996 64.5C16.4996 64.4 16.7996 63.8 16.6996 63.3C16.5996 62.8 15.9996 62.5 15.4996 62.6L9.09961 64.4V66.4C9.19961 66.4 9.29961 66.4 9.39961 66.4L15.9996 64.5Z" fill="#32353A"/>
<path d="M16.6996 69.6C16.5996 69.1 15.9996 68.8 15.4996 68.9L9.09961 70.7V72.7C9.19961 72.7 9.29961 72.7 9.39961 72.7L15.9996 70.8C16.4996 70.6 16.7996 70.1 16.6996 69.6Z" fill="#32353A"/>
<path d="M9.39961 34.9L15.9996 33C16.4996 32.9 16.7996 32.3 16.6996 31.8C16.5996 31.3 15.9996 31 15.4996 31.1L9.09961 32.9V34.9C9.19961 34.9 9.29961 34.9 9.39961 34.9Z" fill="#32353A"/>
<path d="M16.6996 38.1C16.5996 37.6 15.9996 37.3 15.4996 37.4L9.09961 39.2V41.2C9.19961 41.2 9.29961 41.2 9.39961 41.2L15.9996 39.3C16.4996 39.2 16.7996 38.6 16.6996 38.1Z" fill="#32353A"/>
<path d="M16.6996 50.7C16.5996 50.2 15.9996 49.9 15.4996 50L9.09961 51.8V53.8C9.19961 53.8 9.29961 53.8 9.39961 53.8L15.9996 51.9C16.4996 51.8 16.7996 51.2 16.6996 50.7Z" fill="#32353A"/>
<path d="M16.6996 44.3999C16.5996 43.8999 15.9996 43.5999 15.4996 43.6999L9.09961 45.4999V47.4999C9.19961 47.4999 9.29961 47.4999 9.39961 47.4999L15.9996 45.5999C16.4996 45.4999 16.7996 44.8999 16.6996 44.3999Z" fill="#32353A"/>
<path d="M26.3 57.2999C28.6748 57.2999 30.6 55.3748 30.6 52.9999C30.6 50.6251 28.6748 48.7 26.3 48.7C23.9252 48.7 22 50.6251 22 52.9999C22 55.3748 23.9252 57.2999 26.3 57.2999Z" fill="black" fill-opacity="0.45"/>
<path d="M23.2996 45C22.5996 45 22.0996 45.6 22.0996 46.2C22.0996 46.9 22.6996 47.4 23.2996 47.4H99.7996V45H23.2996Z" fill="black" fill-opacity="0.39"/>
<path d="M93.9 1.5H28.4C27.9 1.5 27.5 1.89999 27.5 2.39999C27.5 2.89999 27.9 3.29999 28.4 3.29999H93.9C94.4 3.29999 94.8 2.89999 94.8 2.39999C94.8 1.89999 94.4 1.5 93.9 1.5Z" fill="black" fill-opacity="0.33"/>
<path d="M140 1.5H104.9C104.4 1.5 104 1.89999 104 2.39999C104 2.89999 104.4 3.29999 104.9 3.29999H140C140.5 3.29999 140.9 2.89999 140.9 2.39999C140.9 1.89999 140.5 1.5 140 1.5Z" fill="black" fill-opacity="0.38"/>
<path d="M171.9 45.7999H237.2C236.7 45.4999 236.2 45.0999 235.8 44.7999H172C171.4 44.7999 171 44.2999 171 43.7999V41.2H170V43.7999C169.9 44.8999 170.8 45.7999 171.9 45.7999Z" fill="black" fill-opacity="0.4"/>
</svg>
