<svg width="117" height="117" viewBox="0 0 117 117" fill="none" xmlns="http://www.w3.org/2000/svg">
<path d="M116.888 58.4442C116.888 90.7228 90.7226 116.888 58.444 116.888C26.1666 116.888 0 90.7228 0 58.4442C0 26.1668 26.1666 0.000183105 58.444 0.000183105C90.7226 0.000183105 116.888 26.1668 116.888 58.4442Z" fill="#A1A3A7"/>
<path d="M111.903 82.0627C115.1 74.8387 116.888 66.8521 116.888 58.4441C116.888 26.1667 90.7226 8.39233e-05 58.444 8.39233e-05C26.1666 8.39233e-05 0 26.1667 0 58.4441C0 66.8521 1.78932 74.8387 4.98532 82.0627H111.903Z" fill="#B6E7F1"/>
<path d="M99.9545 56.4162C90.8119 59.9189 85.9892 62.5549 78.5359 60.1322C75.4825 59.1389 71.3719 56.2549 68.1639 56.6829C66.6999 56.8775 64.2252 58.4735 62.5759 59.5202C58.4065 62.1682 52.3412 61.8042 46.4039 61.4402C42.5932 61.2069 38.8345 60.9722 35.6652 61.5349C21.9079 63.9762 13.7278 69.0309 0.443848 65.5202C1.15051 71.3389 2.69986 76.8975 4.98519 82.0615H111.903C114.728 75.6775 116.448 68.6962 116.811 61.3549C113.483 57.9002 104.413 54.7082 99.9545 56.4162Z" fill="#9A756B"/>
<path d="M12.5307 94.5828H25.5427V92.0321H10.6294C11.2401 92.9001 11.8747 93.7508 12.5307 94.5828Z" fill="#E8E9E9"/>
<path d="M32.7627 92.0321V94.5828H47.824V92.0321H32.7627Z" fill="#E8E9E9"/>
<path d="M55.0454 92.0321V94.5828H70.1068V92.0321H55.0454Z" fill="#E8E9E9"/>
<path d="M77.3267 92.0321V94.5828H92.388V92.0321H77.3267Z" fill="#E8E9E9"/>
<path d="M99.812 92.0321V94.5828H104.357C105.015 93.7508 105.648 92.9001 106.26 92.0321H99.812Z" fill="#E8E9E9"/>
<path d="M35.4773 65.4001C44.4293 67.6827 50.3027 67.1814 55.0387 66.6787C57.7293 66.3934 60.052 66.1081 62.3627 66.3334C68.7427 66.9561 85.992 35.8094 85.1866 32.5427C84.3813 29.2747 51.864 28.1641 51.864 28.1641C59.02 25.0521 64.1146 21.4614 64.1146 21.4614C75.8906 24.5561 79.0333 20.3854 79.6067 17.7574C79.8227 16.7734 79.1933 15.7894 78.204 15.5947C71.7973 14.3361 64.5453 9.22807 61.3773 9.80408C57.9546 10.4267 47.2787 16.8787 39.4893 20.2134C35.6533 21.8561 28.6413 37.7214 27.488 38.6641C25.5373 40.2601 10.4427 50.5094 0.0333333 57.1067C0.024 57.5534 0 57.9961 0 58.4441C0 66.8521 1.78932 74.8387 4.98532 82.0614L6.51465 85.2854C16.3586 77.5241 33.6186 64.9254 35.4773 65.4001Z" fill="#F6A34E"/>
<path d="M48.9453 27.4281C48.9453 27.4281 70.0027 22.5774 81.5307 25.6321C85.7973 26.7628 89.5587 37.0014 89.2533 38.0921C87.3386 44.9174 81.628 46.9788 78.672 45.1121C75.716 43.2454 77.0267 38.7574 80.804 35.3681C82.8267 33.5534 59.3813 34.9161 59.3813 34.9161C59.3813 34.9161 48.9453 31.0321 48.9453 27.4281Z" fill="#F6A34E"/>
<path d="M56.1574 55.8335C55.2907 55.5175 54.38 55.2922 53.568 55.2922C53.16 55.2922 52.7747 55.3495 52.4334 55.4815C50.884 55.1855 49.3334 54.8015 47.764 54.3375C46.3147 53.9095 44.9174 53.3375 43.54 52.7148C44.0587 52.3415 44.5574 51.9322 45.032 51.4748C48.3627 48.2628 50.2814 44.3722 51.7614 40.0482C52.5467 37.7522 52.9787 34.5868 54.06 32.4668C56.0334 33.5508 58.0267 34.3815 58.9094 34.7322C58.6267 35.7335 58.4747 36.7895 58.4747 37.8815C58.4747 41.6335 60.2667 44.9668 63.0427 47.0722C63.04 47.1255 63.0374 47.1788 63.0374 47.2322C63.04 48.2415 63.6067 49.2682 64.6453 50.0535C64.2333 49.9842 63.824 49.9015 63.428 49.8028C63.428 49.8042 63.4294 49.8055 63.4294 49.8068C62.6574 49.6162 61.932 49.3682 61.3187 49.0442V49.0428C61.3147 49.0415 61.3094 49.0388 61.3054 49.0362C61.304 49.0362 61.304 49.0362 61.3027 49.0348C61.2987 49.0335 61.2947 49.0308 61.292 49.0295C61.2907 49.0282 61.2894 49.0282 61.288 49.0268C61.284 49.0255 61.2813 49.0228 61.2773 49.0215C61.276 49.0215 61.2747 49.0202 61.2747 49.0202C61.2707 49.0175 61.2667 49.0162 61.264 49.0135C61.2627 49.0135 61.2614 49.0122 61.26 49.0122C61.256 49.0095 61.2533 49.0082 61.2493 49.0068C61.248 49.0055 61.2467 49.0055 61.2453 49.0042C61.2427 49.0028 61.2387 49.0002 61.236 48.9988C61.2347 48.9975 61.2334 48.9975 61.232 48.9962C61.228 48.9948 61.2254 48.9935 61.2214 48.9908C61.22 48.9908 61.2187 48.9895 61.2174 48.9895C61.2147 48.9868 61.2107 48.9855 61.208 48.9828C61.2067 48.9828 61.2054 48.9815 61.204 48.9815C61.2 48.9788 61.1947 48.9762 61.1907 48.9735C60.1227 48.3748 58.6347 47.9362 57.284 47.9362C55.2747 47.9362 53.5667 48.9068 53.9907 51.7615C54.224 53.3348 55.016 54.7508 56.1574 55.8335Z" fill="#EA8938"/>
<path d="M58.9094 34.7322C58.0267 34.3815 56.0334 33.5508 54.0601 32.4668C54.2294 32.1348 54.4147 31.8282 54.6201 31.5549C55.8294 29.9415 57.5947 29.0895 59.8081 28.5895C60.7134 28.6295 61.7867 28.6802 62.9707 28.7455C61.0387 30.2348 59.5921 32.3228 58.9094 34.7322Z" fill="#EA8938"/>
<path d="M71.0735 27.6709H68.9321V22.7709H71.0735V27.6709Z" fill="#4A4E59"/>
<path d="M70.0025 25.0443C68.5478 25.0443 67.3678 24.5589 67.3678 23.9629C67.3678 23.3656 68.5478 22.8816 70.0025 22.8816C71.4585 22.8816 72.6371 23.3656 72.6371 23.9629C72.6371 24.5589 71.4585 25.0443 70.0025 25.0443ZM70.0025 22.5776C68.1385 22.5776 66.6265 23.1976 66.6265 23.9629C66.6265 24.7269 68.1385 25.3469 70.0025 25.3469C71.8665 25.3469 73.3784 24.7269 73.3784 23.9629C73.3784 23.1976 71.8665 22.5776 70.0025 22.5776Z" fill="#6B707A"/>
<path d="M72.5531 23.7042L72.6371 23.9629C72.6371 24.5589 71.4585 25.0442 70.0025 25.0442C68.5478 25.0442 67.3678 24.5589 67.3678 23.9629L67.4785 23.6695C67.2611 23.6149 67.0425 23.5642 66.8358 23.4975C66.7078 23.6429 66.6265 23.7989 66.6265 23.9629C66.6265 24.7269 68.1385 25.6162 70.0025 25.6162C71.8678 25.6162 73.3784 24.7269 73.3784 23.9629C73.3784 23.8122 73.3051 23.6695 73.1958 23.5335C72.9891 23.5989 72.7718 23.6522 72.5531 23.7042Z" fill="#93969C"/>
<path d="M71.6439 23.8242H68.3613C68.0746 23.8242 67.8413 23.5909 67.8413 23.3029V21.9829C67.8413 21.6949 68.0746 21.4616 68.3613 21.4616H71.6439C71.9319 21.4616 72.1653 21.6949 72.1653 21.9829V23.3029C72.1653 23.5909 71.9319 23.8242 71.6439 23.8242Z" fill="#93969C"/>
<path d="M63.3842 30.2802L62.5282 31.1389L60.5615 29.1776L61.4188 28.3189L63.3842 30.2802Z" fill="#4A4E59"/>
<path d="M61.8811 28.2856L60.5291 29.6389L59.6704 28.7829L61.0224 27.4282L61.8811 28.2856Z" fill="#93969C"/>
<path d="M81.5306 37.8814C81.5306 44.2481 76.3693 49.4094 70.0026 49.4094C63.6359 49.4094 58.4746 44.2481 58.4746 37.8814C58.4746 31.5148 63.6359 26.3534 70.0026 26.3534C76.3693 26.3534 81.5306 31.5148 81.5306 37.8814Z" fill="#4A4E59"/>
<path d="M79.72 37.8814C79.72 43.2481 75.3693 47.5974 70.0026 47.5974C64.636 47.5974 60.2866 43.2481 60.2866 37.8814C60.2866 32.5147 64.636 28.1641 70.0026 28.1641C75.3693 28.1641 79.72 32.5147 79.72 37.8814Z" fill="#EBECF4"/>
<path d="M70.0029 31.6602L69.5669 42.8789H70.4389L70.0029 31.6602Z" fill="#4A4E59"/>
<path d="M70.124 30.0068H69.8813V29.1868H70.124V30.0068Z" fill="#4A4E59"/>
<path d="M69.8813 46.6616H70.1241V45.8418H69.8813V46.6616Z" fill="#4A4E59"/>
<path d="M65.5614 31.3694L65.3628 31.5081L64.8921 30.8361L65.0908 30.6974L65.5614 31.3694Z" fill="#4A4E59"/>
<path d="M75.1133 45.0122L74.9146 45.1509L74.4453 44.4789L74.6427 44.3402L75.1133 45.0122Z" fill="#4A4E59"/>
<path d="M62.6038 35.1016L62.5212 35.3296L61.7505 35.0496L61.8332 34.8216L62.6038 35.1016Z" fill="#4A4E59"/>
<path d="M78.2547 40.7987L78.172 41.0254L77.4014 40.7454L77.484 40.5174L78.2547 40.7987Z" fill="#4A4E59"/>
<path d="M62.3237 39.8561L62.3864 40.0894L61.5944 40.3027L61.5317 40.0681L62.3237 39.8561Z" fill="#4A4E59"/>
<path d="M78.4106 35.5455L78.4733 35.7789L77.6813 35.9922L77.6187 35.7575L78.4106 35.5455Z" fill="#4A4E59"/>
<path d="M64.8215 43.9108L65.0068 44.0668L64.4788 44.6948L64.2935 44.5388L64.8215 43.9108Z" fill="#4A4E59"/>
<path d="M75.5265 31.1523L75.7118 31.3083L75.1839 31.9363L74.9985 31.7816L75.5265 31.1523Z" fill="#4A4E59"/>
<path d="M67.8374 45.5401L68.0707 45.6028L67.8587 46.3948L67.624 46.3321L67.8374 45.5401Z" fill="#4A4E59"/>
<path d="M72.1465 29.4521L72.3812 29.5148L72.1692 30.3081L71.9346 30.2454L72.1465 29.4521Z" fill="#4A4E59"/>
<path d="M71.2588 45.7416L71.4975 45.7002L71.6388 46.5069L71.4015 46.5496L71.2588 45.7416Z" fill="#4A4E59"/>
<path d="M68.3667 29.3402L68.6054 29.2975L68.7467 30.1055L68.5094 30.1482L68.3667 29.3402Z" fill="#4A4E59"/>
<path d="M74.4453 44.4789L74.6427 44.3402L75.1133 45.0122L74.9146 45.1509L74.4453 44.4789Z" fill="#4A4E59"/>
<path d="M64.8921 30.8361L65.0908 30.6974L65.5614 31.3694L65.3628 31.5081L64.8921 30.8361Z" fill="#4A4E59"/>
<path d="M76.7988 41.9868L76.9201 41.7775L77.6308 42.1881L77.5095 42.3975L76.7988 41.9868Z" fill="#4A4E59"/>
<path d="M62.376 33.6602L62.496 33.4509L63.2066 33.8602L63.0853 34.0696L62.376 33.6602Z" fill="#4A4E59"/>
<path d="M77.8784 38.7347L77.8998 38.4934L78.7171 38.5641L78.6958 38.8054L77.8784 38.7347Z" fill="#4A4E59"/>
<path d="M61.2881 37.2827L61.3094 37.0414L62.1268 37.1134L62.1054 37.3547L61.2881 37.2827Z" fill="#4A4E59"/>
<path d="M61.8332 41.0254L61.7505 40.7987L62.5212 40.5174L62.6038 40.7454L61.8332 41.0254Z" fill="#4A4E59"/>
<path d="M75.6868 32.4109L75.5161 32.2402L76.0961 31.6602L76.2668 31.8309L75.6868 32.4109Z" fill="#4A4E59"/>
<path d="M63.9107 44.1882L63.7388 44.0162L64.3187 43.4362L64.4894 43.6082L63.9107 44.1882Z" fill="#4A4E59"/>
<path d="M72.8238 30.5254L72.5972 30.4427L72.8771 29.6721L73.1052 29.7547L72.8238 30.5254Z" fill="#4A4E59"/>
<path d="M67.1279 46.1763L66.8999 46.0923L67.1812 45.3216L67.4079 45.4056L67.1279 46.1763Z" fill="#4A4E59"/>
<path d="M69.4336 30.0255L69.1923 30.0469L69.1216 29.2309L69.3616 29.2095L69.4336 30.0255Z" fill="#4A4E59"/>
<path d="M70.8851 46.6176L70.6437 46.6389L70.5718 45.8216L70.8131 45.8002L70.8851 46.6176Z" fill="#4A4E59"/>
<path d="M66.1493 31.0069L65.94 31.1282L65.5293 30.4175L65.7386 30.2962L66.1493 31.0069Z" fill="#4A4E59"/>
<path d="M74.4761 45.4294L74.2668 45.5508L73.8574 44.8401L74.0668 44.7201L74.4761 45.4294Z" fill="#4A4E59"/>
<path d="M63.5865 33.2828L63.4479 33.4814L62.7759 33.0108L62.9145 32.8134L63.5865 33.2828Z" fill="#4A4E59"/>
<path d="M77.2291 42.8362L77.0905 43.0349L76.4185 42.5642L76.5571 42.3656L77.2291 42.8362Z" fill="#4A4E59"/>
<path d="M62.2268 36.4295L62.1854 36.6682L61.3774 36.5255L61.4188 36.2869L62.2268 36.4295Z" fill="#4A4E59"/>
<path d="M78.6282 39.3214L78.5868 39.5601L77.7788 39.4174L77.8215 39.1787L78.6282 39.3214Z" fill="#4A4E59"/>
<path d="M62.3237 39.8561L62.3864 40.0894L61.5944 40.3027L61.5317 40.0681L62.3237 39.8561Z" fill="#4A4E59"/>
<path d="M78.4106 35.5455L78.4733 35.7789L77.6813 35.9922L77.6187 35.7575L78.4106 35.5455Z" fill="#4A4E59"/>
<path d="M63.8599 42.9201L64.0159 43.1054L63.3866 43.6321L63.2319 43.4467L63.8599 42.9201Z" fill="#4A4E59"/>
<path d="M76.6186 32.2148L76.7733 32.4001L76.1452 32.9268L75.9893 32.7414L76.6186 32.2148Z" fill="#4A4E59"/>
<path d="M66.5468 45.0482L66.7669 45.1509L66.4202 45.8936L66.2002 45.7909L66.5468 45.0482Z" fill="#4A4E59"/>
<path d="M73.5854 29.9535L73.8054 30.0562L73.4588 30.7988L73.2388 30.6975L73.5854 29.9535Z" fill="#4A4E59"/>
<path d="M69.8813 46.6616H70.1241V45.8418H69.8813V46.6616Z" fill="#4A4E59"/>
<path d="M69.8813 29.1868H70.124V30.0068H69.8813V29.1868Z" fill="#4A4E59"/>
<path d="M73.2388 45.1509L73.4588 45.0482L73.8054 45.7909L73.5854 45.8936L73.2388 45.1509Z" fill="#4A4E59"/>
<path d="M66.2002 30.0562L66.4202 29.9535L66.7669 30.6975L66.5468 30.7988L66.2002 30.0562Z" fill="#4A4E59"/>
<path d="M75.9907 43.1054L76.1454 42.9201L76.7734 43.4467L76.6187 43.6321L75.9907 43.1054Z" fill="#4A4E59"/>
<path d="M63.2319 32.4001L63.3879 32.2148L64.0159 32.7414L63.8599 32.9268L63.2319 32.4001Z" fill="#4A4E59"/>
<path d="M77.6187 40.0894L77.6813 39.8561L78.4733 40.0681L78.4106 40.3027L77.6187 40.0894Z" fill="#4A4E59"/>
<path d="M61.5317 35.7789L61.5944 35.5455L62.3864 35.7575L62.3237 35.9922L61.5317 35.7789Z" fill="#4A4E59"/>
<path d="M77.8215 36.6682L77.7788 36.4295L78.5868 36.2869L78.6282 36.5255L77.8215 36.6682Z" fill="#4A4E59"/>
<path d="M61.4188 39.5601L61.3774 39.3214L62.1854 39.1787L62.2268 39.4174L61.4188 39.5601Z" fill="#4A4E59"/>
<path d="M76.5571 33.4814L76.4185 33.2828L77.0905 32.8134L77.2291 33.0108L76.5571 33.4814Z" fill="#4A4E59"/>
<path d="M62.9145 43.0349L62.7759 42.8362L63.4479 42.3656L63.5865 42.5642L62.9145 43.0349Z" fill="#4A4E59"/>
<path d="M74.0666 31.1282L73.856 31.0069L74.2666 30.2962L74.476 30.4175L74.0666 31.1282Z" fill="#4A4E59"/>
<path d="M65.7386 45.5508L65.5293 45.4294L65.9386 44.7201L66.1493 44.8401L65.7386 45.5508Z" fill="#4A4E59"/>
<path d="M70.8131 30.0469L70.5718 30.0255L70.6437 29.2095L70.8851 29.2309L70.8131 30.0469Z" fill="#4A4E59"/>
<path d="M69.3616 46.6389L69.1216 46.6176L69.1923 45.8002L69.4336 45.8216L69.3616 46.6389Z" fill="#4A4E59"/>
<path d="M67.4079 30.4427L67.1812 30.5254L66.8999 29.7547L67.1279 29.6721L67.4079 30.4427Z" fill="#4A4E59"/>
<path d="M73.1052 46.0923L72.8771 46.1763L72.5972 45.4056L72.8238 45.3216L73.1052 46.0923Z" fill="#4A4E59"/>
<path d="M64.4894 32.2402L64.3187 32.4109L63.7388 31.8309L63.9107 31.6602L64.4894 32.2402Z" fill="#4A4E59"/>
<path d="M76.2668 44.0162L76.0961 44.1882L75.5161 43.6082L75.6868 43.4362L76.2668 44.0162Z" fill="#4A4E59"/>
<path d="M62.6038 35.1016L62.5212 35.3296L61.7505 35.0496L61.8332 34.8216L62.6038 35.1016Z" fill="#4A4E59"/>
<path d="M78.2547 40.7987L78.172 41.0254L77.4014 40.7454L77.484 40.5174L78.2547 40.7987Z" fill="#4A4E59"/>
<path d="M62.1054 38.4934L62.1268 38.7347L61.3094 38.8054L61.2881 38.5641L62.1054 38.4934Z" fill="#4A4E59"/>
<path d="M78.6958 37.0414L78.7171 37.2827L77.8998 37.3547L77.8784 37.1134L78.6958 37.0414Z" fill="#4A4E59"/>
<path d="M63.0853 41.7775L63.2066 41.9868L62.496 42.3975L62.376 42.1881L63.0853 41.7775Z" fill="#4A4E59"/>
<path d="M77.5095 33.4509L77.6308 33.6602L76.9201 34.0696L76.7988 33.8602L77.5095 33.4509Z" fill="#4A4E59"/>
<path d="M65.3628 44.3402L65.5614 44.4789L65.0908 45.1509L64.8921 45.0122L65.3628 44.3402Z" fill="#4A4E59"/>
<path d="M74.9146 30.6974L75.1133 30.8361L74.6427 31.5081L74.4453 31.3694L74.9146 30.6974Z" fill="#4A4E59"/>
<path d="M68.5094 45.7002L68.7467 45.7416L68.6054 46.5496L68.3667 46.5069L68.5094 45.7002Z" fill="#4A4E59"/>
<path d="M71.4015 29.2975L71.6388 29.3402L71.4975 30.1482L71.2588 30.1055L71.4015 29.2975Z" fill="#4A4E59"/>
<path d="M71.9346 45.6028L72.1692 45.5401L72.3812 46.3321L72.1479 46.3948L71.9346 45.6028Z" fill="#4A4E59"/>
<path d="M67.624 29.5148L67.8587 29.4521L68.0707 30.2454L67.8374 30.3081L67.624 29.5148Z" fill="#4A4E59"/>
<path d="M74.9985 44.0668L75.1839 43.9108L75.7118 44.5388L75.5265 44.6948L74.9985 44.0668Z" fill="#4A4E59"/>
<path d="M64.2935 31.3083L64.4788 31.1523L65.0068 31.7816L64.8215 31.9363L64.2935 31.3083Z" fill="#4A4E59"/>
<path d="M77.1265 41.3789L77.2291 41.1603L77.9731 41.5069L77.8705 41.7256L77.1265 41.3789Z" fill="#4A4E59"/>
<path d="M62.0332 34.3402L62.1345 34.1216L62.8785 34.4682L62.7759 34.6882L62.0332 34.3402Z" fill="#4A4E59"/>
<path d="M77.9199 38.0454H78.7402V37.8027H77.9199V38.0454Z" fill="#4A4E59"/>
<path d="M61.2651 38.0442V37.8029H62.0851V38.0442H61.2651Z" fill="#4A4E59"/>
<path d="M77.2291 34.6868L77.1265 34.4681L77.8705 34.1214L77.9731 34.3401L77.2291 34.6868Z" fill="#4A4E59"/>
<path d="M62.1345 41.7256L62.0332 41.5069L62.7759 41.1603L62.8785 41.3789L62.1345 41.7256Z" fill="#4A4E59"/>
<path d="M71.3614 38.1694C71.3614 38.9201 70.7534 39.5281 70.0027 39.5281C69.2521 39.5281 68.644 38.9201 68.644 38.1694C68.644 37.4188 69.2521 36.8107 70.0027 36.8107C70.7534 36.8107 71.3614 37.4188 71.3614 38.1694Z" fill="#4A4E59"/>
<path d="M81.5306 37.8816C81.5306 37.8696 81.5306 37.8589 81.5306 37.8469C81.5306 37.8576 81.5306 37.8696 81.5306 37.8816ZM81.5306 37.8349C81.5306 37.8283 81.5306 37.8189 81.5306 37.8123C81.5306 37.8203 81.5306 37.8269 81.5306 37.8349ZM81.5306 37.7976C81.5306 37.7909 81.5306 37.7843 81.5306 37.7776C81.5306 37.7843 81.5306 37.7909 81.5306 37.7976ZM81.5306 37.7629C81.5306 37.7563 81.5306 37.7496 81.5306 37.7443C81.5306 37.7496 81.5306 37.7563 81.5306 37.7629ZM81.5306 37.7269C81.5293 37.7229 81.5293 37.7163 81.5293 37.7123C81.5293 37.7176 81.5293 37.7216 81.5306 37.7269Z" fill="#D48E45"/>
<path d="M63.0426 47.0708C62.0452 46.3135 61.1746 45.3975 60.4692 44.3601C60.9492 43.9828 61.4266 43.6161 61.9172 43.2721C62.4372 44.0508 63.0679 44.7508 63.7866 45.3495C63.3199 45.8748 63.0786 46.4668 63.0426 47.0708ZM76.6532 44.9655C78.5399 43.1935 79.7199 40.6748 79.7199 37.8815C79.7199 35.8748 79.1119 34.0121 78.0706 32.4641C78.3812 31.8868 78.7052 31.3175 79.0639 30.7655C80.5732 32.6841 81.4919 35.0895 81.5292 37.7121C81.5292 37.7161 81.5292 37.7228 81.5306 37.7268C81.5306 37.7321 81.5306 37.7375 81.5306 37.7441C81.5306 37.7495 81.5306 37.7561 81.5306 37.7628C81.5306 37.7681 81.5306 37.7721 81.5306 37.7775C81.5306 37.7841 81.5306 37.7908 81.5306 37.7975C81.5306 37.8028 81.5306 37.8068 81.5306 37.8121C81.5306 37.8188 81.5306 37.8281 81.5306 37.8348C81.5306 37.8388 81.5306 37.8428 81.5306 37.8468C81.5306 37.8588 81.5306 37.8695 81.5306 37.8815C81.5306 39.4321 81.2252 40.9108 80.6692 42.2615C79.2879 43.1415 77.8066 44.2508 76.6532 44.9655Z" fill="#40434D"/>
<path d="M63.7868 45.3496C63.0681 44.7509 62.4375 44.0509 61.9175 43.2723C62.9561 42.5429 64.0495 41.9176 65.3388 41.5123C66.6762 41.0909 68.1868 40.8149 69.6615 40.4323L69.5668 42.8789H70.4388L70.3362 40.2469C72.2575 39.6909 74.0655 38.8829 75.2855 37.2483C76.1228 36.1283 76.7522 34.9669 77.3562 33.8189L77.6308 33.6603L77.5295 33.4856C77.7095 33.1429 77.8882 32.8016 78.0708 32.4643C79.1122 34.0123 79.7201 35.8749 79.7201 37.8816C79.7201 40.6749 78.5401 43.1936 76.6535 44.9656C76.5602 45.0229 76.4695 45.0789 76.3815 45.1309C76.3801 45.1296 76.3801 45.1296 76.3801 45.1296L76.0495 45.3176C76.0415 45.3149 75.6655 45.2083 75.0548 45.0536L75.1135 45.0123L74.6428 44.3403L74.4455 44.4789L74.8028 44.9896C74.5975 44.9389 74.3708 44.8843 74.1282 44.8269L74.0668 44.7203L73.9521 44.7856C72.1828 44.3776 69.6268 43.8829 67.6228 43.8829C66.7295 43.8829 65.9468 43.9803 65.3922 44.2283C64.6988 44.5363 64.1668 44.9203 63.7868 45.3496ZM75.1841 43.9109L74.9988 44.0669L75.5268 44.6949L75.7121 44.5389L75.1841 43.9109ZM64.8215 43.9109L64.2935 44.5389L64.4788 44.6949L65.0068 44.0669L64.8215 43.9109ZM75.6868 43.4363L75.5161 43.6083L76.0962 44.1883L76.2668 44.0163L75.6868 43.4363ZM64.3188 43.4363L63.7388 44.0163L63.9108 44.1883L64.4895 43.6083L64.3188 43.4363ZM76.1455 42.9203L75.9908 43.1056L76.6188 43.6323L76.7735 43.4469L76.1455 42.9203ZM63.8602 42.9203L63.2322 43.4469L63.3868 43.6323L64.0161 43.1056L63.8602 42.9203ZM76.5575 42.3656L76.4188 42.5643L77.0908 43.0349L77.2295 42.8363L76.5575 42.3656ZM63.4481 42.3656L62.7762 42.8363L62.9148 43.0349L63.5868 42.5643L63.4481 42.3656ZM76.9202 41.7776L76.7988 41.9869L77.5095 42.3976L77.6308 42.1883L76.9202 41.7776ZM77.2295 41.1603L77.1268 41.3789L77.8708 41.7256L77.9735 41.507L77.2295 41.1603ZM77.4015 40.7456L78.1722 41.0256L78.2548 40.7989L77.4841 40.5176L77.4015 40.7456ZM77.6815 39.8563L77.6188 40.0896L78.4108 40.3029L78.4735 40.0683L77.6815 39.8563ZM77.8215 39.1789L77.7788 39.4176L78.5868 39.5603L78.6282 39.3216L77.8215 39.1789ZM77.9002 38.4936L77.8788 38.7349L78.6962 38.8056L78.7175 38.5643L77.9002 38.4936ZM77.9202 37.8029V38.0456H78.7402V37.8029H77.9202ZM78.6962 37.0416L77.8788 37.1136L77.9002 37.3549L78.7175 37.2829L78.6962 37.0416ZM78.5868 36.2869L77.7788 36.4296L77.8215 36.6683L78.6282 36.5256L78.5868 36.2869ZM77.6188 35.7576L77.6815 35.9923L78.4735 35.7789L78.4108 35.5456L77.6188 35.7576ZM78.1722 34.8216L77.4015 35.1029L77.4841 35.3296L78.2548 35.0496L78.1722 34.8216ZM77.8708 34.1216L77.1268 34.4683L77.2295 34.6869L77.9735 34.3403L77.8708 34.1216Z" fill="#C8C9D4"/>
<path d="M69.5669 42.8789L69.6616 40.4322C69.8882 40.3722 70.1136 40.3122 70.3362 40.2469L70.4389 42.8789H69.5669Z" fill="#40434D"/>
<path d="M64.4788 44.6948L64.2935 44.5388L64.8215 43.9108L65.0068 44.0668L64.4788 44.6948Z" fill="#40434D"/>
<path d="M75.0547 45.0535C74.9747 45.0321 74.8907 45.0108 74.8027 44.9895L74.4453 44.4788L74.6427 44.3401L75.1133 45.0121L75.0547 45.0535Z" fill="#40434D"/>
<path d="M77.5095 42.3975L76.7988 41.9868L76.9201 41.7775L77.6308 42.1881L77.5095 42.3975Z" fill="#40434D"/>
<path d="M78.6958 38.8054L77.8784 38.7347L77.8998 38.4934L78.7171 38.5641L78.6958 38.8054Z" fill="#40434D"/>
<path d="M77.484 35.3296L77.4014 35.1029L78.172 34.8216L78.2547 35.0496L77.484 35.3296Z" fill="#40434D"/>
<path d="M63.9107 44.1882L63.7388 44.0162L64.3187 43.4362L64.4894 43.6082L63.9107 44.1882Z" fill="#40434D"/>
<path d="M74.1282 44.8269C74.0708 44.8136 74.0121 44.8002 73.9521 44.7856L74.0668 44.7202L74.1282 44.8269Z" fill="#40434D"/>
<path d="M77.0905 43.0349L76.4185 42.5642L76.5571 42.3656L77.2291 42.8362L77.0905 43.0349Z" fill="#40434D"/>
<path d="M78.5868 39.5601L77.7788 39.4174L77.8215 39.1787L78.6282 39.3214L78.5868 39.5601Z" fill="#40434D"/>
<path d="M77.6813 35.9922L77.6187 35.7575L78.4106 35.5455L78.4733 35.7789L77.6813 35.9922Z" fill="#40434D"/>
<path d="M63.3866 43.6321L63.2319 43.4467L63.8599 42.9201L64.0159 43.1054L63.3866 43.6321Z" fill="#40434D"/>
<path d="M76.6187 43.6321L75.9907 43.1054L76.1454 42.9201L76.7734 43.4467L76.6187 43.6321Z" fill="#40434D"/>
<path d="M78.4106 40.3027L77.6187 40.0894L77.6813 39.8561L78.4733 40.0681L78.4106 40.3027Z" fill="#40434D"/>
<path d="M77.8215 36.6682L77.7788 36.4295L78.5868 36.2869L78.6282 36.5255L77.8215 36.6682Z" fill="#40434D"/>
<path d="M62.9145 43.0349L62.7759 42.8362L63.4479 42.3656L63.5865 42.5642L62.9145 43.0349Z" fill="#40434D"/>
<path d="M76.0961 44.1882L75.5161 43.6082L75.6868 43.4362L76.2668 44.0162L76.0961 44.1882Z" fill="#40434D"/>
<path d="M78.172 41.0254L77.4014 40.7454L77.484 40.5174L78.2547 40.7987L78.172 41.0254Z" fill="#40434D"/>
<path d="M77.8998 37.3547L77.8784 37.1134L78.6958 37.0414L78.7171 37.2827L77.8998 37.3547Z" fill="#40434D"/>
<path d="M77.356 33.8188C77.4133 33.7068 77.472 33.5962 77.5293 33.4855L77.6306 33.6602L77.356 33.8188Z" fill="#40434D"/>
<path d="M75.5265 44.6948L74.9985 44.0668L75.1839 43.9108L75.7118 44.5388L75.5265 44.6948Z" fill="#40434D"/>
<path d="M77.8705 41.7256L77.1265 41.3789L77.2291 41.1603L77.9731 41.5069L77.8705 41.7256Z" fill="#40434D"/>
<path d="M77.9199 38.0454H78.7402V37.8027H77.9199V38.0454Z" fill="#40434D"/>
<path d="M77.2291 34.6868L77.1265 34.4681L77.8705 34.1214L77.9731 34.3401L77.2291 34.6868Z" fill="#40434D"/>
<path d="M67.8026 59.3974C67.8026 59.3974 61.1133 58.6974 59.4786 57.5307C58.0266 56.4934 51.5346 52.9974 50.9839 57.6427C50.8199 59.0294 51.332 60.4107 52.252 61.4601C53.3573 62.7187 55.3213 64.3681 58.4746 65.2121C63.9973 66.6894 67.7213 67.2561 69.2773 65.7001C70.8333 64.1441 75.0373 58.3867 67.8026 59.3974Z" fill="#F6A34E"/>
<path d="M69.6025 61.0403C67.2638 61.0403 63.8932 60.6896 60.7852 59.5976C60.9718 59.3123 61.1758 59.0376 61.3958 58.7763C62.2585 59.0869 63.1398 59.3163 63.9905 59.3976C64.0158 59.4003 64.0398 59.4029 64.0638 59.4056C65.8412 59.5749 68.0105 59.7469 70.0678 59.7469C70.4785 59.7469 70.8852 59.7403 71.2825 59.7256C71.6998 60.0109 71.8825 60.4163 71.9038 60.8843C71.3812 60.9789 70.5825 61.0403 69.6025 61.0403Z" fill="#EB8C3C"/>
<path d="M56.74 57.9215C56.8374 57.5348 56.7067 57.1535 56.4227 56.9855C55.2867 56.3121 52.5213 55.0788 51.8973 58.1855C51.5827 59.7521 53.5307 61.0055 54.336 61.4588C54.5574 61.5841 54.8213 61.5521 55.0173 61.3815C55.4453 61.0081 56.1974 60.0882 56.74 57.9215Z" fill="#F8B56E"/>
<path d="M58.4747 65.2122C58.3721 65.1842 58.2721 65.1562 58.1721 65.1268C58.2721 65.1562 58.3721 65.1842 58.4747 65.2122ZM52.8027 62.0428C52.7881 62.0282 52.7734 62.0135 52.7587 62.0002C52.7734 62.0135 52.7881 62.0282 52.8027 62.0428ZM52.7547 61.9948C52.7481 61.9895 52.7427 61.9828 52.7361 61.9762C52.7427 61.9828 52.7481 61.9895 52.7547 61.9948ZM52.712 61.9522C52.708 61.9482 52.7041 61.9455 52.7014 61.9415C52.7041 61.9455 52.708 61.9482 52.712 61.9522ZM52.6787 61.9188C52.664 61.9028 52.6481 61.8882 52.6334 61.8722C52.6481 61.8882 52.664 61.9028 52.6787 61.9188ZM52.6307 61.8695C52.5094 61.7442 52.3961 61.6215 52.2907 61.5028C52.3961 61.6215 52.5094 61.7442 52.6307 61.8695ZM50.9907 57.5895C51.1441 56.4108 51.6867 55.7682 52.4334 55.4815C51.6867 55.7682 51.1441 56.4122 50.9907 57.5895Z" fill="#F49641"/>
<path d="M56.1571 55.8335C55.2904 55.5175 54.3798 55.2922 53.5678 55.2922C53.1598 55.2922 52.7744 55.3495 52.4331 55.4815C52.7744 55.3495 53.1598 55.2922 53.5678 55.2922C54.3798 55.2922 55.2904 55.5175 56.1571 55.8335Z" fill="#E67B30"/>
<path d="M59.2078 65.4001C58.9611 65.3361 58.7291 65.2801 58.4745 65.2121C58.3718 65.1841 58.2718 65.1561 58.1718 65.1268C55.6518 64.3935 53.9211 63.1468 52.8025 62.0428C52.7878 62.0281 52.7731 62.0135 52.7585 62.0001C52.7571 61.9975 52.7558 61.9961 52.7545 61.9948C52.7478 61.9895 52.7425 61.9828 52.7358 61.9761C52.7278 61.9681 52.7198 61.9601 52.7118 61.9521C52.7078 61.9481 52.7038 61.9455 52.7011 61.9415C52.6931 61.9335 52.6851 61.9255 52.6785 61.9188C52.6638 61.9028 52.6478 61.8882 52.6331 61.8722C52.6331 61.8722 52.6318 61.8708 52.6305 61.8695C52.5091 61.7441 52.3958 61.6215 52.2905 61.5028C52.2771 61.4881 52.2651 61.4735 52.2518 61.4601C51.4465 60.5415 50.9545 59.3695 50.9531 58.1615C50.9531 57.9895 50.9625 57.8161 50.9838 57.6428C50.9851 57.6255 50.9878 57.6068 50.9905 57.5895C51.1438 56.4122 51.6865 55.7681 52.4331 55.4815C52.7745 55.3495 53.1598 55.2921 53.5678 55.2921C54.3798 55.2921 55.2905 55.5175 56.1571 55.8335C56.1611 55.8375 56.1651 55.8401 56.1678 55.8441C55.6198 55.6455 55.0531 55.4815 54.5065 55.3868L54.5185 55.4028C54.8185 55.8041 55.1505 56.1775 55.5118 56.5268C55.0318 56.3268 54.4825 56.1681 53.9558 56.1681C53.0491 56.1681 52.2078 56.6388 51.8971 58.1855C51.5825 59.7521 53.5305 61.0055 54.3358 61.4588C54.4265 61.5108 54.5238 61.5348 54.6211 61.5348C54.7611 61.5348 54.9011 61.4828 55.0171 61.3815C55.4451 61.0081 56.1971 60.0882 56.7398 57.9215C56.7705 57.8015 56.7785 57.6828 56.7665 57.5708C57.9651 58.4308 59.3465 59.0935 60.7851 59.5975C59.6838 61.2748 59.1625 63.3308 59.2078 65.4001Z" fill="#F49641"/>
<path d="M60.7855 59.5974C59.3468 59.0934 57.9655 58.4308 56.7668 57.5708C56.7415 57.3201 56.6188 57.1014 56.4228 56.9854C56.1815 56.8427 55.8655 56.6734 55.5121 56.5267C55.1508 56.1774 54.8188 55.8041 54.5188 55.4028L54.5068 55.3868C55.0535 55.4814 55.6202 55.6454 56.1682 55.8441C56.5575 56.2121 56.9855 56.5401 57.4468 56.8228C58.5455 57.4961 59.9428 58.2521 61.3962 58.7761C61.1762 59.0374 60.9721 59.3121 60.7855 59.5974Z" fill="#E87E33"/>
<path d="M54.6213 61.5349C54.524 61.5349 54.4267 61.5109 54.336 61.4589C53.5307 61.0056 51.5827 59.7522 51.8973 58.1856C52.208 56.6389 53.0493 56.1682 53.956 56.1682C54.4827 56.1682 55.032 56.3269 55.512 56.5269C55.8653 56.6736 56.1813 56.8429 56.4227 56.9856C56.6187 57.1016 56.7413 57.3202 56.7667 57.5709C56.7787 57.6829 56.7707 57.8016 56.74 57.9216C56.1974 60.0882 55.4453 61.0082 55.0173 61.3816C54.9013 61.4829 54.7613 61.5349 54.6213 61.5349Z" fill="#F5A75B"/>
<path d="M70.9145 50.3734C70.9145 50.3734 64.3799 50.7628 61.1905 48.9734C58.5319 47.4828 53.2812 46.9881 53.9905 51.7614C54.3052 53.8748 55.6265 55.7068 57.4465 56.8228C59.1972 57.8961 61.7052 59.1788 63.9905 59.3974C68.0359 59.7868 74.1665 60.2014 76.3599 58.5428C77.9399 57.3481 83.8279 48.8174 70.9145 50.3734Z" fill="#F6A34E"/>
<path d="M77.3571 54.0496C70.1998 54.0496 66.6651 52.6736 64.9478 51.4642C65.0984 51.1536 65.2678 50.8522 65.4531 50.5629C65.5611 50.6189 65.6744 50.6762 65.7918 50.7322C68.1318 51.8402 72.3091 52.7162 74.8038 52.8629C75.2091 52.8869 75.6611 52.9162 76.1438 52.9162C77.0051 52.9162 77.9664 52.8242 78.9411 52.4416C79.0824 52.8856 79.1024 53.3682 79.0344 53.8602C78.6198 53.9056 78.2131 54.0442 77.7904 54.0482C77.6438 54.0482 77.4998 54.0496 77.3571 54.0496Z" fill="#EB8C3C"/>
<path d="M64.6509 50.0576C64.2375 49.9883 63.8269 49.9056 63.4296 49.807C63.4296 49.8056 63.4282 49.8043 63.4282 49.803C63.8242 49.9016 64.2335 49.9843 64.6455 50.0536C64.6482 50.055 64.6495 50.0563 64.6509 50.0576Z" fill="#DD732B"/>
<path d="M60.8827 51.0549C61.0027 50.5789 60.8414 50.1109 60.4934 49.9056C59.0947 49.0762 55.6934 47.5576 54.9254 51.3802C54.5374 53.3082 56.9347 54.8496 57.924 55.4082C58.1974 55.5629 58.5227 55.5229 58.7641 55.3122C59.2894 54.8536 60.2147 53.7216 60.8827 51.0549Z" fill="#F7B066"/>
<path d="M56.1571 55.8335C55.0158 54.7508 54.2238 53.3348 53.9905 51.7615C53.5665 48.9068 55.2745 47.9362 57.2838 47.9362C55.2745 47.9362 53.5665 48.9068 53.9905 51.7615C54.2251 53.3348 55.0158 54.7508 56.1571 55.8335ZM63.4291 49.8068C62.6571 49.6162 61.9318 49.3682 61.3185 49.0442C61.9318 49.3682 62.6571 49.6162 63.4291 49.8068ZM61.3185 49.0428C61.3145 49.0415 61.3091 49.0388 61.3051 49.0362C61.3091 49.0388 61.3145 49.0415 61.3185 49.0428ZM61.3025 49.0348C61.2985 49.0335 61.2945 49.0308 61.2918 49.0295C61.2945 49.0308 61.2985 49.0335 61.3025 49.0348ZM61.2878 49.0268C61.2838 49.0255 61.2811 49.0228 61.2771 49.0215C61.2811 49.0228 61.2838 49.0255 61.2878 49.0268ZM61.2745 49.0202C61.2705 49.0175 61.2665 49.0162 61.2638 49.0135C61.2665 49.0162 61.2705 49.0175 61.2745 49.0202ZM61.2598 49.0122C61.2558 49.0095 61.2531 49.0082 61.2491 49.0068C61.2531 49.0082 61.2558 49.0095 61.2598 49.0122ZM61.2451 49.0042C61.2424 49.0028 61.2385 49.0002 61.2358 48.9988C61.2385 49.0002 61.2424 49.0028 61.2451 49.0042ZM61.2318 48.9962C61.2278 48.9948 61.2251 48.9935 61.2211 48.9908C61.2251 48.9935 61.2278 48.9948 61.2318 48.9962ZM61.2171 48.9895C61.2145 48.9868 61.2105 48.9855 61.2078 48.9828C61.2105 48.9855 61.2145 48.9868 61.2171 48.9895ZM61.2038 48.9815C61.1998 48.9788 61.1945 48.9762 61.1905 48.9735C61.1945 48.9762 61.1998 48.9788 61.2038 48.9815Z" fill="#E67B30"/>
<path d="M64.064 59.4055C64.04 59.4029 64.016 59.4002 63.9907 59.3975C63.14 59.3162 62.2587 59.0868 61.396 58.7762C62.2587 59.0868 63.14 59.3162 63.9907 59.3975C64.016 59.4002 64.04 59.4029 64.064 59.4055Z" fill="#E87E33"/>
<path d="M56.1679 55.8442C56.1652 55.8402 56.1612 55.8376 56.1572 55.8336C56.1612 55.8376 56.1652 55.8402 56.1679 55.8442Z" fill="#F28A3A"/>
<path d="M64.4598 59.4414C64.3278 59.4294 64.1931 59.4174 64.0638 59.4054C64.0398 59.4028 64.0158 59.4001 63.9905 59.3974C63.1398 59.3161 62.2585 59.0867 61.3958 58.7761C59.9425 58.2521 58.5451 57.4961 57.4465 56.8228C56.9851 56.5401 56.5571 56.2121 56.1678 55.8441C56.1651 55.8401 56.1611 55.8374 56.1571 55.8334C55.0158 54.7507 54.2251 53.3347 53.9905 51.7614C53.5665 48.9067 55.2745 47.9361 57.2838 47.9361C58.6345 47.9361 60.1225 48.3748 61.1905 48.9734C61.1945 48.9761 61.1998 48.9787 61.2038 48.9814C61.2051 48.9814 61.2065 48.9827 61.2078 48.9827C61.2105 48.9854 61.2145 48.9868 61.2171 48.9894C61.2185 48.9894 61.2198 48.9907 61.2211 48.9907C61.2251 48.9934 61.2278 48.9947 61.2318 48.9961C61.2331 48.9974 61.2345 48.9974 61.2358 48.9987C61.2385 49.0001 61.2424 49.0028 61.2451 49.0041C61.2464 49.0054 61.2478 49.0054 61.2491 49.0068C61.2531 49.0081 61.2558 49.0094 61.2598 49.0121C61.2611 49.0121 61.2625 49.0134 61.2638 49.0134C61.2665 49.0161 61.2705 49.0174 61.2745 49.0201C61.2745 49.0201 61.2758 49.0201 61.2771 49.0214C61.2811 49.0228 61.2838 49.0254 61.2878 49.0267C61.2891 49.0281 61.2905 49.0281 61.2918 49.0294C61.2945 49.0307 61.2985 49.0334 61.3025 49.0347C61.3038 49.0347 61.3038 49.0361 61.3051 49.0361C61.3091 49.0387 61.3145 49.0414 61.3185 49.0427V49.0441C61.9318 49.3681 62.6571 49.6161 63.4291 49.8068C63.5465 50.0828 63.9251 50.7441 64.9478 51.4641C63.7785 53.8667 63.6265 56.8121 64.4598 59.4414ZM57.4571 48.8987C56.3411 48.8987 55.3065 49.4774 54.9251 51.3801C54.5371 53.3081 56.9345 54.8494 57.9238 55.4081C58.0358 55.4707 58.1558 55.5014 58.2758 55.5014C58.4491 55.5014 58.6211 55.4374 58.7638 55.3121C59.2891 54.8534 60.2145 53.7214 60.8825 51.0548C61.0025 50.5788 60.8411 50.1108 60.4931 49.9054C59.7905 49.4894 58.5825 48.8987 57.4571 48.8987Z" fill="#F49641"/>
<path d="M64.6519 50.0576C64.2372 49.9883 63.8279 49.9056 63.4292 49.807C63.8265 49.9056 64.2372 49.9883 64.6505 50.0576H64.6519Z" fill="#DB6A24"/>
<path d="M64.9479 51.4641C63.9252 50.7441 63.5465 50.0828 63.4292 49.8068C63.8279 49.9055 64.2372 49.9881 64.6519 50.0574C64.8332 50.1948 65.0292 50.3241 65.2385 50.4441C65.2892 50.4734 65.3399 50.5014 65.3919 50.5294C65.4119 50.5401 65.4319 50.5508 65.4532 50.5628C65.2679 50.8521 65.0985 51.1534 64.9479 51.4641Z" fill="#E87E33"/>
<path d="M58.2761 55.5015C58.1561 55.5015 58.036 55.4708 57.924 55.4081C56.9347 54.8495 54.5374 53.3081 54.9254 51.3801C55.3067 49.4775 56.3414 48.8988 57.4574 48.8988C58.5827 48.8988 59.7907 49.4895 60.4934 49.9055C60.8414 50.1108 61.0027 50.5788 60.8827 51.0548C60.2147 53.7215 59.2894 54.8535 58.7641 55.3121C58.6214 55.4375 58.4494 55.5015 58.2761 55.5015Z" fill="#F5A255"/>
<path d="M76.0494 45.3174C76.0494 45.3174 68.0707 43.0347 65.3921 44.2281C62.0534 45.7161 62.4601 48.9507 65.3921 50.5294C67.6241 51.7321 72.1601 52.7081 74.8041 52.8627C77.4494 53.0187 82.1014 53.4081 84.4641 44.3401C86.4067 36.8814 79.2387 43.6054 76.0494 45.3174Z" fill="#F6A34E"/>
<path d="M84.7094 43.2029C84.9801 41.5162 84.5707 40.8962 83.7827 40.8962C83.0121 40.8962 81.8788 41.4909 80.6694 42.2615H80.6708C81.8788 41.4909 83.0121 40.8962 83.7827 40.8962C84.5707 40.8962 84.9801 41.5162 84.7094 43.2029Z" fill="#EB8C3C"/>
<path d="M76.6533 44.9656C77.8067 44.2509 79.288 43.1416 80.6693 42.2616C79.288 43.1416 77.8067 44.2509 76.6533 44.9656Z" fill="#3D3A3A"/>
<path d="M76.3813 45.1309C76.4693 45.0789 76.56 45.0229 76.6534 44.9655C76.56 45.0229 76.4693 45.0789 76.3813 45.1309Z" fill="#BBADA0"/>
<path d="M81.252 47.0522C79.3 47.0522 77.76 46.7736 76.5813 46.4002C76.5493 45.9642 76.4853 45.5376 76.3813 45.1309C76.4693 45.0789 76.56 45.0229 76.6534 44.9656C77.8067 44.2509 79.288 43.1416 80.6694 42.2616C81.8787 41.4909 83.012 40.8962 83.7827 40.8962C84.5707 40.8962 84.98 41.5162 84.7094 43.2029C84.656 43.5389 84.5747 43.9163 84.464 44.3403C84.2107 45.3136 83.9254 46.1576 83.6254 46.9256C82.7734 47.0136 81.984 47.0522 81.252 47.0522Z" fill="#EB8C3C"/>
<path d="M70.2413 46.2975C70.2666 45.9282 70.048 45.5828 69.708 45.4375C68.316 44.8415 64.7466 43.6735 63.892 46.9068C63.36 48.9268 66.6 50.2295 67.8706 50.6575C68.216 50.7735 68.5866 50.6655 68.828 50.3922C69.3293 49.8228 70.0813 48.6028 70.2413 46.2975Z" fill="#F7B56E"/>
<path d="M63.0376 47.2322C63.0376 47.1788 63.0403 47.1255 63.0429 47.0722C63.0403 47.1255 63.0376 47.1788 63.0376 47.2322Z" fill="#E67B30"/>
<path d="M63.0425 47.0708C63.0785 46.4668 63.3198 45.8748 63.7865 45.3495C63.3198 45.8748 63.0785 46.4668 63.0425 47.0708Z" fill="#3F3E41"/>
<path d="M63.7866 45.3496C64.1666 44.9203 64.6986 44.5363 65.392 44.2283C64.6986 44.5363 64.1666 44.9203 63.7866 45.3496ZM76.0493 45.3176L76.3799 45.1296C76.3799 45.1296 76.3799 45.1296 76.3813 45.1309C76.2666 45.1976 76.156 45.2603 76.0493 45.3176Z" fill="#C3BAB2"/>
<path d="M74.8136 52.8643C74.8109 52.8643 74.8083 52.8629 74.8043 52.8629C72.3096 52.7163 68.1323 51.8403 65.7923 50.7323C65.6749 50.6763 65.5616 50.6189 65.4536 50.5629C65.4322 50.5509 65.4123 50.5403 65.3923 50.5296C65.3403 50.5016 65.2896 50.4736 65.2389 50.4443C63.8243 49.6296 63.0403 48.4189 63.0376 47.2323C63.0376 47.1789 63.0403 47.1256 63.0429 47.0723V47.0709C63.0789 46.4669 63.3202 45.8749 63.7869 45.3496C64.1669 44.9203 64.6989 44.5363 65.3923 44.2283C65.9469 43.9803 66.7296 43.8829 67.6229 43.8829C71.0256 43.8829 76.0189 45.3083 76.0496 45.3176C76.0349 45.3136 74.9922 45.0176 73.5456 44.6963C73.8669 45.0723 74.8229 45.8429 76.5816 46.4003C76.7976 49.4229 75.4176 52.8643 74.8136 52.8643ZM66.7403 44.7336C65.5149 44.7336 64.3376 45.2243 63.8923 46.9069C63.3603 48.9269 66.6003 50.2296 67.8709 50.6576C67.9643 50.6883 68.0576 50.7029 68.1509 50.7029C68.4056 50.7029 68.6509 50.5923 68.8283 50.3923C69.3296 49.8229 70.0816 48.6029 70.2416 46.2976C70.2669 45.9283 70.0483 45.5829 69.7083 45.4376C69.0403 45.1523 67.8709 44.7336 66.7403 44.7336Z" fill="#F49641"/>
<path d="M76.0493 45.3176C76.156 45.2603 76.2666 45.1976 76.3813 45.131C76.2666 45.1976 76.156 45.2603 76.0493 45.3176Z" fill="#B89F88"/>
<path d="M76.5814 46.4001C74.8227 45.8428 73.8667 45.0721 73.5454 44.6961C74.9921 45.0175 76.0347 45.3135 76.0494 45.3175C76.1561 45.2601 76.2667 45.1975 76.3814 45.1308C76.4854 45.5375 76.5494 45.9641 76.5814 46.4001Z" fill="#E87E33"/>
<path d="M68.1506 50.7029C68.0573 50.7029 67.964 50.6882 67.8706 50.6575C66.6 50.2295 63.36 48.9269 63.892 46.9069C64.3373 45.2242 65.5146 44.7335 66.74 44.7335C67.8706 44.7335 69.04 45.1522 69.708 45.4375C70.048 45.5829 70.2666 45.9282 70.2413 46.2975C70.0813 48.6029 69.3293 49.8229 68.828 50.3922C68.6506 50.5922 68.4053 50.7029 68.1506 50.7029Z" fill="#F5A75B"/>
<path d="M82.1482 25.9015C81.9002 25.7601 81.5588 25.6308 81.1522 25.5095C81.1508 27.5015 80.6162 29.4135 79.7695 31.2188C79.7695 31.2188 81.3562 34.6881 80.8042 35.1828C77.0269 38.5721 75.7162 43.0601 78.6722 44.9268C81.6282 46.7948 87.3388 44.7335 89.2535 37.9081C89.5588 36.8175 85.9868 28.0801 82.1482 25.9015Z" fill="#F6A34E"/>
<path d="M71.3198 13.2414C71.3198 13.2414 73.5332 19.3921 77.5998 17.3068C79.9825 16.0841 78.2038 15.5948 78.2038 15.5948C78.2038 15.5948 72.2678 13.6601 71.3198 13.2414Z" fill="#F9C081"/>
<path d="M80.7628 40.0202C81.0615 40.8642 81.8748 43.3482 81.6455 44.8802C81.6095 45.1229 81.8601 45.2922 82.0828 45.1869C82.7321 44.8802 83.6908 43.9749 83.4055 41.3162C83.1815 39.2349 81.6321 39.4362 80.9628 39.6242C80.7921 39.6722 80.7028 39.8535 80.7628 40.0202Z" fill="#F8B56E"/>
</svg>
