<svg width="106" height="110" viewBox="0 0 106 110" fill="none" xmlns="http://www.w3.org/2000/svg">
<path d="M5.1028 7.26633C5.4868 7.31993 5.99079 7.45699 6.52279 7.60646C7.42012 7.85699 8.39614 8.17833 8.4708 8.18927L8.5708 8.10539L8.49479 8.07046C8.12413 7.95699 7.75482 7.84499 7.38415 7.73713C6.98548 7.62259 6.58415 7.51313 6.18682 7.397C5.21882 7.1142 4.6108 6.81739 4.4348 6.59606C4.23747 6.34912 4.25479 6.15073 4.45879 5.94913C4.68679 5.72366 5.55212 6.01846 6.49079 6.38246C7.51212 6.77833 8.52948 7.08406 8.68015 7.11993L8.80948 7.1382L8.85879 7.07313L8.81081 7.0278C8.79881 7.021 8.28013 6.84393 8.0348 6.76366C7.82013 6.69286 7.60412 6.6226 7.38812 6.5518C7.06812 6.44753 6.74679 6.34499 6.42679 6.23979C6.22546 6.17459 6.02279 6.10793 5.82546 6.03033L5.48148 5.86526C5.31348 5.75592 5.21481 5.55073 5.27748 5.35953C5.45481 4.82779 6.28281 5.08406 6.80948 5.26366C7.11481 5.36886 10.4495 6.52259 11.1721 6.45433C11.8961 6.38766 11.4335 5.61312 11.4335 5.61312C9.54547 3.08659 11.2335 2.52939 11.4308 3.01166C11.5961 3.41846 12.1001 4.37313 12.2548 4.66366L12.3788 4.81166C13.5988 5.77979 13.4441 5.66526 13.8481 6.67206C13.9575 6.94393 14.5388 7.61579 15.4468 8.46273C17.1455 10.0475 19.9895 12.245 23.0228 13.5773C27.6748 15.6185 29.7015 18.2491 29.7015 18.2491C34.5481 18.0757 38.9215 21.4054 38.9215 21.4054C43.8948 21.4199 45.6815 22.6382 46.2881 23.3106C47.3108 23.1303 48.3681 23.0611 49.3215 23.045C50.0188 22.2199 50.0855 20.897 49.4548 17.5413C49.4548 17.5413 54.3455 19.1465 56.5535 17.5413C56.5535 17.5413 55.8828 21.1601 56.5441 23.4877C57.4775 23.5841 58.4788 23.6893 59.4041 23.7934C60.4028 23.0929 63.8322 22.9601 67.0188 22.4705C67.0188 22.4705 70.8508 18.5294 75.6681 17.9825C75.6681 17.9825 77.2841 15.0798 81.5815 12.3705C84.3828 10.6038 86.8681 8.009 88.3135 6.18927C89.0855 5.2158 89.5615 4.46526 89.6281 4.17979C89.8788 3.12513 89.7441 3.26113 90.8068 2.1226L90.9068 1.95846C91.0161 1.64753 91.3721 0.629395 91.4761 0.202198C91.5988 -0.303936 93.3508 -0.0030098 91.8588 2.77566C91.8588 2.77566 91.5175 3.6106 92.2428 3.56886C92.9681 3.5278 96.0935 1.89286 96.3801 1.74393C96.8748 1.48766 97.6561 1.11166 97.9095 1.61166C98.0001 1.79033 97.9335 2.00793 97.7841 2.14126L97.4681 2.35593C97.2841 2.46113 97.0935 2.557 96.9041 2.65326C96.6028 2.80379 96.3015 2.95326 96.0001 3.10379C95.7961 3.20539 95.5935 3.30646 95.3921 3.40899C95.1615 3.52512 94.6735 3.77726 94.6628 3.78513L94.6228 3.83712L94.6815 3.89447L94.8068 3.857C94.9495 3.79966 95.9108 3.34646 96.8615 2.8022C97.7361 2.30379 98.5481 1.88406 98.8081 2.07313C99.0388 2.24126 99.0841 2.43459 98.9268 2.70899C98.7841 2.95326 98.2295 3.33873 97.3135 3.76113C96.9361 3.9346 96.5575 4.10219 96.1801 4.27566C95.8281 4.43552 95.4801 4.6022 95.1308 4.76886L95.0601 4.81419L95.1721 4.88246C95.2441 4.86113 96.1628 4.3986 97.0121 4.0174C97.5161 3.7918 97.9935 3.57979 98.3655 3.47046C98.7028 3.37046 98.9295 3.3746 99.0508 3.4866C99.2362 3.66006 99.3242 3.97726 98.8801 4.32939C98.5268 4.61059 98.0761 4.77566 97.6615 4.93979C96.8695 5.25326 96.1028 5.57726 95.2975 5.85433L95.1601 5.95433L95.2855 6.04232C95.4682 5.98659 98.1321 4.80126 98.4335 5.1106C98.7081 5.39446 98.5508 5.97153 95.7601 6.85953C95.2161 7.03193 94.6868 7.24913 94.1801 7.51059C93.4602 7.88246 92.2735 8.30486 91.2415 8.34232C90.8668 8.35592 90.5055 8.47459 90.1828 8.66366C90.1255 8.69699 82.6388 16.5226 80.0121 18.8585C77.3841 21.1929 78.5522 20.8653 76.2522 21.8507C73.9535 22.8355 72.8215 25.3903 70.8508 26.3038C68.8802 27.2158 63.5895 28.0918 62.9321 29.0413C62.7175 29.3507 62.4095 30.0117 62.0255 30.809C61.1455 36.8423 59.2695 45.2731 59.6295 48.8705C59.6295 48.8705 50.4228 51.9679 43.4162 48.0251C43.3908 48.0117 43.8028 45.809 43.6148 41.433C43.4641 37.9475 42.9508 34.4893 42.1188 31.1022C41.7868 29.7507 41.4775 28.4507 41.2575 27.5117C39.7401 26.8637 37.2415 26.2131 35.7015 25.7627C33.6161 25.1533 32.1188 22.7945 29.6988 22.1611C27.2788 21.5278 28.4828 21.6798 25.5375 19.7595C22.5921 17.8398 14.0268 11.2117 13.9655 11.1866C13.6188 11.0475 13.2428 10.9851 12.8708 11.0262C11.8455 11.1423 10.6081 10.9013 9.84147 10.6413C9.30147 10.457 8.74548 10.321 8.18282 10.2303C5.29082 9.76633 5.04948 9.21846 5.27881 8.89859C5.53081 8.54646 8.34146 9.32513 8.5308 9.3518L8.64281 9.24752L8.49079 9.16886C7.65346 9.01419 6.84682 8.80793 6.01748 8.6158C5.58282 8.51419 5.11345 8.4174 4.72145 8.1918C4.22945 7.909 4.26946 7.58247 4.42813 7.38406C4.53079 7.25433 4.7548 7.2174 5.1028 7.26633Z" fill="#F6A34E"/>
<path d="M56.3026 22.116C56.1133 20.0493 56.5173 17.7414 56.5506 17.5534C56.5173 17.7414 56.1133 20.0493 56.3039 22.1144C56.3026 22.1144 56.3026 22.116 56.3026 22.116ZM49.6119 18.4238C49.5653 18.1452 49.5133 17.852 49.4546 17.5414C49.5133 17.852 49.5653 18.1466 49.6119 18.4238ZM56.552 17.5509C56.552 17.5477 56.552 17.5452 56.5533 17.5441C56.552 17.5452 56.552 17.5477 56.552 17.5509ZM56.5533 17.5441C56.5533 17.5425 56.5533 17.5425 56.5533 17.5425C56.5533 17.5425 56.5533 17.5425 56.5533 17.5441Z" fill="#EDB086"/>
<path d="M53.6079 23.9878C53.6066 23.9878 53.6039 23.9878 53.6026 23.9878L53.5853 23.9867C52.74 23.9519 52.0226 23.3571 51.7733 22.5477C51.5719 21.8919 51.2946 21.2597 50.9639 20.6733C50.5826 19.9987 49.9639 19.2159 49.6119 18.4238C49.5653 18.1466 49.5133 17.8519 49.4546 17.5414C49.4546 17.5414 51.6279 18.2545 53.7319 18.2545C54.7839 18.2545 55.8173 18.0758 56.5533 17.5414C56.5533 17.5414 56.5533 17.5414 56.5533 17.5425C56.5533 17.5425 56.5533 17.5425 56.5533 17.5441C56.552 17.5451 56.552 17.5477 56.552 17.5509C56.552 17.5519 56.5506 17.5519 56.5506 17.5534C56.5173 17.7414 56.1133 20.0493 56.3026 22.1159C56.1666 22.2774 56.0279 22.4357 55.8973 22.6014C55.2026 23.4706 54.4493 23.9878 53.6079 23.9878Z" fill="#EB893C"/>
<path d="M59.199 49.1055C59.199 49.1055 51.9884 50.1519 49.967 50.2721H49.9657C47.183 50.4585 44.5084 49.6372 42.8097 49.5091C42.8097 49.5091 41.9764 59.4388 40.9684 62.968C39.9604 66.4987 43.3724 73.4263 43.423 75.5065C43.475 77.5867 43.4377 80.508 43.143 83.3628C42.8484 86.2175 46.1804 93.9809 46.2297 95.9919C46.2417 96.4919 45.8044 97.8081 45.3257 99.4508C45.4857 99.4518 45.647 99.4534 45.807 99.4544C46.8817 99.4628 48.8671 99.7664 49.8177 99.0904C50.1071 98.8851 50.1124 98.8065 50.207 98.3143C50.295 97.8508 50.3364 97.4706 50.3084 96.9784C50.2737 96.3508 50.147 95.5997 49.9684 95.0689C49.6417 94.9451 49.287 94.8809 48.9044 94.9023C48.9044 94.9023 48.7177 90.308 49.6337 85.9773C50.5484 81.6465 48.7897 82.1091 49.1204 80.0211C49.3991 78.2653 49.7924 66.5997 50.7844 61.608C51.1391 64.2227 51.311 65.8852 51.0297 68.6372C51.0297 68.6372 51.2404 70.4945 52.215 72.2773C53.1897 74.0596 55.1737 79.2841 55.007 81.8279C55.007 81.8279 54.583 88.3372 54.3124 92.1413C54.0417 95.944 56.5297 97.8518 57.9017 97.2331C59.203 96.6476 61.055 93.3117 57.963 83.4372C57.6337 82.3852 57.603 81.2628 57.8764 80.1945C58.3764 78.2331 59.031 74.7413 58.4377 71.4664C57.5497 66.5596 59.6804 64.1519 60.6604 59.4732C61.6404 54.7945 61.9444 51.6107 59.199 49.1055Z" fill="#F6A34E"/>
<path d="M51.0333 68.668C51.0306 68.6476 51.0293 68.6372 51.0293 68.6372C51.1466 67.497 51.1853 66.545 51.1653 65.633C51.1853 66.545 51.1466 67.497 51.0293 68.6372C51.0293 68.6372 51.0306 68.6476 51.0333 68.668Z" fill="#EDB086"/>
<path d="M51.5413 70.7319C51.1813 69.6866 51.056 68.8355 51.0333 68.6679C51.0306 68.6475 51.0293 68.6371 51.0293 68.6371C51.1466 67.497 51.1853 66.545 51.1653 65.633C51.304 65.521 51.468 65.4251 51.6573 65.3491C51.6653 65.3465 51.672 65.3439 51.6786 65.3413C51.68 65.3413 51.6813 65.3413 51.6813 65.3398C51.688 65.3387 51.6933 65.3355 51.6986 65.333C51.7 65.333 51.7013 65.333 51.7026 65.3319C51.7093 65.3303 51.7147 65.3278 51.72 65.3251C51.7213 65.3251 51.7226 65.3251 51.7226 65.3237C51.844 65.2783 51.9693 65.2346 52.096 65.1929H52.0973C52.1186 65.1851 52.1413 65.1783 52.164 65.1721C52.1653 65.1721 52.1666 65.1705 52.1666 65.1705C52.1733 65.1689 52.1787 65.1663 52.1853 65.1653C52.188 65.1653 52.1893 65.1637 52.192 65.1627C52.1973 65.1611 52.2013 65.1601 52.2053 65.1585C52.2093 65.1585 52.212 65.157 52.216 65.1559C52.2186 65.1543 52.2226 65.1543 52.2253 65.1533C52.2293 65.1518 52.2333 65.1507 52.2386 65.1491C52.24 65.1491 52.2413 65.1475 52.244 65.1475C52.7706 64.9903 53.3453 64.8809 53.9386 64.8267C53.168 68.6398 52.1266 68.3413 51.5413 70.7319Z" fill="#EB893C"/>
<path d="M57.8763 80.1929C58.3763 78.232 59.031 74.7399 58.4376 71.4664L58.4136 71.3175C56.4563 72.3252 53.9376 72.5143 51.9043 71.6519C51.9976 71.8596 52.1003 72.0689 52.215 72.2773C53.1896 74.0596 55.1736 79.2841 55.007 81.8279C55.007 81.8279 54.583 88.3372 54.3123 92.1413C54.0416 95.944 56.5296 97.8518 57.9016 97.2331C59.203 96.6477 61.055 93.3132 57.963 83.4388C57.6336 82.3867 57.603 81.2612 57.8763 80.1929Z" fill="#DE712E"/>
<path d="M58.7919 86.2757C58.5279 86.1841 58.2519 85.9279 58.0559 85.7612C57.7825 85.5263 55.4372 85.5388 55.0879 86.2628C54.9865 86.4716 54.8572 86.7689 54.6706 86.9185C54.5506 88.7013 54.4199 90.6331 54.3119 92.1413C54.0412 95.944 56.5292 97.8518 57.9012 97.2331C58.5506 96.9414 59.9132 95.5331 59.9252 93.5424C59.9359 91.8747 59.7666 89.6227 58.7919 86.2757Z" fill="#80838B"/>
<path d="M56.4363 92.3132C56.4856 89.8758 56.2416 87.8132 56.5949 85.6534C55.9323 85.7186 55.2629 85.9023 55.0883 86.2628C54.9869 86.4716 54.8576 86.769 54.671 86.9186C54.551 88.7014 54.4203 90.6331 54.3123 92.1414C54.0536 95.7784 56.327 97.7175 57.7163 97.3013C56.979 95.8706 56.4016 93.9946 56.4363 92.3132Z" fill="#6C707A"/>
<path d="M47.172 100.326C47.1254 100.326 47.0787 100.325 47.032 100.325C46.3867 100.324 45.832 99.9277 45.2947 99.5533C45.6854 98.209 46.0547 97.072 46.1827 96.4064C46.0574 97.0543 45.704 98.1507 45.3254 99.4507C45.4854 99.4517 45.6467 99.4533 45.8067 99.4543C46.3187 99.4585 47.04 99.5293 47.756 99.5293C48.54 99.5293 49.32 99.4439 49.8174 99.0902C49.8227 99.0866 49.8294 99.0824 49.8347 99.0783C49.6694 99.4319 49.408 99.7423 49.0067 99.9892C48.4894 100.305 47.7707 100.326 47.172 100.326ZM46.1827 96.4022C46.184 96.3996 46.184 96.397 46.184 96.3944C46.184 96.397 46.184 96.3996 46.1827 96.4022ZM46.184 96.3928C46.1854 96.3918 46.1854 96.3903 46.1854 96.3876C46.1854 96.3903 46.1854 96.3918 46.184 96.3928ZM46.2294 96.0412C46.2294 96.0398 46.2294 96.0398 46.2294 96.0398C46.2294 96.0398 46.2294 96.0398 46.2294 96.0412ZM46.2294 96.0346V96.033V96.0346ZM46.2294 96.0278V96.0262V96.0278ZM46.2294 96.021V96.0199C46.2294 96.021 46.2294 96.021 46.2294 96.021ZM46.2294 96.0158C46.2294 96.0142 46.2294 96.0142 46.2294 96.0131C46.2294 96.0142 46.2294 96.0142 46.2294 96.0158ZM46.2294 96.009V96.0079V96.009ZM46.2294 96.0038C46.2294 96.0022 46.2294 96.0012 46.2294 95.9996C46.2294 96.0012 46.2294 96.0022 46.2294 96.0038ZM46.2294 95.997C46.2294 95.996 46.2294 95.9934 46.2294 95.9918C46.1814 94.0679 43.128 86.8746 43.124 83.757C43.128 86.8746 46.1814 94.0679 46.2294 95.9918C46.2294 95.9934 46.2294 95.9944 46.2294 95.997ZM49.8654 95.0319C49.6107 94.9475 49.3401 94.8986 49.0534 94.8986C49.0161 94.8986 48.9787 94.8996 48.9414 94.9012C48.98 94.8996 49.0174 94.8986 49.0547 94.8986C49.3414 94.8986 49.6107 94.9464 49.864 95.0303C49.864 95.0319 49.8654 95.0319 49.8654 95.0319ZM48.904 94.9022C48.9107 94.9022 48.916 94.9022 48.9227 94.9022C48.916 94.9022 48.9107 94.9022 48.904 94.9022ZM48.9227 94.9012C48.9294 94.9012 48.9347 94.9012 48.9414 94.9012C48.9347 94.9012 48.9294 94.9012 48.9227 94.9012Z" fill="#EDB086"/>
<path d="M47.7562 99.5293C47.0402 99.5293 46.3189 99.4585 45.8069 99.4543C45.6469 99.4532 45.4855 99.4517 45.3255 99.4506C45.7042 98.1506 46.0576 97.0543 46.1829 96.4064C46.1829 96.4054 46.1829 96.4038 46.1829 96.4022C46.1842 96.3996 46.1842 96.3969 46.1842 96.3944C46.1842 96.3944 46.1842 96.3944 46.1842 96.3928C46.1856 96.3918 46.1856 96.3903 46.1856 96.3876C46.2069 96.2756 46.2215 96.1772 46.2269 96.0944C46.2269 96.0851 46.2282 96.0756 46.2282 96.0663C46.2282 96.0652 46.2282 96.0627 46.2282 96.0595C46.2295 96.057 46.2295 96.0559 46.2295 96.0532C46.2295 96.0507 46.2295 96.0491 46.2295 96.0464C46.2295 96.045 46.2295 96.0423 46.2295 96.0412C46.2295 96.0398 46.2295 96.0398 46.2295 96.0398C46.2295 96.0387 46.2295 96.0355 46.2295 96.0346V96.0329C46.2295 96.0319 46.2295 96.0293 46.2295 96.0277V96.0262C46.2295 96.0251 46.2295 96.0236 46.2295 96.021C46.2295 96.021 46.2295 96.021 46.2295 96.0199C46.2295 96.0184 46.2295 96.0174 46.2295 96.0158C46.2295 96.0142 46.2295 96.0142 46.2295 96.0131C46.2295 96.0116 46.2295 96.0106 46.2295 96.0089V96.0079C46.2295 96.0064 46.2295 96.0054 46.2295 96.0038C46.2295 96.0022 46.2295 96.0012 46.2295 95.9996C46.2295 95.9985 46.2295 95.9986 46.2295 95.997C46.2295 95.9944 46.2295 95.9934 46.2295 95.9918C46.1815 94.0679 43.1282 86.8746 43.1242 83.757C43.1242 83.6174 43.1296 83.4851 43.1429 83.3627C43.3682 81.1772 43.4429 78.9518 43.4429 77.096C43.4429 76.5278 43.4349 75.9944 43.4229 75.5064C43.3762 73.6079 40.7375 67.721 40.8549 63.9772C41.2935 64.3371 41.7615 64.6423 42.3309 64.8475C42.3335 64.8491 42.3362 64.8491 42.3376 64.8507H42.3389C43.0496 65.1054 45.9082 65.8679 47.9762 65.8679C48.6269 65.8679 49.1989 65.7918 49.6016 65.6012C49.7616 65.5251 50.0736 65.4064 50.2429 65.3996C49.6349 70.9866 49.3416 78.6267 49.1202 80.021C49.0909 80.2038 49.0789 80.3679 49.0789 80.5174C49.0776 81.7079 49.8989 81.96 49.9002 83.8079C49.9002 84.3636 49.8256 85.0636 49.6336 85.9772C48.9829 89.0559 48.8882 92.2679 48.8882 93.8679C48.8882 94.5184 48.9042 94.9022 48.9042 94.9022C48.9109 94.9022 48.9162 94.9022 48.9229 94.9022V94.9012C48.9295 94.9012 48.9349 94.9012 48.9416 94.9012C48.9789 94.8996 49.0162 94.8986 49.0536 94.8986C49.3402 94.8986 49.6109 94.9475 49.8656 95.0319C49.9122 95.4944 49.9642 95.9584 50.0096 96.4262C50.1016 97.3449 50.1949 98.3105 49.8349 99.0782C49.8296 99.0824 49.8229 99.0866 49.8176 99.0902C49.3202 99.4439 48.5402 99.5293 47.7562 99.5293Z" fill="#EB893C"/>
<path d="M49.12 80.0199C49.2853 78.9798 49.4773 74.0355 49.812 69.1439C49.6 69.5851 49.3827 70.021 49.1507 70.4491C47.6787 73.1652 45.7853 75.3851 43.4413 77.3611C43.4386 78.1174 43.424 78.9278 43.3906 79.7688C45.304 80.2226 47.2253 80.7798 49.1693 81.157C49.08 80.8543 49.0427 80.5064 49.12 80.0199Z" fill="#DE712E"/>
<path d="M59.199 49.1056C59.199 49.1056 51.9883 50.152 49.967 50.2722H49.9656C47.183 50.4586 44.5083 49.6373 42.8096 49.5092C42.8096 49.5092 40.8336 63.6056 40.8203 63.9493C41.2696 64.3212 41.747 64.6373 42.331 64.8477C43.2496 65.1785 47.9163 66.4014 49.6016 65.6014C49.7616 65.5253 50.0736 65.4066 50.243 65.3998C50.5256 63.6826 50.5296 62.8853 50.7843 61.6081C51.011 63.281 51.0096 63.4348 51.1549 65.6425C51.2949 65.5264 51.463 65.428 51.6576 65.3493C53.6976 64.5414 56.7509 64.5212 58.7229 65.8357C59.2656 63.8758 60.1296 62.0066 60.6603 59.4733C61.6403 54.7946 61.9443 51.6108 59.199 49.1056Z" fill="#5D72AC"/>
<path d="M52.775 60.0733C51.239 60.3414 50.1736 60.5332 48.7083 59.8962C48.519 59.8629 48.3336 59.8201 48.1549 59.7681C47.5803 59.5998 47.143 59.381 46.663 59.0305C46.5216 58.928 46.0576 58.7414 46.4283 58.8321C46.0856 58.7477 45.7243 58.6665 45.3696 58.5665C45.6816 58.8493 45.9963 59.1296 46.3336 59.3826C47.163 60.0024 48.0576 60.5321 48.8843 61.1586C49.2616 61.4452 49.6963 61.8452 50.1643 61.9733C50.5776 62.152 51.4083 61.652 51.7016 61.5389C52.2083 61.3425 52.691 60.8332 53.2003 60.6452C54.191 60.2785 55.167 59.8452 56.0523 59.2629C56.2056 59.1613 56.355 59.0561 56.503 58.9477C55.4883 59.4332 53.8216 59.892 52.775 60.0733Z" fill="#35446C"/>
<path d="M51.1655 65.6331C51.3042 65.5211 51.4682 65.4252 51.6575 65.3492C51.4682 65.4252 51.3042 65.5211 51.1655 65.6331ZM51.6789 65.3413C51.6802 65.3413 51.6815 65.3413 51.6815 65.3399C51.6815 65.3413 51.6802 65.3413 51.6789 65.3413ZM51.6989 65.3331C51.7002 65.3331 51.7015 65.3331 51.7029 65.332C51.7015 65.3331 51.7002 65.3331 51.6989 65.3331ZM51.7202 65.3252C51.7215 65.3252 51.7229 65.3252 51.7229 65.3237C51.7229 65.3252 51.7215 65.3252 51.7202 65.3252ZM52.0962 65.1929H52.0975H52.0962ZM52.1642 65.1721C52.1655 65.1721 52.1655 65.1721 52.1669 65.1705C52.1669 65.1705 52.1655 65.1721 52.1642 65.1721ZM52.1855 65.1653C52.1882 65.1653 52.1895 65.1637 52.1922 65.1628C52.1895 65.1637 52.1882 65.1653 52.1855 65.1653ZM52.2055 65.1585C52.2095 65.1585 52.2122 65.1571 52.2162 65.156C52.2122 65.1571 52.2095 65.1585 52.2055 65.1585ZM52.2255 65.1533C52.2295 65.1519 52.2335 65.1508 52.2389 65.1492C52.2335 65.1508 52.2295 65.1519 52.2255 65.1533Z" fill="#BE6F37"/>
<path d="M53.939 64.8269C54.0536 64.816 54.167 64.8081 54.2816 64.8014C54.167 64.8081 54.0536 64.816 53.939 64.8269Z" fill="#CA8845"/>
<path d="M52.2441 65.1477C52.7708 64.9905 53.3468 64.88 53.9388 64.8269C53.3455 64.881 52.7708 64.9905 52.2441 65.1477Z" fill="#BE6F37"/>
<path d="M46.7963 65.8013C44.947 65.609 42.9216 65.0585 42.339 64.8507H42.3376C42.3363 64.8491 42.3336 64.8491 42.331 64.8475C41.747 64.6371 41.2696 64.321 40.8203 63.9491C40.8283 63.7413 41.5563 58.4945 42.1283 54.3851C43.1643 55.1413 44.6603 55.4851 46.1256 55.4851C47.2483 55.4851 48.3523 55.2841 49.2176 54.9106L49.863 54.5851C50.2243 54.4038 50.591 54.2117 50.9723 54.0731C51.555 53.8611 52.1496 53.7038 52.7643 53.609C53.1723 53.545 53.5843 53.5158 53.9976 53.5158C54.5963 53.5158 55.1963 53.5783 55.787 53.6903C55.8363 54.5038 55.6576 55.3559 55.4909 56.1997C55.2696 57.3199 55.0656 58.4303 54.8976 59.5507C54.1443 59.7825 53.3616 59.9715 52.775 60.0731C52.0003 60.2079 51.3456 60.3237 50.699 60.3237C50.063 60.3237 49.435 60.2117 48.7083 59.8961C48.519 59.8627 48.3336 59.8199 48.1549 59.7679C47.5803 59.5997 47.143 59.3809 46.663 59.0303C46.5483 58.9475 46.219 58.8079 46.3003 58.8079C46.319 58.8079 46.3576 58.8142 46.4229 58.8303C46.4243 58.8303 46.4256 58.8319 46.4283 58.8319C46.4256 58.8319 46.4243 58.8303 46.4229 58.8303C46.0829 58.7465 45.723 58.6663 45.3696 58.5663C45.6816 58.8491 45.9963 59.1294 46.3336 59.3825C47.163 60.0022 48.0576 60.5319 48.8843 61.1585C49.2616 61.445 49.6963 61.845 50.1643 61.9731C50.227 61.9997 50.2976 62.0106 50.375 62.0106C50.451 62.0106 50.5336 61.9997 50.619 61.9798C50.135 62.6809 48.815 63.1413 48.419 63.4065C48.0083 63.6798 46.8776 65.5237 46.8003 65.7559L46.7963 65.8013ZM51.1549 65.6423C51.1389 63.9773 51.027 63.3627 50.827 61.921C51.175 61.8022 51.531 61.6038 51.7016 61.5387C52.2083 61.3423 52.691 60.833 53.2003 60.645C53.7563 60.4398 54.307 60.2131 54.839 59.9507C54.7763 60.3893 54.7203 60.8294 54.6696 61.2731C54.5763 62.0961 54.459 62.9174 54.387 63.7423C54.3576 64.0866 54.339 64.4491 54.2816 64.8013C54.167 64.8079 54.0536 64.8158 53.939 64.8267C53.347 64.8798 52.771 64.9903 52.2443 65.1475C52.2416 65.1475 52.2403 65.1491 52.239 65.1491C52.2336 65.1507 52.2296 65.1518 52.2256 65.1533C52.223 65.1543 52.219 65.1543 52.2163 65.1559C52.2123 65.157 52.2096 65.1585 52.2056 65.1585C52.2016 65.1601 52.1976 65.1611 52.1923 65.1627C52.1896 65.1637 52.1883 65.1653 52.1856 65.1653C52.179 65.1663 52.1736 65.1689 52.167 65.1705C52.1656 65.1721 52.1656 65.1721 52.1643 65.1721C52.1416 65.1783 52.119 65.1851 52.0976 65.1929H52.0963C51.9696 65.2346 51.8443 65.2773 51.7229 65.3237C51.7229 65.3251 51.7216 65.3251 51.7203 65.3251C51.715 65.3278 51.7083 65.3303 51.703 65.3319C51.7016 65.333 51.7003 65.333 51.699 65.333C51.6936 65.3355 51.6883 65.3387 51.6816 65.3398C51.6816 65.3413 51.6803 65.3413 51.679 65.3413C51.6723 65.3439 51.6656 65.3465 51.6576 65.3491C51.4683 65.4251 51.3043 65.521 51.1656 65.633C51.1616 65.6355 51.1576 65.6398 51.1549 65.6423Z" fill="#4B5D92"/>
<path d="M50.375 62.0107C50.2976 62.0107 50.227 61.9998 50.1643 61.9733C49.6963 61.8451 49.2616 61.4451 48.8843 61.1586C48.0576 60.5321 47.163 60.0023 46.3336 59.3826C45.9963 59.1295 45.6816 58.8493 45.3696 58.5665C45.723 58.6665 46.0829 58.7466 46.4229 58.8305C46.3576 58.8143 46.319 58.8081 46.3003 58.8081C46.219 58.8081 46.5483 58.9477 46.663 59.0305C47.143 59.381 47.5803 59.5998 48.1549 59.7681C48.3336 59.8201 48.519 59.8629 48.7083 59.8962C49.435 60.2118 50.063 60.3238 50.699 60.3238C51.3456 60.3238 52.0003 60.2081 52.775 60.0733C53.3616 59.9717 54.1443 59.7826 54.8976 59.5509C54.8776 59.6842 54.8576 59.8175 54.839 59.9509C54.307 60.2133 53.7563 60.4399 53.2003 60.6451C52.691 60.8331 52.2083 61.3425 51.7016 61.5389C51.531 61.6039 51.175 61.8023 50.827 61.9211C50.8136 61.8211 50.799 61.7175 50.7843 61.6081C50.7576 61.7389 50.7003 61.8629 50.619 61.9799C50.5336 61.9998 50.451 62.0107 50.375 62.0107ZM46.4283 58.8321C46.4256 58.8321 46.4243 58.8305 46.4229 58.8305C46.4243 58.8305 46.4256 58.8321 46.4283 58.8321Z" fill="#2C385B"/>
<path d="M61.324 55.2732C59.6533 54.8945 58.0227 54.2237 56.3773 53.8185C56.1827 53.7705 55.984 53.7279 55.7867 53.6904C55.7547 53.1784 55.632 52.6825 55.3613 52.2117C55.6467 52.2424 55.9173 52.2571 56.1747 52.2571C58.42 52.2571 59.604 51.1601 60.4253 50.5721C61.2427 51.9159 61.4533 53.4519 61.324 55.2732Z" fill="#445587"/>
<path d="M42.1279 54.3853C42.0999 54.3638 42.0719 54.3425 42.0439 54.3211C42.3546 52.3971 42.6399 50.5878 42.7559 49.8534C42.7573 49.8545 42.7599 49.8561 42.7613 49.8571C42.6599 50.5785 42.4133 52.3414 42.1279 54.3853Z" fill="#C0BFCC"/>
<path d="M46.1253 55.4851C44.6599 55.4851 43.1639 55.1412 42.1279 54.3851C42.4133 52.3412 42.6599 50.5783 42.7613 49.857C44.3893 51.0423 45.7826 51.3412 47.0399 51.3412C47.6773 51.3412 48.2799 51.2636 48.8599 51.1876C49.4399 51.1106 49.9973 51.0346 50.5453 51.0346C51.0839 51.0346 51.6146 51.1079 52.1466 51.3294C53.3933 51.8439 54.4519 52.1131 55.3613 52.2116C55.6319 52.6824 55.7546 53.1783 55.7866 53.6903C55.196 53.5783 54.5959 53.5158 53.9973 53.5158C53.5839 53.5158 53.1719 53.545 52.7639 53.609C52.1493 53.7038 51.5546 53.8611 50.9719 54.0731C50.5906 54.2116 50.2239 54.4038 49.8626 54.5851L49.2173 54.9106C48.352 55.284 47.2479 55.4851 46.1253 55.4851Z" fill="#384572"/>
<path d="M57.9083 15.716C57.7736 15.2597 57.1496 15.4296 56.6909 15.6253C56.7029 15.3144 56.7069 14.992 56.7056 14.6572C56.6869 11.1357 55.191 9.87742 53.147 10.1868C53.147 10.1868 52.0336 10.516 51.1949 10.3509C50.3549 10.1868 48.9963 12.116 49.0776 15.1868C49.0816 15.3357 49.0869 15.4826 49.0936 15.628C48.6336 15.4305 48.0069 15.2597 47.8723 15.716C47.6603 16.4321 47.911 19.2056 49.4456 18.08C49.8843 19.4665 50.8269 20.2998 52.8549 20.369C54.8363 20.4373 55.8483 19.5774 56.3269 18.0748C57.8683 19.2133 58.1203 16.4332 57.9083 15.716Z" fill="#F6A34E"/>
<path d="M56.2536 14.7798C56.2536 15.1518 56.2896 15.4877 56.3362 15.8465C56.3469 15.9262 56.3496 16.045 56.3509 16.1746C56.5456 15.9424 56.7709 15.7388 57.0176 15.5809C57.1669 15.4866 57.3042 15.5022 57.5002 15.4262C57.5856 15.256 57.7549 14.8424 57.6762 14.4841C57.5682 13.9934 57.3882 13.4716 57.3149 12.9585C57.2162 12.2705 57.0522 11.7388 57.2322 11.0356C57.3576 10.5508 57.4842 9.62371 56.8842 9.41318C56.5789 9.30651 56.2482 9.29971 55.9322 9.17464C55.6349 9.05597 55.3922 8.86797 55.1056 8.74237C54.3776 8.42784 53.9242 8.76278 53.1936 8.79038C52.5669 8.81425 51.9549 8.58518 51.3269 8.68771C50.6882 8.79184 49.7776 8.85597 49.5509 9.47051C49.3096 10.1278 48.2122 10.4424 48.1482 11.1612C48.1189 11.4904 48.4603 12.0533 48.4856 12.3773C48.5149 12.7388 48.4562 13.0174 48.3496 13.3628C48.2456 13.6986 48.0936 14.02 48.0082 14.3628C47.9656 14.532 47.9402 14.7065 47.9482 14.8809C47.9536 15.0132 48.2349 15.3158 48.3122 15.4252C48.6736 15.5852 48.8469 15.7732 49.1402 16.4294C49.3602 15.5784 49.1976 14.2226 49.5416 13.3893C49.7362 12.9174 49.8216 12.4852 49.9362 11.9934C50.0789 11.3852 50.6056 10.9518 51.1069 10.645C51.5909 10.3476 51.9016 10.3986 52.4149 10.521C52.8722 10.6304 53.2962 10.5413 53.7629 10.5424C54.8776 10.545 55.7389 11.1518 56.0336 12.2117C56.2669 13.0544 56.2536 13.9038 56.2536 14.7798Z" fill="#676665"/>
<path d="M43.6148 41.4331C43.4694 38.0612 42.9801 34.7117 42.1961 31.4304C43.6147 30.7227 44.8601 29.5945 45.5414 28.1533C46.2281 26.7013 46.1561 24.8893 45.9574 23.3732C46.4974 23.2653 47.0507 23.1893 47.5974 23.1372C47.7494 23.8304 47.9001 24.5227 48.0734 25.2107C48.2907 26.0825 48.4388 27.1413 48.8534 27.9476C49.6161 29.4399 51.3641 29.6039 52.8747 29.5252C54.4987 29.4399 56.1334 28.9904 56.6334 27.2388C56.8721 26.4013 56.9868 25.5399 57.2841 24.7185C57.4161 24.3508 57.5454 23.9799 57.6467 23.6023C58.2708 23.668 58.8987 23.7356 59.4934 23.8039C59.2707 25.3049 59.1854 26.8399 59.3014 28.3492C59.4054 29.7263 60.1641 31.9492 61.8841 31.7492C61.1561 36.432 60.4521 40.0585 60.9267 43.7809C61.0694 44.8987 63.1508 45.9185 60.2868 48.3997C59.8001 48.8211 61.0387 50.2356 61.0387 50.2356C59.8534 50.556 58.1548 53.8143 52.1468 51.3295C51.0721 50.8841 50.0094 51.0356 48.8601 51.1877C46.8361 51.4544 44.5427 51.7227 41.4361 48.7372C41.4254 48.7263 43.6067 47.7519 42.4574 45.3705C41.5254 43.4413 43.6961 43.3227 43.6148 41.4331Z" fill="#F03C33"/>
<path d="M47.4707 51.3294C47.5347 51.1918 47.5827 51.0507 47.6014 50.9064C47.6867 50.2611 47.6228 49.6439 47.8201 49.009C48.1561 47.9371 48.9307 47.084 49.8707 46.4934C49.9467 46.4439 50.1761 46.2903 50.3534 46.1798C50.1148 45.7371 49.5948 45.0798 49.2148 44.597C47.9481 42.9851 46.7827 41.0798 47.7054 38.996C48.1001 38.1038 48.8121 37.521 49.5788 37.0371C49.3534 36.9236 49.1321 36.8022 48.9227 36.6663C47.6814 35.8611 46.6361 34.8184 45.9627 33.4851C45.3814 32.3294 44.8014 31.1491 44.2627 29.9507C43.6627 30.5532 42.9547 31.0518 42.1961 31.4303C42.9801 34.7116 43.4694 38.0611 43.6148 41.433C43.6961 43.3226 41.5254 43.4412 42.4574 45.3704C43.6067 47.7518 41.4254 48.7262 41.4361 48.7371C43.8561 51.0611 45.7814 51.4131 47.4707 51.3294Z" fill="#E53122"/>
<path d="M48.9163 94.9023C49.1949 95.6971 49.8243 97.8721 47.9203 98.9586C47.9203 98.9586 47.0989 97.857 45.5216 98.7867C44.5416 102.076 43.5389 105.866 44.9362 108.909C45.4269 109.98 45.9389 109.944 46.6589 109.949C47.7536 109.957 50.5456 105.511 50.4762 103.114C50.4042 100.665 50.8923 100.883 51.4203 100.153C51.6776 99.7971 51.9842 98.4133 52.1642 97.5534C52.3442 96.6919 51.0963 94.7867 48.9163 94.9023Z" fill="#80838B"/>
<path d="M46.8949 104.366C47.4602 102.848 48.0069 101.381 48.2069 99.7585C48.2496 99.4054 48.2802 99.0518 48.3029 98.6986C48.1882 98.7903 48.0616 98.8783 47.9203 98.9585C47.9203 98.9585 47.0989 97.857 45.5216 98.7867C44.5416 102.076 43.5389 105.866 44.9362 108.909C45.2176 109.524 45.5082 109.773 45.8389 109.876C45.7402 107.997 46.2976 105.973 46.8949 104.366Z" fill="#6C707A"/>
<path d="M105.644 38.5236C103.463 40.145 98.7147 42.5731 96.3613 42.6627C92.028 42.8303 88.88 42.1106 85.14 40.1022C75.464 34.9079 65.648 37.0944 56.424 39.7772C51.38 41.2439 47.0933 41.2491 43.68 39.7944C43.0667 39.5319 42.448 39.2611 41.824 38.9866C37.824 37.2303 33.2907 35.2412 28.5547 35.2412H28.504C27.5987 35.2439 26.688 35.2355 25.772 35.2262C19.204 35.1746 12.404 35.1106 6.35335 38.7679C4.69869 39.7688 3.27467 40.7595 2.068 41.7398L0 47.9866C0.84 46.4236 5.31599 44.5986 8.65732 42.5772C13.6267 39.5731 19.7827 39.6278 25.732 39.6798C26.6667 39.6876 27.5934 39.6986 28.5174 39.6928C32.3307 39.6518 36.2467 41.4012 40.0347 43.0652C40.672 43.3439 41.3053 43.6226 41.932 43.8892C46.316 45.7595 51.6107 45.8142 57.668 44.0532C66.3547 41.5262 74.8307 39.6226 83.0333 44.0262C87.424 46.384 91.4627 47.3106 96.532 47.1116C99.016 47.0174 101.216 45.984 103.148 44.757L105.644 38.5236Z" fill="#EE3021"/>
<path d="M0 47.9866C0.84 46.4236 5.31599 44.5986 8.65732 42.5772C8.66932 42.5704 8.68133 42.5636 8.69333 42.5559C8.68133 42.5636 8.66932 42.5704 8.65732 42.5772C5.31599 44.5986 0.84 46.4236 0 47.9866ZM8.70133 42.5518C8.71333 42.5439 8.72534 42.5371 8.73734 42.5303C8.72534 42.5371 8.71333 42.5439 8.70133 42.5518ZM8.73867 42.5294C10.428 41.521 12.2533 40.8636 14.16 40.4355C14.1627 40.4387 14.1653 40.4398 14.168 40.4412C12.26 40.8679 10.4307 41.5199 8.73867 42.5294Z" fill="#DE776E"/>
<path d="M0 47.9866L2.068 41.7398C3.27467 40.7595 4.69869 39.7688 6.35335 38.7679C7.20669 38.2518 8.07465 37.8174 8.95465 37.4398C10.7373 38.4918 12.412 39.5346 14.16 40.4355C12.2533 40.8636 10.428 41.521 8.73867 42.5294C8.73867 42.5294 8.73734 42.5294 8.73734 42.5303C8.72534 42.5371 8.71333 42.5439 8.70133 42.5518C8.69867 42.5532 8.69599 42.5543 8.69333 42.5559C8.68133 42.5636 8.66932 42.5704 8.65732 42.5772C5.31599 44.5986 0.84 46.4236 0 47.9866Z" fill="#D12125"/>
<path d="M42.1708 43.9893C42.0908 43.957 42.0108 43.9237 41.9321 43.8893C41.3054 43.6226 40.6721 43.3439 40.0348 43.0653C38.1988 42.2585 36.3321 41.4355 34.4614 40.8022C34.4641 40.8022 34.4654 40.8013 34.4681 40.8013C36.3361 41.433 38.2001 42.2585 40.0348 43.0653C40.6721 43.3439 41.3054 43.6226 41.9321 43.8893C42.0108 43.9237 42.0908 43.957 42.1708 43.9893ZM60.8574 43.1627C60.8574 43.1611 60.8574 43.1611 60.8574 43.1611C64.5561 42.1809 68.2161 41.4439 71.8281 41.3945C71.8374 41.3961 71.8454 41.3986 71.8534 41.3997C68.2321 41.445 64.5654 42.1809 60.8574 43.1627ZM43.5121 39.7226C42.9534 39.4825 42.3908 39.2355 41.8241 38.9866C42.3908 39.2355 42.9534 39.4825 43.5121 39.7226ZM41.8241 38.9866C41.8188 38.9851 41.8134 38.9825 41.8081 38.9798C41.8134 38.9825 41.8188 38.9851 41.8241 38.9866Z" fill="#DE776E"/>
<path d="M49.784 45.332C52.24 45.2919 54.872 44.8664 57.668 44.0534C58.7347 43.7424 59.7973 43.4424 60.8573 43.1612C60.8573 43.1612 60.8573 43.1612 60.8573 43.1628C59.7973 43.4424 58.7347 43.7424 57.668 44.0534C54.872 44.8664 52.24 45.2919 49.784 45.332ZM49.4174 40.881C48.716 40.881 48.0373 40.8424 47.3813 40.7628C48.0373 40.8424 48.716 40.881 49.4174 40.881Z" fill="#D72624"/>
<path d="M49.4095 45.3347C49.5335 45.3347 49.6589 45.3331 49.7842 45.3321C49.6589 45.3331 49.5335 45.3347 49.4095 45.3347ZM47.3815 40.7628C46.0535 40.6023 44.8175 40.2799 43.6802 39.7946C43.6242 39.7706 43.5682 39.7466 43.5122 39.7227C43.5682 39.7466 43.6242 39.7706 43.6802 39.7946C44.8175 40.2799 46.0535 40.6023 47.3815 40.7628Z" fill="#C62125"/>
<path d="M49.4096 45.3347C46.7856 45.3347 44.3656 44.8867 42.1709 43.9894C42.0909 43.9571 42.0109 43.9238 41.9323 43.8894C41.3056 43.6227 40.6723 43.3441 40.0349 43.0654C38.2003 42.2586 36.3363 41.4331 34.4683 40.8014C36.8016 40.1586 39.0669 39.569 41.3283 38.7706C41.4869 38.8399 41.6509 38.9107 41.8083 38.9799C41.8136 38.9826 41.8189 38.9853 41.8243 38.9867C42.3909 39.2357 42.9536 39.4826 43.5123 39.7227C43.5683 39.7466 43.6243 39.7706 43.6803 39.7946C44.8176 40.2799 46.0536 40.6023 47.3816 40.7628C48.0376 40.8424 48.7163 40.881 49.4176 40.881C51.5523 40.881 53.8936 40.5133 56.4242 39.7774C58.6536 39.1295 60.9163 38.5133 63.2043 38.0201C65.8669 39.6279 68.7856 40.693 71.8283 41.3946C68.2163 41.4441 64.5562 42.181 60.8576 43.1613C59.7976 43.4425 58.7349 43.7425 57.6683 44.0534C54.8723 44.8665 52.2403 45.2919 49.7843 45.3321C49.6589 45.3331 49.5336 45.3347 49.4096 45.3347Z" fill="#D12125"/>
<path d="M83.0002 44.0081C82.9935 44.0039 82.9868 44.0014 82.9788 43.9971C82.9868 44.0014 82.9935 44.0039 83.0002 44.0081ZM82.9762 43.9962C81.8148 43.3758 80.6455 42.8962 79.4722 42.5118C79.4908 42.5133 79.5095 42.5159 79.5268 42.5175C80.6828 42.8971 81.8322 43.3853 82.9762 43.9962ZM95.1868 42.6867C92.9975 42.6867 91.0948 42.4263 89.2148 41.8466H89.2162C91.0962 42.4253 92.9988 42.6867 95.1895 42.6867C95.4748 42.6867 95.7668 42.681 96.0628 42.6733C95.7655 42.681 95.4735 42.6867 95.1868 42.6867Z" fill="#DE776E"/>
<path d="M95.2309 47.1382C90.7575 47.1382 87.0415 46.1783 83.0335 44.0262C83.0229 44.0199 83.0109 44.0142 83.0002 44.0079C82.9935 44.0038 82.9869 44.0013 82.9789 43.997C82.9789 43.9961 82.9775 43.996 82.9762 43.996C81.8322 43.3851 80.6829 42.897 79.5269 42.5174C79.9415 42.5491 80.3562 42.5798 80.7709 42.6064C81.4349 42.6491 82.0922 42.672 82.7429 42.672C84.9695 42.672 87.1149 42.4131 89.2149 41.8465C91.0949 42.4262 92.9975 42.6866 95.1869 42.6866C95.4735 42.6866 95.7655 42.6808 96.0629 42.6731C96.1615 42.6704 96.2615 42.6663 96.3615 42.6627C98.7149 42.5731 103.463 40.145 105.644 38.5237L103.148 44.757C101.216 45.984 99.0162 47.0174 96.5322 47.1116C96.0909 47.1294 95.6575 47.1382 95.2309 47.1382Z" fill="#D12125"/>
</svg>
