<svg width="120" height="117" viewBox="0 0 120 117" fill="none" xmlns="http://www.w3.org/2000/svg">
<path d="M61.3756 116.889C29.0983 116.889 2.93164 90.7227 2.93164 58.4441C2.93164 26.1667 29.0983 5.34058e-05 61.3756 5.34058e-05C93.6543 5.34058e-05 119.82 26.1667 119.82 58.4441C119.82 90.7227 93.6543 116.889 61.3756 116.889ZM88.7836 74.1254L107.3 88.0707C107.468 88.1987 107.665 88.2587 107.861 88.2587C108.161 88.2587 108.457 88.1147 108.638 87.8454L110.033 85.7627C110.309 85.3507 110.216 84.7947 109.82 84.4961L94.0477 72.6174C94.401 72.5627 94.729 72.5334 95.0303 72.5334C95.173 72.5334 95.309 72.5401 95.4396 72.5534C97.2796 72.7507 110.456 79.2867 115.049 81.5881C117.292 76.3947 118.8 70.8121 119.449 64.9694C113.828 63.9907 101.916 61.8254 97.5356 60.3174C93.5063 58.9281 90.429 57.0241 89.1796 56.4827C85.629 54.9414 81.4983 53.9774 79.6876 53.7654C79.5836 53.7534 79.413 53.7467 79.1823 53.7467C77.7583 53.7467 74.0756 53.9854 70.041 54.5361L30.4276 24.7001C30.2583 24.5734 30.061 24.5121 29.8663 24.5121C29.5663 24.5121 29.2703 24.6561 29.089 24.9268L27.693 27.0081C27.417 27.4201 27.5116 27.9761 27.9076 28.2747L64.1423 55.5667C62.5556 55.9187 61.0623 56.3281 59.789 56.8001C59.7556 56.8041 59.721 56.8094 59.6876 56.8147C57.3316 57.6747 55.7276 58.7841 55.7716 60.2041C55.7716 60.2081 56.029 62.2454 63.085 62.2454C64.9903 62.2454 67.3916 62.0974 70.417 61.7201C70.6623 61.9041 70.9396 62.0894 71.2543 62.2734C71.041 62.3894 70.8476 62.5134 70.6796 62.6441C70.649 62.6681 69.8716 62.8627 69.0903 63.0547C68.5756 63.1627 68.0583 63.2734 67.7463 63.3814C67.6157 63.4121 67.5236 63.4347 67.4876 63.4427C64.1503 63.7494 65.713 67.0641 66.8076 67.8067C67.1143 68.0161 67.6397 68.1334 68.281 68.1921C68.3743 68.8081 68.7463 70.1721 70.233 71.6521C70.5503 71.9667 71.1596 72.1027 71.9396 72.1254C72.057 72.3094 72.1836 72.4921 72.3196 72.6707C72.8236 73.3681 73.4676 74.0707 74.2663 74.6187C74.7196 74.9307 75.3543 75.0387 76.137 75.0387C76.241 75.0387 76.3476 75.0361 76.457 75.0334C76.6903 75.1654 76.9516 75.2987 77.2356 75.4267C78.145 75.8374 79.2876 76.1854 80.5023 76.1854C80.8503 76.1854 81.205 76.1561 81.5623 76.0921C84.141 75.6294 86.6036 74.8414 88.7836 74.1254Z" fill="url(#paint0_linear_111_788)"/>
<path d="M119.449 64.9692C113.828 63.9905 101.916 61.8252 97.5358 60.3172C93.5065 58.9279 90.4291 57.0239 89.1798 56.4826C85.6291 54.9412 81.4984 53.9772 79.6878 53.7652C77.8784 53.5519 55.6171 55.1425 55.7718 60.2039C55.7718 60.2039 56.2665 64.2119 75.3065 60.9946C73.9571 61.2572 71.7785 61.7879 70.6798 62.6439C70.3638 62.8905 67.5438 63.2506 67.4518 63.5506C66.4264 66.9199 73.2571 72.4425 75.3878 74.3079C76.0904 74.9239 78.7771 76.5919 81.5625 76.0919C87.4611 75.0332 92.7665 72.2679 95.4398 72.5532C97.2798 72.7506 110.456 79.2866 115.049 81.5879C117.292 76.3946 118.8 70.8119 119.449 64.9692Z" fill="#F6A34E"/>
<path d="M82.077 66.3426C81.341 65.0013 80.733 63.596 79.877 62.3226C79.285 61.4426 78.9836 60.4506 78.9196 59.444C76.0836 59.3706 72.9676 60.4173 69.8103 61.788C71.4463 61.5973 73.2609 61.34 75.3049 60.9946C73.9556 61.2573 71.7783 61.788 70.6796 62.644C70.6196 62.692 67.685 63.396 67.481 63.444C68.9343 64.4066 73.0756 65.0586 74.6609 66.5373C75.8356 67.6333 79.0929 67.368 82.2383 66.5986L82.077 66.3426Z" fill="#DF7D48"/>
<path d="M80.5025 76.1853C79.2878 76.1853 78.1452 75.8373 77.2358 75.4266C78.1492 75.8373 79.2945 76.184 80.5065 76.184C80.8545 76.184 81.2078 76.156 81.5625 76.092C84.1385 75.6293 86.6025 74.8413 88.7825 74.124L88.7838 74.1253C86.6038 74.8413 84.1412 75.6293 81.5625 76.092C81.2052 76.156 80.8505 76.1853 80.5025 76.1853Z" fill="url(#paint1_linear_111_788)"/>
<path d="M80.5066 76.1841C79.2946 76.1841 78.1493 75.8374 77.236 75.4268C76.9533 75.2988 76.6933 75.1641 76.46 75.0334C76.7893 75.0214 77.1413 74.9961 77.5146 74.9601C78.1653 74.8988 78.9493 74.8094 79.7786 74.6454C79.78 74.6667 79.78 74.6881 79.7813 74.7094C80.1786 74.6081 80.5986 74.4881 81.0653 74.3334C81.068 74.3334 81.0693 74.3334 81.0706 74.3321C84.0866 73.4494 85.132 72.4974 85.2333 71.7441C85.3533 71.7347 85.4746 71.7281 85.596 71.7241L88.7826 74.1241C86.6027 74.8414 84.1386 75.6294 81.5626 76.0921C81.208 76.1561 80.8546 76.1841 80.5066 76.1841Z" fill="#EB8C3C"/>
<path d="M63.0852 62.2454C56.0292 62.2454 55.7719 60.208 55.7719 60.204C55.7719 60.208 56.0305 62.2454 63.0852 62.2454C64.9905 62.2454 67.3919 62.096 70.4172 61.7187V61.72C67.3919 62.0974 64.9905 62.2454 63.0852 62.2454ZM55.7719 60.204C55.7279 58.784 57.3319 57.6747 59.6879 56.8147C59.7212 56.8094 59.7559 56.804 59.7892 56.8C57.3599 57.6987 55.7292 58.8214 55.7719 60.204Z" fill="url(#paint2_linear_111_788)"/>
<path d="M63.0851 62.2454C56.0305 62.2454 55.7718 60.208 55.7718 60.204C55.7291 58.8214 57.3598 57.6987 59.7891 56.8C61.5598 56.54 63.2971 56.328 65.0505 56.2507L68.6585 58.968C68.6558 59.028 68.6571 59.0894 68.6651 59.1534C68.7531 59.8427 69.1425 60.708 70.2585 61.596C70.1091 61.66 69.9598 61.724 69.8105 61.788C70.0092 61.7654 70.2092 61.7414 70.4132 61.716C70.4145 61.7174 70.4158 61.7187 70.4171 61.7187C67.3918 62.096 64.9905 62.2454 63.0851 62.2454ZM74.8998 58.1947L72.9611 56.736C73.7385 56.7294 74.6198 56.684 75.4772 56.6374C76.4025 56.5894 77.3011 56.54 78.0171 56.54C78.3091 56.54 78.5718 56.548 78.7931 56.568C78.9411 56.5814 79.0958 56.6027 79.2545 56.6307C78.7745 56.7987 78.2691 57.0947 77.6291 57.3907C76.9291 57.7147 76.0678 58.0387 74.8998 58.1947Z" fill="#EB8C3C"/>
<path d="M69.8105 61.7881C69.9599 61.7241 70.1092 61.6601 70.2585 61.5961C70.3079 61.6361 70.3599 61.6761 70.4132 61.7161C70.2092 61.7414 70.0092 61.7654 69.8105 61.7881Z" fill="#D46B38"/>
<path d="M0.0373372 70.7013L0 70.7533L5.15465 74.6106L5.19333 74.5599L0.0373372 70.7013Z" fill="#4A4E59"/>
<path d="M5.19297 74.5599L5.1543 74.6106L10.3103 78.4692L10.349 78.4186L5.19297 74.5599Z" fill="#4A4E59"/>
<path d="M10.3492 78.4187L10.3105 78.4693L15.4665 82.3267L15.5039 82.276L10.3492 78.4187Z" fill="#4A4E59"/>
<path d="M15.5036 82.276L15.4663 82.3266L20.621 86.1853L20.6596 86.1346L15.5036 82.276Z" fill="#4A4E59"/>
<path d="M20.6598 86.1347L20.6211 86.1854L25.7771 90.0427L25.8158 89.9921L20.6598 86.1347Z" fill="#4A4E59"/>
<path d="M25.7773 90.0427L30.9333 93.9014L30.9707 93.8507L25.816 89.9921L25.7773 90.0427Z" fill="#4A4E59"/>
<path d="M28.341 43.6267L23.185 39.768L19.3276 44.9241L24.4823 48.7827L28.341 43.6267Z" fill="#E1E1E1"/>
<path d="M33.4971 47.4841L28.3411 43.6268L24.4824 48.7828L29.6384 52.6401L33.4971 47.4841Z" fill="#4A4E59"/>
<path d="M34.7947 56.4985L38.652 51.3425L33.4973 47.4839L29.6387 52.6399L34.7947 56.4985Z" fill="#E1E1E1"/>
<path d="M39.9504 60.356L43.8078 55.2013L38.6518 51.3426L34.7944 56.4986L39.9504 60.356Z" fill="#4A4E59"/>
<path d="M39.9507 60.3559L45.1054 64.2146L48.964 59.0586L43.808 55.2013L39.9507 60.3559Z" fill="#E1E1E1"/>
<path d="M45.105 64.2147L50.261 68.072L54.1183 62.9174L48.9636 59.0587L45.105 64.2147Z" fill="#4A4E59"/>
<path d="M32.1997 38.4707L27.0437 34.6134L23.1851 39.768L28.3411 43.6267L32.1997 38.4707Z" fill="#4A4E59"/>
<path d="M33.4973 47.4839L37.3546 42.3292L32.2 38.4705L28.3413 43.6266L33.4973 47.4839Z" fill="#E1E1E1"/>
<path d="M38.6517 51.3428L42.5104 46.1868L37.3544 42.3295L33.4971 47.4841L38.6517 51.3428Z" fill="#4A4E59"/>
<path d="M43.8079 55.2014L47.6665 50.0454L42.5105 46.1868L38.6519 51.3428L43.8079 55.2014Z" fill="#E1E1E1"/>
<path d="M48.9641 59.0586L52.8214 53.9026L47.6668 50.0452L43.8081 55.2012L48.9641 59.0586Z" fill="#4A4E59"/>
<path d="M48.9639 59.0588L54.1185 62.9175L57.9772 57.7615L52.8212 53.9028L48.9639 59.0588Z" fill="#E1E1E1"/>
<path d="M27.0439 34.6134L32.1999 38.4707L35.8133 33.6427L30.6573 29.784L27.0439 34.6134Z" fill="#E1E1E1"/>
<path d="M37.3544 42.3293L40.9677 37.5L35.8131 33.6427L32.1997 38.4707L37.3544 42.3293Z" fill="#4A4E59"/>
<path d="M42.5105 46.1868L46.1238 41.3588L40.9678 37.5001L37.3545 42.3294L42.5105 46.1868Z" fill="#E1E1E1"/>
<path d="M47.6662 50.0454L51.2796 45.2161L46.1236 41.3588L42.5103 46.1868L47.6662 50.0454Z" fill="#4A4E59"/>
<path d="M52.8212 53.9026L56.4345 49.0746L51.2799 45.2159L47.6665 50.0453L52.8212 53.9026Z" fill="#E1E1E1"/>
<path d="M57.9773 57.7612L61.5906 52.9319L56.4346 49.0745L52.8213 53.9025L57.9773 57.7612Z" fill="#4A4E59"/>
<path d="M24.4826 48.7826L19.3279 44.9239L15.4692 50.0799L20.6252 53.9373L24.4826 48.7826Z" fill="#4A4E59"/>
<path d="M29.6383 52.6399L24.4824 48.7826L20.625 53.9372L25.781 57.7959L29.6383 52.6399Z" fill="#E1E1E1"/>
<path d="M34.7946 56.4986L29.6386 52.64L25.7812 57.796L30.9359 61.6533L34.7946 56.4986Z" fill="#4A4E59"/>
<path d="M30.936 61.6533L36.092 65.512L39.9507 60.356L34.7947 56.4986L30.936 61.6533Z" fill="#E1E1E1"/>
<path d="M36.0918 65.5121L41.2478 69.3694L45.1051 64.2147L39.9505 60.3561L36.0918 65.5121Z" fill="#4A4E59"/>
<path d="M41.248 69.3693L46.4027 73.228L50.2614 68.072L45.1054 64.2147L41.248 69.3693Z" fill="#E1E1E1"/>
<path d="M20.6251 53.9372L15.4691 50.0799L11.6118 55.2346L16.7678 59.0933L20.6251 53.9372Z" fill="#E1E1E1"/>
<path d="M25.7814 57.7962L20.6254 53.9375L16.7681 59.0935L21.9227 62.9521L25.7814 57.7962Z" fill="#4A4E59"/>
<path d="M30.9357 61.6533L25.7811 57.796L21.9224 62.952L27.0784 66.8093L30.9357 61.6533Z" fill="#E1E1E1"/>
<path d="M27.0786 66.8093L32.2346 70.668L36.0919 65.512L30.9359 61.6533L27.0786 66.8093Z" fill="#4A4E59"/>
<path d="M32.2344 70.668L37.389 74.5254L41.2477 69.3694L36.0917 65.512L32.2344 70.668Z" fill="#E1E1E1"/>
<path d="M37.3892 74.5254L42.5452 78.384L46.4025 73.228L41.2479 69.3694L37.3892 74.5254Z" fill="#4A4E59"/>
<path d="M16.7681 59.0933L11.6121 55.2346L7.75342 60.3906L12.9094 64.2493L16.7681 59.0933Z" fill="#4A4E59"/>
<path d="M21.9225 62.952L16.7678 59.0934L12.9092 64.2494L18.0652 68.1067L21.9225 62.952Z" fill="#E1E1E1"/>
<path d="M27.0783 66.8093L21.9223 62.952L18.0649 68.1067L23.2196 71.9653L27.0783 66.8093Z" fill="#4A4E59"/>
<path d="M23.2197 71.9654L28.3757 75.8228L32.2344 70.6681L27.0784 66.8094L23.2197 71.9654Z" fill="#E1E1E1"/>
<path d="M28.376 75.8227L33.532 79.6814L37.3893 74.5254L32.2346 70.6681L28.376 75.8227Z" fill="#4A4E59"/>
<path d="M33.5317 79.6813L38.6864 83.5386L42.5451 78.3839L37.3891 74.5253L33.5317 79.6813Z" fill="#E1E1E1"/>
<path d="M12.9093 64.2494L7.75332 60.3907L3.896 65.5467L9.05065 69.4041L12.9093 64.2494Z" fill="#E1E1E1"/>
<path d="M18.065 68.1067L12.909 64.2493L9.05029 69.404L14.2063 73.2627L18.065 68.1067Z" fill="#4A4E59"/>
<path d="M18.0652 68.1068L14.2065 73.2628L19.3625 77.1201L23.2199 71.9654L18.0652 68.1068Z" fill="#E1E1E1"/>
<path d="M19.3623 77.1201L24.517 80.9788L28.3757 75.8228L23.2196 71.9654L19.3623 77.1201Z" fill="#4A4E59"/>
<path d="M24.5171 80.9786L29.6731 84.8359L33.5318 79.6813L28.3758 75.8226L24.5171 80.9786Z" fill="#E1E1E1"/>
<path d="M29.6733 84.8361L34.8293 88.6948L38.6867 83.5388L33.532 79.6815L29.6733 84.8361Z" fill="#4A4E59"/>
<path d="M9.05042 69.404L3.89577 65.5467L0.0371094 70.7014L5.1931 74.5601L9.05042 69.404Z" fill="#4A4E59"/>
<path d="M9.05068 69.404L5.19336 74.56L10.3494 78.4187L14.2067 73.2627L9.05068 69.404Z" fill="#E1E1E1"/>
<path d="M14.2064 73.2626L10.3491 78.4186L15.5038 82.2759L19.3624 77.1199L14.2064 73.2626Z" fill="#4A4E59"/>
<path d="M19.3626 77.1201L15.5039 82.2761L20.6599 86.1348L24.5172 80.9788L19.3626 77.1201Z" fill="#E1E1E1"/>
<path d="M20.6597 86.1346L25.8157 89.9919L29.673 84.8359L24.517 80.9786L20.6597 86.1346Z" fill="#4A4E59"/>
<path d="M25.8159 89.9919L30.9706 93.8506L34.8292 88.6946L29.6732 84.8359L25.8159 89.9919Z" fill="#E1E1E1"/>
<path d="M110.033 85.7627L108.638 87.8453C108.34 88.2907 107.728 88.3933 107.3 88.0707L27.9077 28.2747C27.5117 27.976 27.4171 27.42 27.6931 27.008L29.0891 24.9267C29.3877 24.48 29.9997 24.3773 30.4277 24.7L109.82 84.496C110.216 84.7947 110.309 85.3507 110.033 85.7627Z" fill="#9A756B"/>
<path d="M80.1944 70.8479C81.589 70.5132 83.333 70.1892 84.109 70.4266C85.5024 70.8546 86.6104 72.7105 81.065 74.3332C79.781 74.7092 78.4944 74.8679 77.5144 74.9599C76.0837 75.0959 74.9624 75.0959 74.2664 74.6186C71.849 72.9612 70.853 69.8812 70.853 69.8812L75.8477 70.9065C77.2837 71.2012 78.7677 71.1892 80.1944 70.8479Z" fill="#F6A34E"/>
<path d="M79.781 74.7095C79.7797 74.6881 79.7797 74.6668 79.7783 74.6455C80.1997 74.5628 80.633 74.4601 81.065 74.3335C81.0676 74.3335 81.069 74.3335 81.0703 74.3321C81.069 74.3335 81.0676 74.3335 81.065 74.3335C80.5983 74.4881 80.1783 74.6081 79.781 74.7095Z" fill="#E87E33"/>
<path d="M82.1597 70.4546C82.6103 70.3866 83.0383 70.3452 83.4023 70.3452C83.541 70.3452 83.6717 70.3506 83.7903 70.3639C83.6717 70.3506 83.541 70.3452 83.401 70.3452C83.0383 70.3452 82.6103 70.3866 82.1597 70.4546Z" fill="#F49641"/>
<path d="M85.1932 71.3281C85.0479 70.9001 84.5959 70.5761 84.1092 70.4268C84.0159 70.3988 83.9092 70.3774 83.7905 70.3641C83.9092 70.3774 84.0159 70.3988 84.1092 70.4268C84.6132 70.5815 85.0732 70.8988 85.1932 71.3281Z" fill="#976B5A"/>
<path d="M79.7787 74.6453C79.7254 73.6053 79.3907 72.5853 78.8374 71.7133C80.5481 71.2786 82.1494 70.5853 83.8361 70.3746C83.7027 70.3559 83.5534 70.3479 83.3921 70.3479C83.0294 70.3479 82.6027 70.3893 82.1534 70.4559C82.1547 70.4559 82.1574 70.4546 82.1601 70.4546C82.6107 70.3866 83.0387 70.3453 83.4014 70.3453C83.5414 70.3453 83.6721 70.3506 83.7907 70.3639C83.9094 70.3772 84.0161 70.3986 84.1094 70.4266C84.5961 70.5759 85.0481 70.8999 85.1934 71.3279C85.4041 72.0799 84.5641 73.1759 81.0707 74.3319C81.0694 74.3333 81.0681 74.3333 81.0654 74.3333C80.6334 74.4599 80.2001 74.5626 79.7787 74.6453ZM83.8894 70.5999C83.2201 70.5999 82.4401 70.8559 82.4147 70.9173C82.4147 70.9173 81.7574 72.0413 83.084 72.5693C83.6987 72.4999 84.0841 72.3093 84.3934 72.0613C84.8934 71.6599 84.9441 71.3586 84.8014 71.0053C84.6787 70.6999 84.3054 70.5999 83.8894 70.5999Z" fill="#F49641"/>
<path d="M82.4143 70.9174C82.4557 70.8187 84.4796 70.2067 84.801 71.0053C84.9436 71.3587 84.893 71.66 84.393 72.0614C84.0836 72.3094 83.6983 72.5 83.0836 72.5693C81.757 72.0413 82.4143 70.9174 82.4143 70.9174Z" fill="#F9B66F"/>
<path d="M72.3199 72.6707C72.1839 72.492 72.0573 72.3093 71.9399 72.1253C71.9439 72.1253 71.9479 72.1253 71.9506 72.1253C72.0639 72.3053 72.1879 72.488 72.3199 72.6707Z" fill="url(#paint3_linear_111_788)"/>
<path d="M72.3334 72.6895C72.3294 72.6828 72.324 72.6774 72.32 72.6708C72.188 72.4881 72.064 72.3055 71.9507 72.1255C72.0267 72.1281 72.1027 72.1295 72.1814 72.1295C73.7307 72.1295 75.8574 71.7401 77.7334 71.4068C77.7334 71.4068 77.7334 71.4068 77.7334 71.4081L78.0307 71.3535C78.0387 71.3521 78.0467 71.3508 78.0547 71.3494C78.0614 71.3481 78.068 71.3481 78.0747 71.3468C78.2254 71.3201 78.376 71.2934 78.5267 71.2668C78.6374 71.4108 78.7414 71.5601 78.8374 71.7134C78.356 71.8348 77.8654 71.9374 77.3627 72.0014C75.8134 72.1988 73.884 72.4935 72.3334 72.6895Z" fill="#EB8C3C"/>
<path d="M78.837 71.7134C78.741 71.56 78.637 71.4107 78.5264 71.2667C79.8557 71.0334 81.1624 70.8001 82.153 70.4561C82.6024 70.3894 83.029 70.348 83.3917 70.348C83.553 70.348 83.7024 70.356 83.8357 70.3747C82.149 70.5854 80.5477 71.2787 78.837 71.7134Z" fill="#E87E33"/>
<path d="M70.0438 57.9372C74.0798 58.7186 76.1944 58.0546 77.6291 57.3906C78.7824 56.8573 79.4971 56.3239 80.4184 56.5399C82.5891 57.0506 88.7158 57.3519 88.7158 57.3519C88.7158 57.3519 93.9091 60.7946 91.1664 62.6066C87.7824 64.8426 85.0424 64.0199 83.2597 63.1972C82.2664 62.7399 81.5691 62.2813 81.2237 62.3519C80.2584 62.5479 76.6451 64.6906 72.7678 63.0293C69.6504 61.6946 68.7997 60.2146 68.6651 59.1533C68.5704 58.3973 69.2971 57.7932 70.0438 57.9372Z" fill="#F6A34E"/>
<path d="M81.2236 62.3521C81.2316 62.3494 81.2397 62.348 81.2477 62.348C81.2397 62.348 81.2316 62.3494 81.2236 62.3521ZM81.2503 62.3467H81.2516H81.2503Z" fill="#EB8C3C"/>
<path d="M85.7837 63.9453C83.5224 63.6333 81.9464 62.344 81.3024 62.344C81.285 62.344 81.2677 62.3453 81.2517 62.3466H81.2504C81.249 62.3466 81.2477 62.348 81.2477 62.348C81.2397 62.348 81.2317 62.3493 81.2237 62.352C80.525 62.4933 78.437 63.656 75.8664 63.656C74.9104 63.656 73.8864 63.4947 72.8424 63.0613C72.841 63.06 72.8397 63.06 72.8384 63.06C72.8144 63.0493 72.7904 63.04 72.7677 63.0293C72.7424 63.0187 72.7184 63.008 72.6944 62.9986C69.637 61.672 68.7984 60.2067 68.665 59.1533L68.693 58.9453C69.0784 59.444 69.5424 59.888 70.0837 60.28C71.2197 61.1013 73.0544 61.62 74.9464 61.62C76.8931 61.62 78.901 61.072 80.2744 59.74C81.757 62.48 84.485 63.364 85.7837 63.9453Z" fill="#EB8C3C"/>
<path d="M70.1932 57.9665C70.3239 57.8999 73.4479 58.3226 73.4479 58.3226C73.3412 58.8292 73.0945 60.3572 72.1345 60.2799C71.5959 60.2372 70.6932 59.8825 69.9972 59.4079C69.0999 57.6852 70.1932 57.9665 70.1932 57.9665Z" fill="#F9B66F"/>
<path d="M77.4544 67.2986C79.2157 67.08 83.5197 66.6587 83.8597 68.684C84.1397 70.356 81.045 70.8227 78.0304 71.3533C75.0144 71.8853 71.217 72.6307 70.233 71.652C68.2157 69.644 68.2491 67.8467 68.2491 67.8467C68.2491 67.8467 76.9997 67.356 77.4544 67.2986Z" fill="#F6A34E"/>
<path d="M77.7329 71.408C77.7329 71.4066 77.7329 71.4066 77.7329 71.4066C77.8329 71.3893 77.9316 71.3706 78.0302 71.3533L77.7329 71.408ZM78.0542 71.3493C78.0609 71.348 78.0676 71.348 78.0743 71.3466C78.0676 71.348 78.0609 71.348 78.0542 71.3493Z" fill="#E87E33"/>
<path d="M83.8597 68.6841C83.7437 67.9947 83.1704 67.5894 82.3931 67.3628C83.1944 67.5868 83.7771 67.9921 83.8597 68.6841Z" fill="#976B5A"/>
<path d="M77.7329 71.4067C77.6249 70.2241 77.1569 69.0801 76.4263 68.1681C77.9156 68.0081 79.349 67.7654 80.6823 67.3134C80.3703 67.2827 80.0543 67.2601 79.7436 67.2454C80.0276 67.2094 80.2783 67.1668 80.5023 67.1188C81.1743 67.1374 81.8356 67.2054 82.3929 67.3628C83.1703 67.5894 83.7436 67.9947 83.8596 68.6841C84.0596 70.3601 81.0743 70.8174 78.0743 71.3467C78.0676 71.3481 78.0609 71.3481 78.0543 71.3494C78.0463 71.3507 78.0383 71.3521 78.0303 71.3534C77.9316 71.3708 77.8329 71.3894 77.7329 71.4067ZM81.5676 67.6147C81.0543 67.6147 80.6249 67.7227 80.5983 67.7654C80.5983 67.7654 79.8116 69.3534 81.1783 70.1868C81.2556 70.1908 81.3303 70.1921 81.4023 70.1921C81.9729 70.1921 82.3756 70.0614 82.7196 69.8694C83.3476 69.5201 83.4423 69.2001 83.3703 68.7787C83.2103 67.8347 82.3023 67.6147 81.5676 67.6147Z" fill="#F49641"/>
<path d="M80.5983 67.7655C80.6623 67.6628 83.097 67.1721 83.3703 68.7788C83.4423 69.2001 83.3476 69.5201 82.7196 69.8695C82.3316 70.0855 81.8717 70.2241 81.1783 70.1868C79.8117 69.3535 80.5983 67.7655 80.5983 67.7655Z" fill="#F9B66F"/>
<path d="M68.4624 68.9294C68.3744 68.6721 68.3211 68.4001 68.2891 68.1921C68.6571 68.2254 69.0624 68.2388 69.4864 68.2388C70.4877 68.2388 71.5944 68.1628 72.5517 68.0868C73.5091 68.0108 74.3171 67.9334 74.7224 67.9334C74.7451 67.9334 74.7677 67.9347 74.7877 67.9347C74.7971 67.9347 74.8064 67.9347 74.8171 67.9347C75.0571 67.9347 75.5104 67.8708 76.0851 67.7788C76.2051 67.9028 76.3184 68.0334 76.4264 68.1681C73.8571 68.4441 71.1251 68.4788 68.4624 68.9294Z" fill="#EB8C3C"/>
<path d="M76.4263 68.168C76.3183 68.0333 76.205 67.9026 76.085 67.7786C77.0156 67.6306 78.2636 67.4106 79.4356 67.2826C79.5423 67.2706 79.645 67.2586 79.7437 67.2453C80.0543 67.26 80.3703 67.2826 80.6823 67.3133C79.349 67.7653 77.9156 68.008 76.4263 68.168Z" fill="#E87E33"/>
<path d="M67.9906 63.42C70.1639 63.4133 71.5253 63.5533 72.5493 63.6866C73.7106 63.8386 74.8773 63.8813 76.0453 63.7933C78.4786 63.6106 82.4706 63.4106 82.268 65.3066C82.136 66.5426 81.696 67.0346 79.436 67.2826C77.5106 67.4933 75.3799 67.9493 74.7879 67.9346C74.4079 67.9253 73.5639 68.0053 72.5519 68.0866C70.4786 68.252 67.7066 68.4173 66.808 67.8066C65.6613 67.0293 64.0026 63.432 67.9906 63.42Z" fill="#F6A34E"/>
<path d="M74.9986 63.8374C74.9959 63.8307 74.9919 63.8227 74.9893 63.8161C75.0239 63.8147 75.0586 63.8147 75.0946 63.8147L75.1226 63.8361C75.0813 63.8374 75.0399 63.8374 74.9986 63.8374Z" fill="#DD723E"/>
<path d="M75.1222 63.8359L75.0942 63.8146C75.4049 63.8133 75.7156 63.8173 76.0276 63.7946C75.7249 63.8173 75.4236 63.8306 75.1222 63.8359Z" fill="#976B5A"/>
<path d="M75.1452 67.6772C75.5372 66.4252 75.4985 65.0252 74.9985 63.8372C75.0399 63.8372 75.0812 63.8372 75.1225 63.8359C75.4239 63.8306 75.7252 63.8173 76.0279 63.7946C76.0332 63.7946 76.0385 63.7933 76.0452 63.7933C76.7812 63.7386 77.6585 63.6813 78.5212 63.6813C80.4385 63.6813 82.2745 63.9626 82.2745 65.1706C82.2745 65.2146 82.2719 65.2599 82.2679 65.3066C82.1359 66.5426 81.6959 67.0346 79.4359 67.2826C77.7932 67.4626 76.0732 67.6399 75.1452 67.6772Z" fill="#F49641"/>
<path d="M78.6758 64.1748C78.7464 64.0614 81.2304 63.6134 81.7584 64.9708C81.9877 65.5641 81.8091 66.4735 80.8851 66.6961C80.4051 66.8135 79.9504 66.9908 79.1798 66.9494C77.6598 66.0228 78.6758 64.1748 78.6758 64.1748Z" fill="#F9B66F"/>
<defs>
<linearGradient id="paint0_linear_111_788" x1="102.022" y1="108.925" x2="19.3556" y2="6.25848" gradientUnits="userSpaceOnUse">
<stop stop-color="#F6F6F6"/>
<stop offset="0.155966" stop-color="#F6F6F6"/>
<stop offset="1" stop-color="#B6E7F2"/>
</linearGradient>
<linearGradient id="paint1_linear_111_788" x1="102.022" y1="108.925" x2="19.356" y2="6.25848" gradientUnits="userSpaceOnUse">
<stop stop-color="#E5D2B9"/>
<stop offset="0.155966" stop-color="#E5D2B9"/>
<stop offset="1" stop-color="#A3D1BE"/>
</linearGradient>
<linearGradient id="paint2_linear_111_788" x1="102.022" y1="108.925" x2="19.3556" y2="6.2586" gradientUnits="userSpaceOnUse">
<stop stop-color="#E5D2B9"/>
<stop offset="0.155966" stop-color="#E5D2B9"/>
<stop offset="1" stop-color="#A3D1BE"/>
</linearGradient>
<linearGradient id="paint3_linear_111_788" x1="102.021" y1="108.924" x2="19.3573" y2="6.26199" gradientUnits="userSpaceOnUse">
<stop stop-color="#E5D2B9"/>
<stop offset="0.155966" stop-color="#E5D2B9"/>
<stop offset="1" stop-color="#A3D1BE"/>
</linearGradient>
</defs>
</svg>
